ISO-10303-21;
HEADER;
FILE_DESCRIPTION (( 'STEP AP203' ),
    '1' );
FILE_NAME ('2400-03-柜体.STEP',
    '2026-05-25T07:18:27',
    ( 'Windows 用户' ),
    ( 'Microsoft' ),
    'SwSTEP 2.0',
    'SolidWorks 2018',
    '' );
FILE_SCHEMA (( 'CONFIG_CONTROL_DESIGN' ));
ENDSEC;

DATA;
#1 = FACE_OUTER_BOUND ( 'NONE', #1240, .T. ) ;
#2 = DIRECTION ( 'NONE',  ( -1.229449654538445474E-16, 1.000000000000000000, 0.000000000000000000 ) ) ;
#3 = VECTOR ( 'NONE', #911, 1000.000000000000000 ) ;
#4 = CARTESIAN_POINT ( 'NONE',  ( 432.0000000000002274, -1909.000000000000227, 20.00000000000001776 ) ) ;
#5 = FACE_OUTER_BOUND ( 'NONE', #1225, .T. ) ;
#6 = AXIS2_PLACEMENT_3D ( 'NONE', #901, #483, #1230 ) ;
#7 = ORIENTED_EDGE ( 'NONE', *, *, #40, .T. ) ;
#8 = ORIENTED_EDGE ( 'NONE', *, *, #178, .F. ) ;
#9 = ORIENTED_EDGE ( 'NONE', *, *, #629, .F. ) ;
#10 = CARTESIAN_POINT ( 'NONE',  ( 2.877919977996280525E-13, -2350.000000000000000, 580.0000000000000000 ) ) ;
#11 = ADVANCED_FACE ( 'NONE', ( #1194 ), #563, .T. ) ;
#12 = CARTESIAN_POINT ( 'NONE',  ( 432.0000000000000000, -2350.000000000000000, -0.000000000000000000 ) ) ;
#13 = LINE ( 'NONE', #1018, #211 ) ;
#14 = DIRECTION ( 'NONE',  ( 1.199463077598483474E-16, -1.000000000000000000, 0.000000000000000000 ) ) ;
#15 = VECTOR ( 'NONE', #407, 1000.000000000000000 ) ;
#16 = DIRECTION ( 'NONE',  ( 0.000000000000000000, 1.000000000000000000, -0.000000000000000000 ) ) ;
#17 = VECTOR ( 'NONE', #520, 1000.000000000000000 ) ;
#18 = DIRECTION ( 'NONE',  ( -0.000000000000000000, -0.000000000000000000, -1.000000000000000000 ) ) ;
#19 = ADVANCED_FACE ( 'NONE', ( #1121 ), #215, .F. ) ;
#20 = EDGE_CURVE ( 'NONE', #632, #1003, #784, .T. ) ;
#21 = VECTOR ( 'NONE', #49, 1000.000000000000000 ) ;
#22 = VERTEX_POINT ( 'NONE', #1078 ) ;
#23 = CARTESIAN_POINT ( 'NONE',  ( 432.0000000000000000, -18.00000000000000000, 2.000000000000000000 ) ) ;
#24 = EDGE_LOOP ( 'NONE', ( #888, #370, #1038, #1089 ) ) ;
#25 = DIRECTION ( 'NONE',  ( -0.000000000000000000, -0.000000000000000000, -1.000000000000000000 ) ) ;
#26 = ORIENTED_EDGE ( 'NONE', *, *, #828, .F. ) ;
#27 = CARTESIAN_POINT ( 'NONE',  ( 18.00000000000000355, -18.00000000000000000, 20.00000000000001776 ) ) ;
#28 = DIRECTION ( 'NONE',  ( 0.000000000000000000, 1.000000000000000000, 0.000000000000000000 ) ) ;
#29 = EDGE_CURVE ( 'NONE', #446, #143, #494, .T. ) ;
#30 = PERSON_AND_ORGANIZATION ( #859, #165 ) ;
#31 = VECTOR ( 'NONE', #68, 1000.000000000000000 ) ;
#32 = PLANE ( 'NONE',  #975 ) ;
#33 = DIRECTION ( 'NONE',  ( -1.229449654538445474E-16, 1.000000000000000000, 0.000000000000000000 ) ) ;
#34 = ADVANCED_FACE ( 'NONE', ( #886 ), #1332, .F. ) ;
#35 = LINE ( 'NONE', #497, #398 ) ;
#36 = DIRECTION ( 'NONE',  ( 1.199463077598483474E-16, -1.000000000000000000, 0.000000000000000000 ) ) ;
#37 = ORIENTED_EDGE ( 'NONE', *, *, #116, .T. ) ;
#38 = DIRECTION ( 'NONE',  ( -0.000000000000000000, -0.000000000000000000, -1.000000000000000000 ) ) ;
#39 = APPROVAL ( #957, '未指定' ) ;
#40 = EDGE_CURVE ( 'NONE', #1241, #89, #820, .T. ) ;
#41 = ORIENTED_EDGE ( 'NONE', *, *, #685, .T. ) ;
#42 = ADVANCED_FACE ( 'NONE', ( #649 ), #364, .F. ) ;
#43 = DIRECTION ( 'NONE',  ( -1.000000000000000000, -0.000000000000000000, -0.000000000000000000 ) ) ;
#44 = ORIENTED_EDGE ( 'NONE', *, *, #525, .T. ) ;
#45 = DIRECTION ( 'NONE',  ( 1.229449654538445474E-16, -1.000000000000000000, 0.000000000000000000 ) ) ;
#46 = CARTESIAN_POINT ( 'NONE',  ( 18.00000000000000355, -18.00000000000000000, 20.00000000000001776 ) ) ;
#47 = PERSON_AND_ORGANIZATION ( #859, #165 ) ;
#48 = CARTESIAN_POINT ( 'NONE',  ( 0.000000000000000000, 0.000000000000000000, 20.00000000000000000 ) ) ;
#49 = DIRECTION ( 'NONE',  ( 1.224646799147353454E-16, -1.000000000000000000, 0.000000000000000000 ) ) ;
#50 = VECTOR ( 'NONE', #375, 1000.000000000000000 ) ;
#51 = LINE ( 'NONE', #245, #536 ) ;
#52 = FACE_OUTER_BOUND ( 'NONE', #578, .T. ) ;
#53 = DIRECTION ( 'NONE',  ( -0.000000000000000000, -0.000000000000000000, -1.000000000000000000 ) ) ;
#54 = LINE ( 'NONE', #1012, #367 ) ;
#55 = DIRECTION ( 'NONE',  ( -1.000000000000000000, 0.000000000000000000, -0.000000000000000000 ) ) ;
#56 = EDGE_LOOP ( 'NONE', ( #922, #130, #1191, #1091 ) ) ;
#57 = AXIS2_PLACEMENT_3D ( 'NONE', #716, #180, #924 ) ;
#58 = EDGE_CURVE ( 'NONE', #875, #1159, #1308, .T. ) ;
#59 = ORIENTED_EDGE ( 'NONE', *, *, #776, .T. ) ;
#60 = VERTEX_POINT ( 'NONE', #266 ) ;
#61 = EDGE_LOOP ( 'NONE', ( #667, #420, #276, #403 ) ) ;
#62 = CARTESIAN_POINT ( 'NONE',  ( 0.000000000000000000, 0.000000000000000000, 20.00000000000000000 ) ) ;
#63 = ORIENTED_EDGE ( 'NONE', *, *, #323, .T. ) ;
#64 = CARTESIAN_POINT ( 'NONE',  ( 0.000000000000000000, 0.000000000000000000, 580.0000000000000000 ) ) ;
#65 = LOCAL_TIME ( 15, 18, 27.00000000000000000, #1363 ) ;
#66 = EDGE_CURVE ( 'NONE', #302, #965, #54, .T. ) ;
#67 = VECTOR ( 'NONE', #1346, 1000.000000000000000 ) ;
#68 = DIRECTION ( 'NONE',  ( -0.000000000000000000, -0.000000000000000000, -1.000000000000000000 ) ) ;
#69 = CARTESIAN_POINT ( 'NONE',  ( 18.00000000000009237, -748.0000000000002274, 580.0000000000000000 ) ) ;
#70 = FACE_OUTER_BOUND ( 'NONE', #321, .T. ) ;
#71 = DIRECTION ( 'NONE',  ( -1.199463077598483474E-16, 1.000000000000000000, -0.000000000000000000 ) ) ;
#72 = FACE_OUTER_BOUND ( 'NONE', #225, .T. ) ;
#73 = DIRECTION ( 'NONE',  ( -1.199463077598483474E-16, 1.000000000000000000, -0.000000000000000000 ) ) ;
#74 = ORIENTED_EDGE ( 'NONE', *, *, #1043, .F. ) ;
#75 = EDGE_LOOP ( 'NONE', ( #1039, #1242, #90, #597 ) ) ;
#76 = VERTEX_POINT ( 'NONE', #157 ) ;
#77 = CARTESIAN_POINT ( 'NONE',  ( 432.0000000000000000, -18.00000000000000000, 580.0000000000000000 ) ) ;
#78 = ORIENTED_EDGE ( 'NONE', *, *, #525, .F. ) ;
#79 = DIRECTION ( 'NONE',  ( 1.229449654538445474E-16, -1.000000000000000000, 0.000000000000000000 ) ) ;
#80 = EDGE_LOOP ( 'NONE', ( #669, #74, #561, #841 ) ) ;
#81 = DIRECTION ( 'NONE',  ( -1.229449654538445474E-16, 1.000000000000000000, 0.000000000000000000 ) ) ;
#82 = APPROVAL_DATE_TIME ( #948, #1336 ) ;
#83 = FACE_OUTER_BOUND ( 'NONE', #971, .T. ) ;
#84 = FACE_OUTER_BOUND ( 'NONE', #921, .T. ) ;
#85 = EDGE_CURVE ( 'NONE', #242, #1003, #752, .T. ) ;
#86 = CARTESIAN_POINT ( 'NONE',  ( 0.000000000000000000, 0.000000000000000000, 580.0000000000000000 ) ) ;
#87 = PLANE ( 'NONE',  #136 ) ;
#88 = FACE_OUTER_BOUND ( 'NONE', #853, .T. ) ;
#89 = VERTEX_POINT ( 'NONE', #790 ) ;
#90 = ORIENTED_EDGE ( 'NONE', *, *, #509, .F. ) ;
#91 = DIRECTION ( 'NONE',  ( -1.000000000000000000, -2.681698127113906735E-16, 0.000000000000000000 ) ) ;
#92 = EDGE_CURVE ( 'NONE', #637, #1328, #1031, .T. ) ;
#93 = VERTEX_POINT ( 'NONE', #376 ) ;
#94 = CARTESIAN_POINT ( 'NONE',  ( 18.00000000000029488, -386.0000000000002274, 994.3911195959683482 ) ) ;
#95 = MANIFOLD_SOLID_BREP ( '切除-拉伸2', #406 ) ;
#96 = PERSON_AND_ORGANIZATION ( #859, #165 ) ;
#97 =( NAMED_UNIT ( * ) PLANE_ANGLE_UNIT ( ) SI_UNIT ( $, .RADIAN. ) );
#98 = CARTESIAN_POINT ( 'NONE',  ( 18.00000000000029488, -1528.000000000000227, 994.3911195959683482 ) ) ;
#99 = DIRECTION ( 'NONE',  ( 1.199463077598483474E-16, -1.000000000000000000, 0.000000000000000000 ) ) ;
#100 = VECTOR ( 'NONE', #609, 1000.000000000000000 ) ;
#101 = FACE_OUTER_BOUND ( 'NONE', #334, .T. ) ;
#102 = EDGE_CURVE ( 'NONE', #767, #875, #1253, .T. ) ;
#103 = APPROVAL_STATUS ( 'not_yet_approved' ) ;
#104 = VECTOR ( 'NONE', #1273, 1000.000000000000000 ) ;
#105 = LINE ( 'NONE', #800, #916 ) ;
#106 = DIRECTION ( 'NONE',  ( -0.000000000000000000, -0.000000000000000000, -1.000000000000000000 ) ) ;
#107 = ORIENTED_EDGE ( 'NONE', *, *, #951, .F. ) ;
#108 = ORIENTED_EDGE ( 'NONE', *, *, #1337, .F. ) ;
#109 = CARTESIAN_POINT ( 'NONE',  ( 432.0000000000000000, -1129.000000000000227, 994.3911195959683482 ) ) ;
#110 = EDGE_CURVE ( 'NONE', #1001, #311, #105, .T. ) ;
#111 = VERTEX_POINT ( 'NONE', #995 ) ;
#112 = CARTESIAN_POINT ( 'NONE',  ( 18.00000000000000355, -18.00000000000000000, 580.0000000000000000 ) ) ;
#113 = ORIENTED_EDGE ( 'NONE', *, *, #360, .T. ) ;
#114 = CC_DESIGN_APPROVAL ( #1336, ( #1180 ) ) ;
#115 = VERTEX_POINT ( 'NONE', #69 ) ;
#116 = EDGE_CURVE ( 'NONE', #1329, #1297, #169, .T. ) ;
#117 =( NAMED_UNIT ( * ) SI_UNIT ( $, .STERADIAN. ) SOLID_ANGLE_UNIT ( ) );
#118 = CARTESIAN_POINT ( 'NONE',  ( 18.00000000000018474, -1510.000000000000227, 580.0000000000000000 ) ) ;
#119 = DIRECTION ( 'NONE',  ( 1.000000000000000000, 1.229449654538445474E-16, -0.000000000000000000 ) ) ;
#120 = FACE_OUTER_BOUND ( 'NONE', #839, .T. ) ;
#121 = APPROVAL_STATUS ( 'not_yet_approved' ) ;
#122 = FACE_BOUND ( 'NONE', #75, .T. ) ;
#123 = VECTOR ( 'NONE', #1219, 1000.000000000000000 ) ;
#124 = DIRECTION ( 'NONE',  ( 1.000000000000000000, 1.229449654538445474E-16, -0.000000000000000000 ) ) ;
#125 = ADVANCED_FACE ( 'NONE', ( #976 ), #688, .F. ) ;
#126 = VECTOR ( 'NONE', #850, 1000.000000000000000 ) ;
#127 = ORIENTED_EDGE ( 'NONE', *, *, #1257, .T. ) ;
#128 = DIRECTION ( 'NONE',  ( 0.000000000000000000, 1.000000000000000000, 0.000000000000000000 ) ) ;
#129 = DIRECTION ( 'NONE',  ( 0.000000000000000000, -0.000000000000000000, -1.000000000000000000 ) ) ;
#130 = ORIENTED_EDGE ( 'NONE', *, *, #355, .T. ) ;
#131 = ORIENTED_EDGE ( 'NONE', *, *, #194, .F. ) ;
#132 = DIRECTION ( 'NONE',  ( -0.000000000000000000, -0.000000000000000000, -1.000000000000000000 ) ) ;
#133 = EDGE_LOOP ( 'NONE', ( #481, #1360, #640, #499 ) ) ;
#134 = DIRECTION ( 'NONE',  ( -1.000000000000000000, 0.000000000000000000, 0.000000000000000000 ) ) ;
#135 = ORIENTED_EDGE ( 'NONE', *, *, #355, .F. ) ;
#136 = AXIS2_PLACEMENT_3D ( 'NONE', #1042, #1151, #819 ) ;
#137 = DATE_AND_TIME ( #743, #65 ) ;
#138 = CARTESIAN_POINT ( 'NONE',  ( 18.00000000000000355, -18.00000000000000000, 580.0000000000000000 ) ) ;
#139 = LINE ( 'NONE', #780, #954 ) ;
#140 = LINE ( 'NONE', #1131, #940 ) ;
#141 = EDGE_CURVE ( 'NONE', #872, #655, #697, .T. ) ;
#142 = LINE ( 'NONE', #298, #1204 ) ;
#143 = VERTEX_POINT ( 'NONE', #1323 ) ;
#144 = CARTESIAN_POINT ( 'NONE',  ( 432.0000000000000000, -18.00000000000000000, 580.0000000000000000 ) ) ;
#145 = VERTEX_POINT ( 'NONE', #371 ) ;
#146 = DIRECTION ( 'NONE',  ( -1.229449654538445474E-16, 1.000000000000000000, 0.000000000000000000 ) ) ;
#147 = EDGE_LOOP ( 'NONE', ( #1054, #970, #1256, #978 ) ) ;
#148 = ORIENTED_EDGE ( 'NONE', *, *, #286, .F. ) ;
#149 = ADVANCED_FACE ( 'NONE', ( #418 ), #161, .F. ) ;
#150 = CARTESIAN_POINT ( 'NONE',  ( 18.00000000000000355, -18.00000000000000000, 20.00000000000001776 ) ) ;
#151 = DIRECTION ( 'NONE',  ( -0.000000000000000000, -0.000000000000000000, -1.000000000000000000 ) ) ;
#152 = LINE ( 'NONE', #46, #234 ) ;
#153 = LINE ( 'NONE', #620, #540 ) ;
#154 = DIRECTION ( 'NONE',  ( 1.000000000000000000, 0.000000000000000000, 0.000000000000000000 ) ) ;
#155 = VECTOR ( 'NONE', #1221, 1000.000000000000000 ) ;
#156 = CARTESIAN_POINT ( 'NONE',  ( 432.0000000000000000, -18.00000000000000000, 580.0000000000000000 ) ) ;
#157 = CARTESIAN_POINT ( 'NONE',  ( 0.000000000000000000, 0.000000000000000000, 0.000000000000000000 ) ) ;
#158 = ORIENTED_EDGE ( 'NONE', *, *, #534, .F. ) ;
#159 = ORIENTED_EDGE ( 'NONE', *, *, #923, .T. ) ;
#160 = PLANE ( 'NONE',  #1227 ) ;
#161 = PLANE ( 'NONE',  #366 ) ;
#162 = EDGE_CURVE ( 'NONE', #968, #143, #142, .T. ) ;
#163 = DIRECTION ( 'NONE',  ( 0.000000000000000000, 0.000000000000000000, -1.000000000000000000 ) ) ;
#164 = CARTESIAN_POINT ( 'NONE',  ( 18.00000000000000355, -2290.000000000000000, 994.3911195959683482 ) ) ;
#165 = ORGANIZATION ( '未指定', '未指定', '' ) ;
#166 = FACE_BOUND ( 'NONE', #495, .T. ) ;
#167 = VECTOR ( 'NONE', #615, 1000.000000000000000 ) ;
#168 = LINE ( 'NONE', #436, #1014 ) ;
#169 = LINE ( 'NONE', #682, #630 ) ;
#170 = ORIENTED_EDGE ( 'NONE', *, *, #1275, .T. ) ;
#171 = AXIS2_PLACEMENT_3D ( 'NONE', #946, #1164, #189 ) ;
#172 = ORIENTED_EDGE ( 'NONE', *, *, #102, .T. ) ;
#173 = ORIENTED_EDGE ( 'NONE', *, *, #1190, .F. ) ;
#174 = VERTEX_POINT ( 'NONE', #1120 ) ;
#175 = DIRECTION ( 'NONE',  ( -0.000000000000000000, -0.000000000000000000, -1.000000000000000000 ) ) ;
#176 = DIRECTION ( 'NONE',  ( 1.000000000000000000, 1.229449654538445474E-16, -0.000000000000000000 ) ) ;
#177 = APPROVAL_DATE_TIME ( #692, #347 ) ;
#178 = EDGE_CURVE ( 'NONE', #1255, #478, #665, .T. ) ;
#179 = VECTOR ( 'NONE', #798, 1000.000000000000000 ) ;
#180 = DIRECTION ( 'NONE',  ( -1.000000000000000000, 1.219959905918509233E-16, 0.000000000000000000 ) ) ;
#181 = DIRECTION ( 'NONE',  ( 1.000000000000000000, 0.000000000000000000, 0.000000000000000000 ) ) ;
#182 = LINE ( 'NONE', #438, #192 ) ;
#183 = VECTOR ( 'NONE', #656, 1000.000000000000000 ) ;
#184 = ORIENTED_EDGE ( 'NONE', *, *, #956, .F. ) ;
#185 = EDGE_LOOP ( 'NONE', ( #388, #253, #201, #1111 ) ) ;
#186 = ORIENTED_EDGE ( 'NONE', *, *, #460, .T. ) ;
#187 = DIRECTION ( 'NONE',  ( -0.000000000000000000, -0.000000000000000000, -1.000000000000000000 ) ) ;
#188 = DIRECTION ( 'NONE',  ( -1.000000000000000000, 0.000000000000000000, 0.000000000000000000 ) ) ;
#189 = DIRECTION ( 'NONE',  ( 0.000000000000000000, -0.000000000000000000, -1.000000000000000000 ) ) ;
#190 = CARTESIAN_POINT ( 'NONE',  ( 432.0000000000000000, -368.0000000000002274, 994.3911195959683482 ) ) ;
#191 = LINE ( 'NONE', #1139, #50 ) ;
#192 = VECTOR ( 'NONE', #868, 1000.000000000000000 ) ;
#193 = AXIS2_PLACEMENT_3D ( 'NONE', #138, #119, #216 ) ;
#194 = EDGE_CURVE ( 'NONE', #1086, #1001, #592, .T. ) ;
#195 = CARTESIAN_POINT ( 'NONE',  ( 432.0000000000001137, -748.0000000000002274, 20.00000000000001776 ) ) ;
#196 = VECTOR ( 'NONE', #944, 1000.000000000000000 ) ;
#197 = DIRECTION ( 'NONE',  ( 1.229449654538445474E-16, -1.000000000000000000, 0.000000000000000000 ) ) ;
#198 = VECTOR ( 'NONE', #36, 1000.000000000000000 ) ;
#199 = ADVANCED_FACE ( 'NONE', ( #1030 ), #1024, .T. ) ;
#200 = CARTESIAN_POINT ( 'NONE',  ( 432.0000000000000000, -748.0000000000002274, 580.0000000000000000 ) ) ;
#201 = ORIENTED_EDGE ( 'NONE', *, *, #286, .T. ) ;
#202 = PLANE ( 'NONE',  #670 ) ;
#203 = VERTEX_POINT ( 'NONE', #815 ) ;
#204 = CARTESIAN_POINT ( 'NONE',  ( 432.0000000000002842, -2272.000000000000455, 20.00000000000001776 ) ) ;
#205 = ORIENTED_EDGE ( 'NONE', *, *, #858, .F. ) ;
#206 = EDGE_CURVE ( 'NONE', #89, #1050, #1152, .T. ) ;
#207 = ORIENTED_EDGE ( 'NONE', *, *, #1033, .F. ) ;
#208 = CARTESIAN_POINT ( 'NONE',  ( 18.00000000000000355, -18.00000000000000000, 580.0000000000000000 ) ) ;
#209 = DATE_AND_TIME ( #909, #1276 ) ;
#210 = CARTESIAN_POINT ( 'NONE',  ( 432.0000000000000000, -1510.000000000000227, 580.0000000000000000 ) ) ;
#211 = VECTOR ( 'NONE', #1220, 1000.000000000000000 ) ;
#212 = VECTOR ( 'NONE', #1004, 1000.000000000000000 ) ;
#213 = AXIS2_PLACEMENT_3D ( 'NONE', #112, #424, #1045 ) ;
#214 = FACE_OUTER_BOUND ( 'NONE', #450, .T. ) ;
#215 = PLANE ( 'NONE',  #1288 ) ;
#216 = DIRECTION ( 'NONE',  ( -1.229449654538445474E-16, 1.000000000000000000, 0.000000000000000000 ) ) ;
#217 = EDGE_LOOP ( 'NONE', ( #435, #59, #1356, #1223 ) ) ;
#218 = VERTEX_POINT ( 'NONE', #705 ) ;
#219 = SECURITY_CLASSIFICATION_LEVEL ( 'unclassified' ) ;
#220 = ORIENTED_EDGE ( 'NONE', *, *, #849, .F. ) ;
#221 = DIRECTION ( 'NONE',  ( -1.229449654538445474E-16, 1.000000000000000000, 0.000000000000000000 ) ) ;
#222 = ORIENTED_EDGE ( 'NONE', *, *, #895, .F. ) ;
#223 = VERTEX_POINT ( 'NONE', #397 ) ;
#224 = AXIS2_PLACEMENT_3D ( 'NONE', #949, #1174, #1052 ) ;
#225 = EDGE_LOOP ( 'NONE', ( #998, #1345, #354, #184 ) ) ;
#226 = CARTESIAN_POINT ( 'NONE',  ( 18.00000000000000355, -18.00000000000000000, 20.00000000000001776 ) ) ;
#227 = PRODUCT_DEFINITION_SHAPE ( 'NONE', 'NONE',  #695 ) ;
#228 = DIRECTION ( 'NONE',  ( 1.000000000000000000, -0.000000000000000000, -0.000000000000000000 ) ) ;
#229 = VECTOR ( 'NONE', #1041, 1000.000000000000000 ) ;
#230 = DIRECTION ( 'NONE',  ( 0.000000000000000000, -0.000000000000000000, 1.000000000000000000 ) ) ;
#231 = VECTOR ( 'NONE', #106, 1000.000000000000000 ) ;
#232 = DIRECTION ( 'NONE',  ( -0.000000000000000000, -0.000000000000000000, -1.000000000000000000 ) ) ;
#233 = EDGE_CURVE ( 'NONE', #1239, #672, #35, .T. ) ;
#234 = VECTOR ( 'NONE', #1095, 1000.000000000000000 ) ;
#235 = ADVANCED_FACE ( 'NONE', ( #900 ), #284, .T. ) ;
#236 = ORIENTED_EDGE ( 'NONE', *, *, #249, .F. ) ;
#237 = CARTESIAN_POINT ( 'NONE',  ( 432.0000000000000000, -18.00000000000000000, 20.00000000000001776 ) ) ;
#238 = ORIENTED_EDGE ( 'NONE', *, *, #393, .T. ) ;
#239 = CARTESIAN_POINT ( 'NONE',  ( 432.0000000000000000, -2350.000000000000000, 2.000000000000000000 ) ) ;
#240 = ORIENTED_EDGE ( 'NONE', *, *, #1344, .T. ) ;
#241 = ORIENTED_EDGE ( 'NONE', *, *, #58, .T. ) ;
#242 = VERTEX_POINT ( 'NONE', #826 ) ;
#243 = ORIENTED_EDGE ( 'NONE', *, *, #591, .F. ) ;
#244 = ADVANCED_FACE ( 'NONE', ( #72 ), #87, .F. ) ;
#245 = CARTESIAN_POINT ( 'NONE',  ( 432.0000000000000000, -18.00000000000000000, 580.0000000000000000 ) ) ;
#246 = LINE ( 'NONE', #631, #1300 ) ;
#247 = LINE ( 'NONE', #1058, #100 ) ;
#248 = ADVANCED_FACE ( 'NONE', ( #1250 ), #914, .T. ) ;
#249 = EDGE_CURVE ( 'NONE', #996, #871, #363, .T. ) ;
#250 = FACE_OUTER_BOUND ( 'NONE', #273, .T. ) ;
#251 = CARTESIAN_POINT ( 'NONE',  ( 18.00000000000029488, -766.0000000000002274, 580.0000000000000000 ) ) ;
#252 = EDGE_CURVE ( 'NONE', #1358, #310, #1353, .T. ) ;
#253 = ORIENTED_EDGE ( 'NONE', *, *, #629, .T. ) ;
#254 = DIRECTION ( 'NONE',  ( -1.000000000000000000, -1.199463077598483474E-16, 0.000000000000000000 ) ) ;
#255 = EDGE_LOOP ( 'NONE', ( #127, #303, #874, #1141 ) ) ;
#256 = ORIENTED_EDGE ( 'NONE', *, *, #323, .F. ) ;
#257 = ADVANCED_FACE ( 'NONE', ( #52 ), #1143, .F. ) ;
#258 = VERTEX_POINT ( 'NONE', #823 ) ;
#259 = ORIENTED_EDGE ( 'NONE', *, *, #876, .T. ) ;
#260 = ORIENTED_EDGE ( 'NONE', *, *, #1016, .T. ) ;
#261 = DIRECTION ( 'NONE',  ( 0.000000000000000000, 1.000000000000000000, 0.000000000000000000 ) ) ;
#262 = DIRECTION ( 'NONE',  ( 1.199463077598483474E-16, -1.000000000000000000, 0.000000000000000000 ) ) ;
#263 = CARTESIAN_POINT ( 'NONE',  ( 18.00000000000000355, -2272.000000000000455, 994.3911195959683482 ) ) ;
#264 = VECTOR ( 'NONE', #830, 1000.000000000000000 ) ;
#265 = DIRECTION ( 'NONE',  ( 0.000000000000000000, 0.000000000000000000, 1.000000000000000000 ) ) ;
#266 = CARTESIAN_POINT ( 'NONE',  ( 432.0000000000001137, -766.0000000000002274, 20.00000000000001776 ) ) ;
#267 = FACE_OUTER_BOUND ( 'NONE', #905, .T. ) ;
#268 = CARTESIAN_POINT ( 'NONE',  ( 18.00000000000000355, -2290.000000000000000, 20.00000000000000000 ) ) ;
#269 = ORIENTED_EDGE ( 'NONE', *, *, #1016, .F. ) ;
#270 = DIRECTION ( 'NONE',  ( 0.000000000000000000, -0.000000000000000000, -1.000000000000000000 ) ) ;
#271 = AXIS2_PLACEMENT_3D ( 'NONE', #508, #1048, #419 ) ;
#272 = EDGE_CURVE ( 'NONE', #636, #767, #1136, .T. ) ;
#273 = EDGE_LOOP ( 'NONE', ( #1171, #1127, #372, #513 ) ) ;
#274 = ORIENTED_EDGE ( 'NONE', *, *, #29, .T. ) ;
#275 = ORIENTED_EDGE ( 'NONE', *, *, #277, .T. ) ;
#276 = ORIENTED_EDGE ( 'NONE', *, *, #1251, .F. ) ;
#277 = EDGE_CURVE ( 'NONE', #466, #852, #1084, .T. ) ;
#278 = DIRECTION ( 'NONE',  ( 0.000000000000000000, 0.000000000000000000, -1.000000000000000000 ) ) ;
#279 = CARTESIAN_POINT ( 'NONE',  ( 18.00000000000000355, -18.00000000000000000, 580.0000000000000000 ) ) ;
#280 = FACE_OUTER_BOUND ( 'NONE', #147, .T. ) ;
#281 = PLANE ( 'NONE',  #565 ) ;
#282 = DIRECTION ( 'NONE',  ( 2.681698127113906735E-16, -1.000000000000000000, 0.000000000000000000 ) ) ;
#283 = LINE ( 'NONE', #907, #3 ) ;
#284 = PLANE ( 'NONE',  #546 ) ;
#285 = LINE ( 'NONE', #442, #491 ) ;
#286 = EDGE_CURVE ( 'NONE', #721, #767, #647, .T. ) ;
#287 = ORIENTED_EDGE ( 'NONE', *, *, #1248, .F. ) ;
#288 = DIRECTION ( 'NONE',  ( -1.000000000000000000, -0.000000000000000000, -0.000000000000000000 ) ) ;
#289 = ORIENTED_EDGE ( 'NONE', *, *, #618, .T. ) ;
#290 = DIRECTION ( 'NONE',  ( 1.000000000000000000, -0.000000000000000000, -0.000000000000000000 ) ) ;
#291 = AXIS2_PLACEMENT_3D ( 'NONE', #1023, #690, #55 ) ;
#292 = ORIENTED_EDGE ( 'NONE', *, *, #66, .F. ) ;
#293 = VERTEX_POINT ( 'NONE', #1277 ) ;
#294 = VERTEX_POINT ( 'NONE', #1046 ) ;
#295 = DIRECTION ( 'NONE',  ( 1.000000000000000000, 1.224646799147353454E-16, -0.000000000000000000 ) ) ;
#296 = VECTOR ( 'NONE', #73, 1000.000000000000000 ) ;
#297 = CARTESIAN_POINT ( 'NONE',  ( 0.000000000000000000, 0.000000000000000000, 20.00000000000000000 ) ) ;
#298 = CARTESIAN_POINT ( 'NONE',  ( 432.0000000000000000, -18.00000000000000000, 20.00000000000001776 ) ) ;
#299 = VECTOR ( 'NONE', #146, 1000.000000000000000 ) ;
#300 = VECTOR ( 'NONE', #725, 1000.000000000000000 ) ;
#301 = CARTESIAN_POINT ( 'NONE',  ( 432.0000000000001137, -1147.000000000000227, 580.0000000000000000 ) ) ;
#302 = VERTEX_POINT ( 'NONE', #210 ) ;
#303 = ORIENTED_EDGE ( 'NONE', *, *, #476, .F. ) ;
#304 = EDGE_CURVE ( 'NONE', #866, #672, #959, .T. ) ;
#305 = DIRECTION ( 'NONE',  ( -1.000000000000000000, 0.000000000000000000, 0.000000000000000000 ) ) ;
#306 = DIRECTION ( 'NONE',  ( 1.199463077598483474E-16, -1.000000000000000000, 0.000000000000000000 ) ) ;
#307 = ORIENTED_EDGE ( 'NONE', *, *, #92, .T. ) ;
#308 = ORIENTED_EDGE ( 'NONE', *, *, #1181, .T. ) ;
#309 = ORIENTED_EDGE ( 'NONE', *, *, #937, .T. ) ;
#310 = VERTEX_POINT ( 'NONE', #514 ) ;
#311 = VERTEX_POINT ( 'NONE', #1169 ) ;
#312 = MECHANICAL_CONTEXT ( 'NONE', #751, 'mechanical' ) ;
#313 = APPROVAL_PERSON_ORGANIZATION ( #47, #39, #324 ) ;
#314 = VECTOR ( 'NONE', #594, 1000.000000000000000 ) ;
#315 = CARTESIAN_POINT ( 'NONE',  ( 432.0000000000000000, -766.0000000000002274, 994.3911195959683482 ) ) ;
#316 = CARTESIAN_POINT ( 'NONE',  ( 18.00000000000028777, -1909.000000000000227, 20.00000000000000000 ) ) ;
#317 = FACE_OUTER_BOUND ( 'NONE', #1207, .T. ) ;
#318 = ORIENTED_EDGE ( 'NONE', *, *, #1112, .T. ) ;
#319 = VERTEX_POINT ( 'NONE', #832 ) ;
#320 = CARTESIAN_POINT ( 'NONE',  ( 2.877919977996280525E-13, -2350.000000000000000, 20.00000000000001776 ) ) ;
#321 = EDGE_LOOP ( 'NONE', ( #41, #1022, #1212, #292 ) ) ;
#322 = AXIS2_PLACEMENT_3D ( 'NONE', #544, #856, #431 ) ;
#323 = EDGE_CURVE ( 'NONE', #541, #258, #1170, .T. ) ;
#324 = APPROVAL_ROLE ( '' ) ;
#325 = DIRECTION ( 'NONE',  ( 1.199463077598483474E-16, -1.000000000000000000, 0.000000000000000000 ) ) ;
#326 = ORIENTED_EDGE ( 'NONE', *, *, #992, .T. ) ;
#327 = DIRECTION ( 'NONE',  ( -1.000000000000000000, 0.000000000000000000, 0.000000000000000000 ) ) ;
#328 = APPROVAL_DATE_TIME ( #137, #39 ) ;
#329 = PERSON_AND_ORGANIZATION_ROLE ( 'design_supplier' ) ;
#330 = LINE ( 'NONE', #369, #296 ) ;
#331 = CARTESIAN_POINT ( 'NONE',  ( 432.0000000000000000, -18.00000000000000000, 580.0000000000000000 ) ) ;
#332 = EDGE_CURVE ( 'NONE', #872, #115, #606, .T. ) ;
#333 = VECTOR ( 'NONE', #79, 1000.000000000000000 ) ;
#334 = EDGE_LOOP ( 'NONE', ( #963, #63, #835, #1229 ) ) ;
#335 = ORIENTED_EDGE ( 'NONE', *, *, #750, .T. ) ;
#336 = ORIENTED_EDGE ( 'NONE', *, *, #895, .T. ) ;
#337 = CARTESIAN_POINT ( 'NONE',  ( 18.00000000000029132, -748.0000000000002274, 994.3911195959683482 ) ) ;
#338 = EDGE_LOOP ( 'NONE', ( #1094, #558, #1153, #173 ) ) ;
#339 = ORIENTED_EDGE ( 'NONE', *, *, #659, .T. ) ;
#340 = EDGE_LOOP ( 'NONE', ( #131, #717, #634, #684 ) ) ;
#341 = ORIENTED_EDGE ( 'NONE', *, *, #885, .T. ) ;
#342 = ORIENTED_EDGE ( 'NONE', *, *, #969, .T. ) ;
#343 = PLANE ( 'NONE',  #574 ) ;
#344 = DIRECTION ( 'NONE',  ( -0.000000000000000000, -0.000000000000000000, -1.000000000000000000 ) ) ;
#345 = ADVANCED_FACE ( 'NONE', ( #5 ), #838, .F. ) ;
#346 = LINE ( 'NONE', #1160, #231 ) ;
#347 = APPROVAL ( #103, '未指定' ) ;
#348 = EDGE_CURVE ( 'NONE', #511, #111, #817, .T. ) ;
#349 = VECTOR ( 'NONE', #306, 1000.000000000000000 ) ;
#350 = ORIENTED_EDGE ( 'NONE', *, *, #440, .F. ) ;
#351 = DIRECTION ( 'NONE',  ( 1.224646799147353454E-16, -1.000000000000000000, 0.000000000000000000 ) ) ;
#352 = ADVANCED_FACE ( 'NONE', ( #681 ), #202, .T. ) ;
#353 = VERTEX_POINT ( 'NONE', #506 ) ;
#354 = ORIENTED_EDGE ( 'NONE', *, *, #1112, .F. ) ;
#355 = EDGE_CURVE ( 'NONE', #293, #466, #153, .T. ) ;
#356 = ADVANCED_FACE ( 'NONE', ( #1065 ), #516, .F. ) ;
#357 = DIRECTION ( 'NONE',  ( -1.000000000000000000, 0.000000000000000000, -0.000000000000000000 ) ) ;
#358 = DIRECTION ( 'NONE',  ( 1.000000000000000000, -0.000000000000000000, 0.000000000000000000 ) ) ;
#359 = LINE ( 'NONE', #920, #1319 ) ;
#360 = EDGE_CURVE ( 'NONE', #1312, #1155, #557, .T. ) ;
#361 = CARTESIAN_POINT ( 'NONE',  ( 18.00000000000029488, -1528.000000000000227, 20.00000000000000000 ) ) ;
#362 = CARTESIAN_POINT ( 'NONE',  ( 18.00000000000023093, -1891.000000000000227, 580.0000000000000000 ) ) ;
#363 = LINE ( 'NONE', #718, #1186 ) ;
#364 = PLANE ( 'NONE',  #1267 ) ;
#365 = CC_DESIGN_PERSON_AND_ORGANIZATION_ASSIGNMENT ( #675, #1062, ( #695 ) ) ;
#366 = AXIS2_PLACEMENT_3D ( 'NONE', #164, #1333, #1147 ) ;
#367 = VECTOR ( 'NONE', #151, 1000.000000000000000 ) ;
#368 = ORIENTED_EDGE ( 'NONE', *, *, #40, .F. ) ;
#369 = CARTESIAN_POINT ( 'NONE',  ( 432.0000000000000000, -18.00000000000000000, 580.0000000000000000 ) ) ;
#370 = ORIENTED_EDGE ( 'NONE', *, *, #783, .F. ) ;
#371 = CARTESIAN_POINT ( 'NONE',  ( 18.00000000000018474, -1510.000000000000227, 20.00000000000001776 ) ) ;
#372 = ORIENTED_EDGE ( 'NONE', *, *, #399, .T. ) ;
#373 = CARTESIAN_POINT ( 'NONE',  ( 18.00000000000028777, -1909.000000000000227, 580.0000000000000000 ) ) ;
#374 = EDGE_CURVE ( 'NONE', #791, #965, #884, .T. ) ;
#375 = DIRECTION ( 'NONE',  ( 1.000000000000000000, 0.000000000000000000, 0.000000000000000000 ) ) ;
#376 = CARTESIAN_POINT ( 'NONE',  ( 432.0000000000001137, -766.0000000000002274, 580.0000000000000000 ) ) ;
#377 = CARTESIAN_POINT ( 'NONE',  ( 432.0000000000000568, -386.0000000000002274, 20.00000000000001776 ) ) ;
#378 = VECTOR ( 'NONE', #1085, 1000.000000000000000 ) ;
#379 = DIRECTION ( 'NONE',  ( -1.000000000000000000, 0.000000000000000000, -0.000000000000000000 ) ) ;
#380 = VECTOR ( 'NONE', #91, 1000.000000000000000 ) ;
#381 = VECTOR ( 'NONE', #265, 1000.000000000000000 ) ;
#382 = DIRECTION ( 'NONE',  ( 1.000000000000000000, 0.000000000000000000, -0.000000000000000000 ) ) ;
#383 = VECTOR ( 'NONE', #810, 1000.000000000000000 ) ;
#384 = VECTOR ( 'NONE', #572, 1000.000000000000000 ) ;
#385 = CARTESIAN_POINT ( 'NONE',  ( 0.000000000000000000, 0.000000000000000000, 0.000000000000000000 ) ) ;
#386 = DIRECTION ( 'NONE',  ( 1.199463077598483474E-16, -1.000000000000000000, 0.000000000000000000 ) ) ;
#387 = ORIENTED_EDGE ( 'NONE', *, *, #582, .T. ) ;
#388 = ORIENTED_EDGE ( 'NONE', *, *, #728, .F. ) ;
#389 = CARTESIAN_POINT ( 'NONE',  ( 18.00000000000029488, -1510.000000000000227, 994.3911195959683482 ) ) ;
#390 = ORIENTED_EDGE ( 'NONE', *, *, #937, .F. ) ;
#391 = CARTESIAN_POINT ( 'NONE',  ( 432.0000000000000000, -18.00000000000000000, 580.0000000000000000 ) ) ;
#392 = ORIENTED_EDGE ( 'NONE', *, *, #1138, .T. ) ;
#393 = EDGE_CURVE ( 'NONE', #353, #434, #915, .T. ) ;
#394 = APPROVAL_PERSON_ORGANIZATION ( #1196, #1336, #527 ) ;
#395 = VECTOR ( 'NONE', #729, 1000.000000000000000 ) ;
#396 = LINE ( 'NONE', #452, #489 ) ;
#397 = CARTESIAN_POINT ( 'NONE',  ( 18.00000000000029132, -2350.000000000000000, 20.00000000000001776 ) ) ;
#398 = VECTOR ( 'NONE', #188, 1000.000000000000000 ) ;
#399 = EDGE_CURVE ( 'NONE', #218, #699, #781, .T. ) ;
#400 = ORIENTED_EDGE ( 'NONE', *, *, #1337, .T. ) ;
#401 = CARTESIAN_POINT ( 'NONE',  ( 18.00000000000029132, -748.0000000000002274, 20.00000000000000000 ) ) ;
#402 = ORIENTED_EDGE ( 'NONE', *, *, #58, .F. ) ;
#403 = ORIENTED_EDGE ( 'NONE', *, *, #374, .F. ) ;
#404 = VERTEX_POINT ( 'NONE', #301 ) ;
#405 = DIRECTION ( 'NONE',  ( -1.181088324069315448E-16, 1.000000000000000000, -0.000000000000000000 ) ) ;
#406 = CLOSED_SHELL ( 'NONE', ( #928, #987, #149, #891, #961, #235, #427, #1055, #1299, #352, #619, #658, #248, #857, #1208, #1088, #11, #244, #777, #836, #678, #1103, #199, #1049, #1110, #257, #439, #1306, #673, #125, #1080, #345, #356, #760, #34, #722, #458, #19, #559, #1167, #42, #653, #416, #1215, #785 ) ) ;
#407 = DIRECTION ( 'NONE',  ( -0.000000000000000000, -0.000000000000000000, -1.000000000000000000 ) ) ;
#408 =( GEOMETRIC_REPRESENTATION_CONTEXT ( 3 ) GLOBAL_UNCERTAINTY_ASSIGNED_CONTEXT ( ( #934 ) ) GLOBAL_UNIT_ASSIGNED_CONTEXT ( ( #733, #97, #117 ) ) REPRESENTATION_CONTEXT ( 'NONE', 'WORKASPACE' ) );
#409 = AXIS2_PLACEMENT_3D ( 'NONE', #263, #792, #270 ) ;
#410 = PERSON_AND_ORGANIZATION ( #859, #165 ) ;
#411 = DIRECTION ( 'NONE',  ( 1.181088324069315448E-16, -1.000000000000000000, 0.000000000000000000 ) ) ;
#412 = DIRECTION ( 'NONE',  ( -1.224646799147353454E-16, 1.000000000000000000, 0.000000000000000000 ) ) ;
#413 = LINE ( 'NONE', #251, #1183 ) ;
#414 = CARTESIAN_POINT ( 'NONE',  ( 432.0000000000000000, -18.00000000000000000, -0.000000000000000000 ) ) ;
#415 = FACE_OUTER_BOUND ( 'NONE', #1270, .T. ) ;
#416 = ADVANCED_FACE ( 'NONE', ( #88 ), #1178, .F. ) ;
#417 = APPLICATION_CONTEXT ( 'configuration controlled 3d designs of mechanical parts and assemblies' ) ;
#418 = FACE_OUTER_BOUND ( 'NONE', #1070, .T. ) ;
#419 = DIRECTION ( 'NONE',  ( -1.000000000000000000, 0.000000000000000000, 0.000000000000000000 ) ) ;
#420 = ORIENTED_EDGE ( 'NONE', *, *, #421, .F. ) ;
#421 = EDGE_CURVE ( 'NONE', #145, #593, #799, .T. ) ;
#422 = VERTEX_POINT ( 'NONE', #118 ) ;
#423 = ORIENTED_EDGE ( 'NONE', *, *, #162, .T. ) ;
#424 = DIRECTION ( 'NONE',  ( 1.000000000000000000, 1.229449654538445474E-16, -0.000000000000000000 ) ) ;
#425 = DATE_AND_TIME ( #1130, #1009 ) ;
#426 = AXIS2_PLACEMENT_3D ( 'NONE', #917, #812, #693 ) ;
#427 = ADVANCED_FACE ( 'NONE', ( #432 ), #343, .T. ) ;
#428 = PERSON_AND_ORGANIZATION_ROLE ( 'classification_officer' ) ;
#429 = FACE_OUTER_BOUND ( 'NONE', #1238, .T. ) ;
#430 = CARTESIAN_POINT ( 'NONE',  ( 432.0000000000000000, -2350.000000000000000, 2.000000000000000000 ) ) ;
#431 = DIRECTION ( 'NONE',  ( -1.229449654538445474E-16, 1.000000000000000000, 0.000000000000000000 ) ) ;
#432 = FACE_OUTER_BOUND ( 'NONE', #758, .T. ) ;
#433 = DIRECTION ( 'NONE',  ( -1.199463077598483474E-16, 1.000000000000000000, -0.000000000000000000 ) ) ;
#434 = VERTEX_POINT ( 'NONE', #12 ) ;
#435 = ORIENTED_EDGE ( 'NONE', *, *, #509, .T. ) ;
#436 = CARTESIAN_POINT ( 'NONE',  ( 432.0000000000000000, -18.00000000000000000, 580.0000000000000000 ) ) ;
#437 = VERTEX_POINT ( 'NONE', #1289 ) ;
#438 = CARTESIAN_POINT ( 'NONE',  ( 18.00000000000028422, -2290.000000000000000, 562.0000000000000000 ) ) ;
#439 = ADVANCED_FACE ( 'NONE', ( #214, #664 ), #547, .F. ) ;
#440 = EDGE_CURVE ( 'NONE', #806, #294, #285, .T. ) ;
#441 = LINE ( 'NONE', #337, #1263 ) ;
#442 = CARTESIAN_POINT ( 'NONE',  ( 18.00000000000057554, -18.00000000000000000, 2.000000000000000000 ) ) ;
#443 = FACE_OUTER_BOUND ( 'NONE', #870, .T. ) ;
#444 = DIRECTION ( 'NONE',  ( -1.199463077598483474E-16, 1.000000000000000000, -0.000000000000000000 ) ) ;
#445 = VECTOR ( 'NONE', #358, 1000.000000000000000 ) ;
#446 = VERTEX_POINT ( 'NONE', #642 ) ;
#447 = PLANE ( 'NONE',  #1102 ) ;
#448 = ORIENTED_EDGE ( 'NONE', *, *, #1355, .F. ) ;
#449 = CARTESIAN_POINT ( 'NONE',  ( 18.00000000000009592, -766.0000000000002274, 20.00000000000001776 ) ) ;
#450 = EDGE_LOOP ( 'NONE', ( #1093, #238, #44, #930, #945, #400, #1284, #390 ) ) ;
#451 = ORIENTED_EDGE ( 'NONE', *, *, #490, .T. ) ;
#452 = CARTESIAN_POINT ( 'NONE',  ( 18.00000000000000355, -1147.000000000000227, 994.3911195959683482 ) ) ;
#453 = CARTESIAN_POINT ( 'NONE',  ( 450.0000000000000000, 0.000000000000000000, 0.000000000000000000 ) ) ;
#454 = APPROVAL_PERSON_ORGANIZATION ( #96, #347, #1163 ) ;
#455 = LINE ( 'NONE', #86, #896 ) ;
#456 = DIRECTION ( 'NONE',  ( 1.000000000000000000, 0.000000000000000000, 0.000000000000000000 ) ) ;
#457 = DIRECTION ( 'NONE',  ( -0.000000000000000000, 0.000000000000000000, 1.000000000000000000 ) ) ;
#458 = ADVANCED_FACE ( 'NONE', ( #627 ), #1068, .F. ) ;
#459 = AXIS2_PLACEMENT_3D ( 'NONE', #726, #512, #834 ) ;
#460 = EDGE_CURVE ( 'NONE', #302, #422, #461, .T. ) ;
#461 = LINE ( 'NONE', #537, #183 ) ;
#462 = VECTOR ( 'NONE', #1218, 1000.000000000000000 ) ;
#463 = DIRECTION ( 'NONE',  ( 1.000000000000000000, 0.000000000000000000, 0.000000000000000000 ) ) ;
#464 = ORIENTED_EDGE ( 'NONE', *, *, #476, .T. ) ;
#465 = CARTESIAN_POINT ( 'NONE',  ( 0.000000000000000000, 0.000000000000000000, 580.0000000000000000 ) ) ;
#466 = VERTEX_POINT ( 'NONE', #1195 ) ;
#467 = ORIENTED_EDGE ( 'NONE', *, *, #233, .T. ) ;
#468 = CARTESIAN_POINT ( 'NONE',  ( 18.00000000000000355, -2272.000000000000455, 20.00000000000000000 ) ) ;
#469 = PLANE ( 'NONE',  #787 ) ;
#470 = VECTOR ( 'NONE', #305, 1000.000000000000000 ) ;
#471 = VECTOR ( 'NONE', #327, 1000.000000000000000 ) ;
#472 = CARTESIAN_POINT ( 'NONE',  ( 18.00000000000023448, -1909.000000000000227, 20.00000000000001776 ) ) ;
#473 = VECTOR ( 'NONE', #344, 1000.000000000000000 ) ;
#474 = DIRECTION ( 'NONE',  ( -1.000000000000000000, 0.000000000000000000, -0.000000000000000000 ) ) ;
#475 = LINE ( 'NONE', #893, #1249 ) ;
#476 = EDGE_CURVE ( 'NONE', #1086, #980, #994, .T. ) ;
#477 = CARTESIAN_POINT ( 'NONE',  ( 432.0000000000002842, -2272.000000000000455, 994.3911195959683482 ) ) ;
#478 = VERTEX_POINT ( 'NONE', #854 ) ;
#479 = EDGE_LOOP ( 'NONE', ( #754, #616, #1269, #1047 ) ) ;
#480 = CARTESIAN_POINT ( 'NONE',  ( 18.00000000000029488, -386.0000000000002274, 580.0000000000000000 ) ) ;
#481 = ORIENTED_EDGE ( 'NONE', *, *, #460, .F. ) ;
#482 = ORIENTED_EDGE ( 'NONE', *, *, #728, .T. ) ;
#483 = DIRECTION ( 'NONE',  ( 0.000000000000000000, -1.000000000000000000, 0.000000000000000000 ) ) ;
#484 = EDGE_CURVE ( 'NONE', #60, #258, #863, .T. ) ;
#485 = PERSON_AND_ORGANIZATION ( #859, #165 ) ;
#486 = CARTESIAN_POINT ( 'NONE',  ( 18.00000000000004263, -368.0000000000002842, 580.0000000000000000 ) ) ;
#487 = DIRECTION ( 'NONE',  ( 0.000000000000000000, -1.000000000000000000, 0.000000000000000000 ) ) ;
#488 = VECTOR ( 'NONE', #953, 1000.000000000000000 ) ;
#489 = VECTOR ( 'NONE', #782, 1000.000000000000000 ) ;
#490 = EDGE_CURVE ( 'NONE', #174, #446, #590, .T. ) ;
#491 = VECTOR ( 'NONE', #1188, 1000.000000000000000 ) ;
#492 = DIRECTION ( 'NONE',  ( 0.000000000000000000, 0.000000000000000000, -1.000000000000000000 ) ) ;
#493 = CARTESIAN_POINT ( 'NONE',  ( 0.000000000000000000, 0.000000000000000000, 580.0000000000000000 ) ) ;
#494 = LINE ( 'NONE', #966, #1017 ) ;
#495 = EDGE_LOOP ( 'NONE', ( #736, #918, #599, #1317 ) ) ;
#496 = CARTESIAN_POINT ( 'NONE',  ( 432.0000000000000568, -1891.000000000000227, 580.0000000000000000 ) ) ;
#497 = CARTESIAN_POINT ( 'NONE',  ( 18.00000000000000355, -2272.000000000000455, 580.0000000000000000 ) ) ;
#498 = EDGE_LOOP ( 'NONE', ( #529, #287, #1236, #159 ) ) ;
#499 = ORIENTED_EDGE ( 'NONE', *, *, #1138, .F. ) ;
#500 = AXIS2_PLACEMENT_3D ( 'NONE', #755, #124, #221 ) ;
#501 = AXIS2_PLACEMENT_3D ( 'NONE', #23, #16, #646 ) ;
#502 = DIRECTION ( 'NONE',  ( -1.000000000000000000, -0.000000000000000000, -0.000000000000000000 ) ) ;
#503 = CARTESIAN_POINT ( 'NONE',  ( 18.00000000000029132, -368.0000000000003411, 994.3911195959683482 ) ) ;
#504 = LINE ( 'NONE', #1011, #827 ) ;
#505 = DIRECTION ( 'NONE',  ( -0.000000000000000000, -0.000000000000000000, -1.000000000000000000 ) ) ;
#506 = CARTESIAN_POINT ( 'NONE',  ( 432.0000000000000000, -2350.000000000000000, 2.000000000000001776 ) ) ;
#507 = VECTOR ( 'NONE', #778, 1000.000000000000000 ) ;
#508 = CARTESIAN_POINT ( 'NONE',  ( 0.000000000000000000, 0.000000000000000000, 2.000000000000000000 ) ) ;
#509 = EDGE_CURVE ( 'NONE', #1329, #655, #168, .T. ) ;
#510 = ORIENTED_EDGE ( 'NONE', *, *, #676, .F. ) ;
#511 = VERTEX_POINT ( 'NONE', #1304 ) ;
#512 = DIRECTION ( 'NONE',  ( -1.000000000000000000, -1.199463077598483474E-16, 0.000000000000000000 ) ) ;
#513 = ORIENTED_EDGE ( 'NONE', *, *, #776, .F. ) ;
#514 = CARTESIAN_POINT ( 'NONE',  ( 18.00000000000029132, -2350.000000000000000, -0.000000000000000000 ) ) ;
#515 = CARTESIAN_POINT ( 'NONE',  ( 432.0000000000000000, -18.00000000000000000, 580.0000000000000000 ) ) ;
#516 = PLANE ( 'NONE',  #794 ) ;
#517 = DIRECTION ( 'NONE',  ( 0.000000000000000000, -0.000000000000000000, -1.000000000000000000 ) ) ;
#518 = FACE_OUTER_BOUND ( 'NONE', #133, .T. ) ;
#519 = VECTOR ( 'NONE', #897, 1000.000000000000000 ) ;
#520 = DIRECTION ( 'NONE',  ( 1.199463077598483474E-16, -1.000000000000000000, 0.000000000000000000 ) ) ;
#521 = VECTOR ( 'NONE', #132, 1000.000000000000000 ) ;
#522 = CARTESIAN_POINT ( 'NONE',  ( 18.00000000000029488, -766.0000000000002274, 20.00000000000000000 ) ) ;
#523 = ORIENTED_EDGE ( 'NONE', *, *, #20, .F. ) ;
#524 = CC_DESIGN_SECURITY_CLASSIFICATION ( #1180, ( #1354 ) ) ;
#525 = EDGE_CURVE ( 'NONE', #434, #632, #991, .T. ) ;
#526 = ORIENTED_EDGE ( 'NONE', *, *, #828, .T. ) ;
#527 = APPROVAL_ROLE ( '' ) ;
#528 = DIRECTION ( 'NONE',  ( -1.229449654538445474E-16, 1.000000000000000000, 0.000000000000000000 ) ) ;
#529 = ORIENTED_EDGE ( 'NONE', *, *, #534, .T. ) ;
#530 = PLANE ( 'NONE',  #193 ) ;
#531 = DIRECTION ( 'NONE',  ( 1.000000000000000000, 0.000000000000000000, 0.000000000000000000 ) ) ;
#532 = CARTESIAN_POINT ( 'NONE',  ( 18.00000000000029132, -748.0000000000002274, 994.3911195959683482 ) ) ;
#533 = DIRECTION ( 'NONE',  ( -0.000000000000000000, -0.000000000000000000, -1.000000000000000000 ) ) ;
#534 = EDGE_CURVE ( 'NONE', #203, #218, #748, .T. ) ;
#535 = LINE ( 'NONE', #1231, #179 ) ;
#536 = VECTOR ( 'NONE', #1213, 1000.000000000000000 ) ;
#537 = CARTESIAN_POINT ( 'NONE',  ( 18.00000000000029488, -1510.000000000000227, 580.0000000000000000 ) ) ;
#538 = VECTOR ( 'NONE', #1064, 1000.000000000000000 ) ;
#539 = PLANE ( 'NONE',  #500 ) ;
#540 = VECTOR ( 'NONE', #730, 1000.000000000000000 ) ;
#541 = VERTEX_POINT ( 'NONE', #671 ) ;
#542 = CARTESIAN_POINT ( 'NONE',  ( 18.00000000000029488, -766.0000000000002274, 994.3911195959683482 ) ) ;
#543 = EDGE_LOOP ( 'NONE', ( #1073, #37, #842, #1107 ) ) ;
#544 = CARTESIAN_POINT ( 'NONE',  ( 18.00000000000000355, -18.00000000000000000, 580.0000000000000000 ) ) ;
#545 = ORIENTED_EDGE ( 'NONE', *, *, #85, .T. ) ;
#546 = AXIS2_PLACEMENT_3D ( 'NONE', #391, #1252, #1347 ) ;
#547 = PLANE ( 'NONE',  #1228 ) ;
#548 = EDGE_LOOP ( 'NONE', ( #1272, #342, #510, #943 ) ) ;
#549 = ORIENTED_EDGE ( 'NONE', *, *, #804, .T. ) ;
#550 = DIRECTION ( 'NONE',  ( 0.000000000000000000, -0.000000000000000000, 1.000000000000000000 ) ) ;
#551 = DIRECTION ( 'NONE',  ( 1.000000000000000000, -0.000000000000000000, 0.000000000000000000 ) ) ;
#552 = AXIS2_PLACEMENT_3D ( 'NONE', #385, #694, #1132 ) ;
#553 = EDGE_CURVE ( 'NONE', #700, #1291, #1101, .T. ) ;
#554 = VECTOR ( 'NONE', #1362, 1000.000000000000000 ) ;
#555 = VECTOR ( 'NONE', #154, 1000.000000000000000 ) ;
#556 = CARTESIAN_POINT ( 'NONE',  ( 450.0000000000002842, -2350.000000000000000, 580.0000000000000000 ) ) ;
#557 = LINE ( 'NONE', #741, #749 ) ;
#558 = ORIENTED_EDGE ( 'NONE', *, *, #591, .T. ) ;
#559 = ADVANCED_FACE ( 'NONE', ( #250 ), #997, .F. ) ;
#560 = CARTESIAN_POINT ( 'NONE',  ( 450.0000000000002842, -2350.000000000000000, 0.000000000000000000 ) ) ;
#561 = ORIENTED_EDGE ( 'NONE', *, *, #648, .F. ) ;
#562 = PLANE ( 'NONE',  #955 ) ;
#563 = PLANE ( 'NONE',  #739 ) ;
#564 = ORIENTED_EDGE ( 'NONE', *, *, #568, .F. ) ;
#565 = AXIS2_PLACEMENT_3D ( 'NONE', #847, #735, #517 ) ;
#566 = ORIENTED_EDGE ( 'NONE', *, *, #29, .F. ) ;
#567 = DIRECTION ( 'NONE',  ( 1.000000000000000000, -0.000000000000000000, 0.000000000000000000 ) ) ;
#568 = EDGE_CURVE ( 'NONE', #1241, #76, #712, .T. ) ;
#569 = VECTOR ( 'NONE', #505, 1000.000000000000000 ) ;
#570 = FACE_BOUND ( 'NONE', #80, .T. ) ;
#571 = PLANE ( 'NONE',  #848 ) ;
#572 = DIRECTION ( 'NONE',  ( 1.199463077598483474E-16, -1.000000000000000000, 0.000000000000000000 ) ) ;
#573 = AXIS2_PLACEMENT_3D ( 'NONE', #894, #457, #889 ) ;
#574 = AXIS2_PLACEMENT_3D ( 'NONE', #1076, #1281, #1083 ) ;
#575 = LINE ( 'NONE', #935, #196 ) ;
#576 = VECTOR ( 'NONE', #624, 1000.000000000000000 ) ;
#577 = ORIENTED_EDGE ( 'NONE', *, *, #737, .T. ) ;
#578 = EDGE_LOOP ( 'NONE', ( #326, #108, #368, #683 ) ) ;
#579 = ORIENTED_EDGE ( 'NONE', *, *, #1118, .F. ) ;
#580 = PLANE ( 'NONE',  #426 ) ;
#581 = ORIENTED_EDGE ( 'NONE', *, *, #1244, .T. ) ;
#582 = EDGE_CURVE ( 'NONE', #1159, #721, #152, .T. ) ;
#583 = ORIENTED_EDGE ( 'NONE', *, *, #659, .F. ) ;
#584 = DIRECTION ( 'NONE',  ( 0.000000000000000000, 1.000000000000000000, 0.000000000000000000 ) ) ;
#585 = EDGE_LOOP ( 'NONE', ( #1087, #451, #274, #549 ) ) ;
#586 = ORIENTED_EDGE ( 'NONE', *, *, #876, .F. ) ;
#587 = CARTESIAN_POINT ( 'NONE',  ( 432.0000000000000000, -18.00000000000000000, 20.00000000000001776 ) ) ;
#588 = LINE ( 'NONE', #873, #1150 ) ;
#589 = DIRECTION ( 'NONE',  ( -1.000000000000000000, -0.000000000000000000, -0.000000000000000000 ) ) ;
#590 = LINE ( 'NONE', #950, #1029 ) ;
#591 = EDGE_CURVE ( 'NONE', #22, #593, #396, .T. ) ;
#592 = LINE ( 'NONE', #603, #333 ) ;
#593 = VERTEX_POINT ( 'NONE', #1206 ) ;
#594 = DIRECTION ( 'NONE',  ( -1.000000000000000000, -2.681698127113906735E-16, -0.000000000000000000 ) ) ;
#595 = EDGE_LOOP ( 'NONE', ( #654, #577, #1020, #1019 ) ) ;
#596 = EDGE_CURVE ( 'NONE', #22, #404, #475, .T. ) ;
#597 = ORIENTED_EDGE ( 'NONE', *, *, #1295, .T. ) ;
#598 = PRODUCT_RELATED_PRODUCT_CATEGORY ( 'detail', '', ( #770 ) ) ;
#599 = ORIENTED_EDGE ( 'NONE', *, *, #1145, .F. ) ;
#600 = EDGE_CURVE ( 'NONE', #699, #1297, #645, .T. ) ;
#601 = LINE ( 'NONE', #612, #229 ) ;
#602 = CARTESIAN_POINT ( 'NONE',  ( 450.0000000000000000, 0.000000000000000000, 580.0000000000000000 ) ) ;
#603 = CARTESIAN_POINT ( 'NONE',  ( 18.00000000000000355, -18.00000000000000000, 580.0000000000000000 ) ) ;
#604 = FACE_OUTER_BOUND ( 'NONE', #479, .T. ) ;
#605 = EDGE_CURVE ( 'NONE', #478, #293, #1338, .T. ) ;
#606 = LINE ( 'NONE', #613, #300 ) ;
#607 = CARTESIAN_POINT ( 'NONE',  ( 18.00000000000000355, -1129.000000000000227, 20.00000000000000000 ) ) ;
#608 = ORIENTED_EDGE ( 'NONE', *, *, #822, .F. ) ;
#609 = DIRECTION ( 'NONE',  ( -0.000000000000000000, -0.000000000000000000, -1.000000000000000000 ) ) ;
#610 = ORIENTED_EDGE ( 'NONE', *, *, #1301, .F. ) ;
#611 = EDGE_LOOP ( 'NONE', ( #789, #756, #1254, #731 ) ) ;
#612 = CARTESIAN_POINT ( 'NONE',  ( 18.00000000000029488, -1510.000000000000227, 20.00000000000000000 ) ) ;
#613 = CARTESIAN_POINT ( 'NONE',  ( 18.00000000000000355, -18.00000000000000000, 580.0000000000000000 ) ) ;
#614 = ORIENTED_EDGE ( 'NONE', *, *, #600, .F. ) ;
#615 = DIRECTION ( 'NONE',  ( -1.000000000000000000, -0.000000000000000000, -0.000000000000000000 ) ) ;
#616 = ORIENTED_EDGE ( 'NONE', *, *, #178, .T. ) ;
#617 = EDGE_LOOP ( 'NONE', ( #78, #808, #236, #583, #824, #855, #702, #523 ) ) ;
#618 = EDGE_CURVE ( 'NONE', #980, #1108, #766, .T. ) ;
#619 = ADVANCED_FACE ( 'NONE', ( #317 ), #447, .T. ) ;
#620 = CARTESIAN_POINT ( 'NONE',  ( 18.00000000000000355, -18.00000000000000000, 20.00000000000001776 ) ) ;
#621 = DIRECTION ( 'NONE',  ( -1.000000000000000000, -1.199463077598483474E-16, 0.000000000000000000 ) ) ;
#622 = VECTOR ( 'NONE', #351, 1000.000000000000000 ) ;
#623 = LINE ( 'NONE', #626, #1082 ) ;
#624 = DIRECTION ( 'NONE',  ( -0.000000000000000000, -0.000000000000000000, -1.000000000000000000 ) ) ;
#625 = VECTOR ( 'NONE', #1326, 1000.000000000000000 ) ;
#626 = CARTESIAN_POINT ( 'NONE',  ( 432.0000000000000000, -18.00000000000000000, 2.000000000000000000 ) ) ;
#627 = FACE_OUTER_BOUND ( 'NONE', #595, .T. ) ;
#628 = AXIS2_PLACEMENT_3D ( 'NONE', #1154, #1341, #411 ) ;
#629 = EDGE_CURVE ( 'NONE', #866, #721, #679, .T. ) ;
#630 = VECTOR ( 'NONE', #1000, 1000.000000000000000 ) ;
#631 = CARTESIAN_POINT ( 'NONE',  ( 432.0000000000000000, -18.00000000000000000, -0.000000000000000000 ) ) ;
#632 = VERTEX_POINT ( 'NONE', #560 ) ;
#633 = CARTESIAN_POINT ( 'NONE',  ( 18.00000000000000355, -18.00000000000000000, 580.0000000000000000 ) ) ;
#634 = ORIENTED_EDGE ( 'NONE', *, *, #360, .F. ) ;
#635 = DIRECTION ( 'NONE',  ( 1.000000000000000000, 0.000000000000000000, 0.000000000000000000 ) ) ;
#636 = VERTEX_POINT ( 'NONE', #1104 ) ;
#637 = VERTEX_POINT ( 'NONE', #674 ) ;
#638 = ORIENTED_EDGE ( 'NONE', *, *, #783, .T. ) ;
#639 = DIRECTION ( 'NONE',  ( 1.229449654538445474E-16, -1.000000000000000000, 0.000000000000000000 ) ) ;
#640 = ORIENTED_EDGE ( 'NONE', *, *, #1251, .T. ) ;
#641 = CARTESIAN_POINT ( 'NONE',  ( 432.0000000000000000, -18.00000000000000000, 2.000000000000000000 ) ) ;
#642 = CARTESIAN_POINT ( 'NONE',  ( 432.0000000000002842, -2350.000000000000000, 562.0000000000000000 ) ) ;
#643 = CARTESIAN_POINT ( 'NONE',  ( 432.0000000000001705, -1510.000000000000227, 20.00000000000001776 ) ) ;
#644 = FACE_OUTER_BOUND ( 'NONE', #1105, .T. ) ;
#645 = LINE ( 'NONE', #984, #198 ) ;
#646 = DIRECTION ( 'NONE',  ( 0.000000000000000000, 0.000000000000000000, 1.000000000000000000 ) ) ;
#647 = LINE ( 'NONE', #316, #104 ) ;
#648 = EDGE_CURVE ( 'NONE', #1291, #319, #1265, .T. ) ;
#649 = FACE_OUTER_BOUND ( 'NONE', #24, .T. ) ;
#650 = AXIS2_PLACEMENT_3D ( 'NONE', #879, #1298, #33 ) ;
#651 = EDGE_CURVE ( 'NONE', #1086, #1155, #1201, .T. ) ;
#652 = EDGE_LOOP ( 'NONE', ( #1327, #482, #586, #467 ) ) ;
#653 = ADVANCED_FACE ( 'NONE', ( #1325 ), #32, .F. ) ;
#654 = ORIENTED_EDGE ( 'NONE', *, *, #1060, .F. ) ;
#655 = VERTEX_POINT ( 'NONE', #1200 ) ;
#656 = DIRECTION ( 'NONE',  ( -1.000000000000000000, 0.000000000000000000, 0.000000000000000000 ) ) ;
#657 = CARTESIAN_POINT ( 'NONE',  ( 18.00000000000004619, -386.0000000000002274, 580.0000000000000000 ) ) ;
#658 = ADVANCED_FACE ( 'NONE', ( #443 ), #469, .F. ) ;
#659 = EDGE_CURVE ( 'NONE', #310, #996, #1063, .T. ) ;
#660 = CARTESIAN_POINT ( 'NONE',  ( 18.00000000000029488, -1528.000000000000227, 994.3911195959683482 ) ) ;
#661 = VECTOR ( 'NONE', #809, 1000.000000000000000 ) ;
#662 = CARTESIAN_POINT ( 'NONE',  ( 0.000000000000000000, 0.000000000000000000, 0.000000000000000000 ) ) ;
#663 = LINE ( 'NONE', #1320, #381 ) ;
#664 = FACE_BOUND ( 'NONE', #585, .T. ) ;
#665 = LINE ( 'NONE', #503, #1266 ) ;
#666 = CARTESIAN_POINT ( 'NONE',  ( 432.0000000000000000, -18.00000000000000000, 580.0000000000000000 ) ) ;
#667 = ORIENTED_EDGE ( 'NONE', *, *, #1161, .F. ) ;
#668 = DIRECTION ( 'NONE',  ( 0.000000000000000000, -0.000000000000000000, 1.000000000000000000 ) ) ;
#669 = ORIENTED_EDGE ( 'NONE', *, *, #849, .T. ) ;
#670 = AXIS2_PLACEMENT_3D ( 'NONE', #1156, #1259, #2 ) ;
#671 = CARTESIAN_POINT ( 'NONE',  ( 432.0000000000000000, -1129.000000000000227, 580.0000000000000000 ) ) ;
#672 = VERTEX_POINT ( 'NONE', #1015 ) ;
#673 = ADVANCED_FACE ( 'NONE', ( #415 ), #1122, .F. ) ;
#674 = CARTESIAN_POINT ( 'NONE',  ( 18.00000000000028422, -2290.000000000000000, 562.0000000000000000 ) ) ;
#675 = PERSON_AND_ORGANIZATION ( #859, #165 ) ;
#676 = EDGE_CURVE ( 'NONE', #223, #174, #663, .T. ) ;
#677 = VECTOR ( 'NONE', #14, 1000.000000000000000 ) ;
#678 = ADVANCED_FACE ( 'NONE', ( #913 ), #701, .F. ) ;
#679 = LINE ( 'NONE', #1309, #507 ) ;
#680 = CARTESIAN_POINT ( 'NONE',  ( 18.00000000000028777, -1909.000000000000227, 994.3911195959683482 ) ) ;
#681 = FACE_OUTER_BOUND ( 'NONE', #1283, .T. ) ;
#682 = CARTESIAN_POINT ( 'NONE',  ( 432.0000000000000000, -748.0000000000002274, 994.3911195959683482 ) ) ;
#683 = ORIENTED_EDGE ( 'NONE', *, *, #568, .T. ) ;
#684 = ORIENTED_EDGE ( 'NONE', *, *, #951, .T. ) ;
#685 = EDGE_CURVE ( 'NONE', #302, #404, #140, .T. ) ;
#686 = CARTESIAN_POINT ( 'NONE',  ( 18.00000000000029132, -368.0000000000003411, 994.3911195959683482 ) ) ;
#687 = ORIENTED_EDGE ( 'NONE', *, *, #1275, .F. ) ;
#688 = PLANE ( 'NONE',  #409 ) ;
#689 = ORIENTED_EDGE ( 'NONE', *, *, #685, .F. ) ;
#690 = DIRECTION ( 'NONE',  ( 0.000000000000000000, 0.000000000000000000, -1.000000000000000000 ) ) ;
#691 = CARTESIAN_POINT ( 'NONE',  ( 432.0000000000000568, -1891.000000000000227, 994.3911195959683482 ) ) ;
#692 = DATE_AND_TIME ( #1025, #1214 ) ;
#693 = DIRECTION ( 'NONE',  ( 0.000000000000000000, -0.000000000000000000, -1.000000000000000000 ) ) ;
#694 = DIRECTION ( 'NONE',  ( -0.000000000000000000, 0.000000000000000000, 1.000000000000000000 ) ) ;
#695 = PRODUCT_DEFINITION ( '未知', '', #1354, #1351 ) ;
#696 = DIRECTION ( 'NONE',  ( 1.000000000000000000, -0.000000000000000000, 0.000000000000000000 ) ) ;
#697 = LINE ( 'NONE', #480, #445 ) ;
#698 = CARTESIAN_POINT ( 'NONE',  ( 18.00000000000000355, -1147.000000000000227, 994.3911195959683482 ) ) ;
#699 = VERTEX_POINT ( 'NONE', #377 ) ;
#700 = VERTEX_POINT ( 'NONE', #1330 ) ;
#701 = PLANE ( 'NONE',  #291 ) ;
#702 = ORIENTED_EDGE ( 'NONE', *, *, #761, .F. ) ;
#703 = AXIS2_PLACEMENT_3D ( 'NONE', #680, #28, #668 ) ;
#704 = EDGE_CURVE ( 'NONE', #1328, #968, #1305, .T. ) ;
#705 = CARTESIAN_POINT ( 'NONE',  ( 18.00000000000004619, -386.0000000000002274, 20.00000000000001776 ) ) ;
#706 = ORIENTED_EDGE ( 'NONE', *, *, #1355, .T. ) ;
#707 = ORIENTED_EDGE ( 'NONE', *, *, #582, .F. ) ;
#708 = EDGE_LOOP ( 'NONE', ( #1357, #335, #241, #26 ) ) ;
#709 = CALENDAR_DATE ( 2026, 25, 5 ) ;
#710 = LINE ( 'NONE', #1066, #554 ) ;
#711 = CARTESIAN_POINT ( 'NONE',  ( 2.877919977996280525E-13, -2350.000000000000000, 580.0000000000000000 ) ) ;
#712 = LINE ( 'NONE', #465, #926 ) ;
#713 = CARTESIAN_POINT ( 'NONE',  ( 2.877919977996280525E-13, -2350.000000000000000, 580.0000000000000000 ) ) ;
#714 = VECTOR ( 'NONE', #958, 1000.000000000000000 ) ;
#715 = ORIENTED_EDGE ( 'NONE', *, *, #885, .F. ) ;
#716 = CARTESIAN_POINT ( 'NONE',  ( 18.00000000000057554, -18.00000000000000000, 2.000000000000000000 ) ) ;
#717 = ORIENTED_EDGE ( 'NONE', *, *, #651, .T. ) ;
#718 = CARTESIAN_POINT ( 'NONE',  ( 432.0000000000000000, -18.00000000000000000, -0.000000000000000000 ) ) ;
#719 = EDGE_LOOP ( 'NONE', ( #610, #738, #135, #904 ) ) ;
#720 = ORIENTED_EDGE ( 'NONE', *, *, #858, .T. ) ;
#721 = VERTEX_POINT ( 'NONE', #472 ) ;
#722 = ADVANCED_FACE ( 'NONE', ( #101 ), #580, .F. ) ;
#723 = CARTESIAN_POINT ( 'NONE',  ( 18.00000000000029132, -368.0000000000003411, 580.0000000000000000 ) ) ;
#724 = PERSON_AND_ORGANIZATION ( #859, #165 ) ;
#725 = DIRECTION ( 'NONE',  ( 1.229449654538445474E-16, -1.000000000000000000, 0.000000000000000000 ) ) ;
#726 = CARTESIAN_POINT ( 'NONE',  ( 432.0000000000000000, -18.00000000000000000, 580.0000000000000000 ) ) ;
#727 = VECTOR ( 'NONE', #533, 1000.000000000000000 ) ;
#728 = EDGE_CURVE ( 'NONE', #866, #636, #881, .T. ) ;
#729 = DIRECTION ( 'NONE',  ( -0.000000000000000000, -0.000000000000000000, -1.000000000000000000 ) ) ;
#730 = DIRECTION ( 'NONE',  ( 1.000000000000000000, 0.000000000000000000, 0.000000000000000000 ) ) ;
#731 = ORIENTED_EDGE ( 'NONE', *, *, #162, .F. ) ;
#732 = ORIENTED_EDGE ( 'NONE', *, *, #1092, .T. ) ;
#733 =( LENGTH_UNIT ( ) NAMED_UNIT ( * ) SI_UNIT ( .MILLI., .METRE. ) );
#734 = DIRECTION ( 'NONE',  ( -1.199463077598483474E-16, 1.000000000000000000, -0.000000000000000000 ) ) ;
#735 = DIRECTION ( 'NONE',  ( 0.000000000000000000, -1.000000000000000000, 0.000000000000000000 ) ) ;
#736 = ORIENTED_EDGE ( 'NONE', *, *, #348, .F. ) ;
#737 = EDGE_CURVE ( 'NONE', #511, #1069, #283, .T. ) ;
#738 = ORIENTED_EDGE ( 'NONE', *, *, #277, .F. ) ;
#739 = AXIS2_PLACEMENT_3D ( 'NONE', #331, #1074, #1307 ) ;
#740 = DATE_TIME_ROLE ( 'creation_date' ) ;
#741 = CARTESIAN_POINT ( 'NONE',  ( 432.0000000000000000, -18.00000000000000000, 580.0000000000000000 ) ) ;
#742 = PLANE ( 'NONE',  #271 ) ;
#743 = CALENDAR_DATE ( 2026, 25, 5 ) ;
#744 = LINE ( 'NONE', #94, #569 ) ;
#745 = CARTESIAN_POINT ( 'NONE',  ( 2.877919977996280525E-13, -2350.000000000000000, 0.000000000000000000 ) ) ;
#746 = FACE_BOUND ( 'NONE', #652, .T. ) ;
#747 = CARTESIAN_POINT ( 'NONE',  ( 18.00000000000029488, -386.0000000000002274, 20.00000000000000000 ) ) ;
#748 = LINE ( 'NONE', #226, #1290 ) ;
#749 = VECTOR ( 'NONE', #734, 1000.000000000000000 ) ;
#750 = EDGE_CURVE ( 'NONE', #1239, #875, #1352, .T. ) ;
#751 = APPLICATION_CONTEXT ( 'configuration controlled 3d designs of mechanical parts and assemblies' ) ;
#752 = LINE ( 'NONE', #908, #462 ) ;
#753 = DIRECTION ( 'NONE',  ( 0.000000000000000000, 1.000000000000000000, 0.000000000000000000 ) ) ;
#754 = ORIENTED_EDGE ( 'NONE', *, *, #1043, .T. ) ;
#755 = CARTESIAN_POINT ( 'NONE',  ( 18.00000000000000355, -18.00000000000000000, 580.0000000000000000 ) ) ;
#756 = ORIENTED_EDGE ( 'NONE', *, *, #1233, .F. ) ;
#757 = ORIENTED_EDGE ( 'NONE', *, *, #553, .T. ) ;
#758 = EDGE_LOOP ( 'NONE', ( #275, #892, #757, #732 ) ) ;
#759 = DIRECTION ( 'NONE',  ( 0.000000000000000000, -1.000000000000000000, 0.000000000000000000 ) ) ;
#760 = ADVANCED_FACE ( 'NONE', ( #518 ), #281, .F. ) ;
#761 = EDGE_CURVE ( 'NONE', #1003, #76, #575, .T. ) ;
#762 = CARTESIAN_POINT ( 'NONE',  ( 432.0000000000000000, -18.00000000000000000, 580.0000000000000000 ) ) ;
#763 = VECTOR ( 'NONE', #134, 1000.000000000000000 ) ;
#764 = FACE_OUTER_BOUND ( 'NONE', #498, .T. ) ;
#765 = CARTESIAN_POINT ( 'NONE',  ( 18.00000000000000355, -18.00000000000000000, 20.00000000000001776 ) ) ;
#766 = LINE ( 'NONE', #361, #816 ) ;
#767 = VERTEX_POINT ( 'NONE', #4 ) ;
#768 = AXIS2_PLACEMENT_3D ( 'NONE', #279, #176, #81 ) ;
#769 = ORIENTED_EDGE ( 'NONE', *, *, #393, .F. ) ;
#770 = PRODUCT ( '2400-03-柜体', '2400-03-柜体', '', ( #312 ) ) ;
#771 = ORIENTED_EDGE ( 'NONE', *, *, #272, .T. ) ;
#772 = CARTESIAN_POINT ( 'NONE',  ( 432.0000000000001705, -1528.000000000000227, 20.00000000000001776 ) ) ;
#773 = ORIENTED_EDGE ( 'NONE', *, *, #596, .T. ) ;
#774 = CARTESIAN_POINT ( 'NONE',  ( 432.0000000000000000, -18.00000000000000000, 2.000000000000000000 ) ) ;
#775 = DIRECTION ( 'NONE',  ( -1.000000000000000000, -1.199463077598483474E-16, 0.000000000000000000 ) ) ;
#776 = EDGE_CURVE ( 'NONE', #655, #699, #247, .T. ) ;
#777 = ADVANCED_FACE ( 'NONE', ( #267 ), #1271, .T. ) ;
#778 = DIRECTION ( 'NONE',  ( -0.000000000000000000, -0.000000000000000000, -1.000000000000000000 ) ) ;
#779 = LINE ( 'NONE', #1176, #167 ) ;
#780 = CARTESIAN_POINT ( 'NONE',  ( 18.00000000000000355, -18.00000000000000000, 580.0000000000000000 ) ) ;
#781 = LINE ( 'NONE', #747, #833 ) ;
#782 = DIRECTION ( 'NONE',  ( -0.000000000000000000, -0.000000000000000000, -1.000000000000000000 ) ) ;
#783 = EDGE_CURVE ( 'NONE', #1040, #637, #779, .T. ) ;
#784 = LINE ( 'NONE', #1125, #962 ) ;
#785 = ADVANCED_FACE ( 'NONE', ( #1 ), #742, .T. ) ;
#786 = EDGE_LOOP ( 'NONE', ( #1158, #243, #336, #392 ) ) ;
#787 = AXIS2_PLACEMENT_3D ( 'NONE', #62, #1224, #1235 ) ;
#788 = CARTESIAN_POINT ( 'NONE',  ( 18.00000000000057554, -18.00000000000000000, -0.000000000000000000 ) ) ;
#789 = ORIENTED_EDGE ( 'NONE', *, *, #704, .F. ) ;
#790 = CARTESIAN_POINT ( 'NONE',  ( 2.877919977996280525E-13, -2350.000000000000000, 580.0000000000000000 ) ) ;
#791 = VERTEX_POINT ( 'NONE', #1260 ) ;
#792 = DIRECTION ( 'NONE',  ( 0.000000000000000000, -1.000000000000000000, 0.000000000000000000 ) ) ;
#793 = CC_DESIGN_PERSON_AND_ORGANIZATION_ASSIGNMENT ( #485, #1056, ( #770 ) ) ;
#794 = AXIS2_PLACEMENT_3D ( 'NONE', #98, #1175, #1264 ) ;
#795 = FACE_OUTER_BOUND ( 'NONE', #719, .T. ) ;
#796 = VECTOR ( 'NONE', #38, 1000.000000000000000 ) ;
#797 = LINE ( 'NONE', #190, #15 ) ;
#798 = DIRECTION ( 'NONE',  ( -0.000000000000000000, -0.000000000000000000, -1.000000000000000000 ) ) ;
#799 = LINE ( 'NONE', #765, #1203 ) ;
#800 = CARTESIAN_POINT ( 'NONE',  ( 18.00000000000029132, -1891.000000000000227, 994.3911195959683482 ) ) ;
#801 = ORIENTED_EDGE ( 'NONE', *, *, #1301, .T. ) ;
#802 = DIRECTION ( 'NONE',  ( -0.000000000000000000, 0.000000000000000000, -1.000000000000000000 ) ) ;
#803 = ORIENTED_EDGE ( 'NONE', *, *, #484, .T. ) ;
#804 = EDGE_CURVE ( 'NONE', #143, #223, #1232, .T. ) ;
#805 = CARTESIAN_POINT ( 'NONE',  ( 18.00000000000013856, -1129.000000000000227, 20.00000000000001776 ) ) ;
#806 = VERTEX_POINT ( 'NONE', #840 ) ;
#807 = CARTESIAN_POINT ( 'NONE',  ( 0.000000000000000000, 0.000000000000000000, 562.0000000000000000 ) ) ;
#808 = ORIENTED_EDGE ( 'NONE', *, *, #1344, .F. ) ;
#809 = DIRECTION ( 'NONE',  ( -0.000000000000000000, -0.000000000000000000, -1.000000000000000000 ) ) ;
#810 = DIRECTION ( 'NONE',  ( 1.000000000000000000, 0.000000000000000000, 0.000000000000000000 ) ) ;
#811 = EDGE_CURVE ( 'NONE', #700, #852, #797, .T. ) ;
#812 = DIRECTION ( 'NONE',  ( 0.000000000000000000, -1.000000000000000000, 0.000000000000000000 ) ) ;
#813 = VECTOR ( 'NONE', #502, 1000.000000000000000 ) ;
#814 = CARTESIAN_POINT ( 'NONE',  ( 18.00000000000000355, -2272.000000000000455, 20.00000000000000000 ) ) ;
#815 = CARTESIAN_POINT ( 'NONE',  ( 18.00000000000009237, -748.0000000000002274, 20.00000000000001776 ) ) ;
#816 = VECTOR ( 'NONE', #456, 1000.000000000000000 ) ;
#817 = LINE ( 'NONE', #633, #1119 ) ;
#818 = DIRECTION ( 'NONE',  ( -1.000000000000000000, 0.000000000000000000, -0.000000000000000000 ) ) ;
#819 = DIRECTION ( 'NONE',  ( -1.000000000000000000, 0.000000000000000000, -0.000000000000000000 ) ) ;
#820 = LINE ( 'NONE', #64, #21 ) ;
#821 = ORIENTED_EDGE ( 'NONE', *, *, #1321, .F. ) ;
#822 = EDGE_CURVE ( 'NONE', #1069, #60, #1134, .T. ) ;
#823 = CARTESIAN_POINT ( 'NONE',  ( 432.0000000000001137, -1129.000000000000227, 20.00000000000001776 ) ) ;
#824 = ORIENTED_EDGE ( 'NONE', *, *, #252, .F. ) ;
#825 = CARTESIAN_POINT ( 'NONE',  ( 18.00000000000029132, -748.0000000000002274, 580.0000000000000000 ) ) ;
#826 = CARTESIAN_POINT ( 'NONE',  ( 450.0000000000000000, 0.000000000000000000, 580.0000000000000000 ) ) ;
#827 = VECTOR ( 'NONE', #175, 1000.000000000000000 ) ;
#828 = EDGE_CURVE ( 'NONE', #672, #1159, #346, .T. ) ;
#829 = LINE ( 'NONE', #1075, #677 ) ;
#830 = DIRECTION ( 'NONE',  ( -1.000000000000000000, -0.000000000000000000, -0.000000000000000000 ) ) ;
#831 = FACE_OUTER_BOUND ( 'NONE', #1002, .T. ) ;
#832 = CARTESIAN_POINT ( 'NONE',  ( 18.00000000000000355, -18.00000000000000000, 580.0000000000000000 ) ) ;
#833 = VECTOR ( 'NONE', #531, 1000.000000000000000 ) ;
#834 = DIRECTION ( 'NONE',  ( 1.199463077598483474E-16, -1.000000000000000000, 0.000000000000000000 ) ) ;
#835 = ORIENTED_EDGE ( 'NONE', *, *, #1210, .T. ) ;
#836 = ADVANCED_FACE ( 'NONE', ( #831 ), #843, .T. ) ;
#837 = ORIENTED_EDGE ( 'NONE', *, *, #206, .T. ) ;
#838 = PLANE ( 'NONE',  #171 ) ;
#839 = EDGE_LOOP ( 'NONE', ( #339, #715, #350, #309 ) ) ;
#840 = CARTESIAN_POINT ( 'NONE',  ( 18.00000000000029132, -2350.000000000000000, 2.000000000000000000 ) ) ;
#841 = ORIENTED_EDGE ( 'NONE', *, *, #553, .F. ) ;
#842 = ORIENTED_EDGE ( 'NONE', *, *, #1321, .T. ) ;
#843 = PLANE ( 'NONE',  #459 ) ;
#844 = COORDINATED_UNIVERSAL_TIME_OFFSET ( 8, 0, .AHEAD. ) ;
#845 = PERSON_AND_ORGANIZATION_ROLE ( 'creator' ) ;
#846 = LINE ( 'NONE', #607, #264 ) ;
#847 = CARTESIAN_POINT ( 'NONE',  ( 18.00000000000029488, -1510.000000000000227, 994.3911195959683482 ) ) ;
#848 = AXIS2_PLACEMENT_3D ( 'NONE', #686, #282, #1123 ) ;
#849 = EDGE_CURVE ( 'NONE', #700, #1255, #1184, .T. ) ;
#850 = DIRECTION ( 'NONE',  ( -0.000000000000000000, -0.000000000000000000, -1.000000000000000000 ) ) ;
#851 = VECTOR ( 'NONE', #639, 1000.000000000000000 ) ;
#852 = VERTEX_POINT ( 'NONE', #947 ) ;
#853 = EDGE_LOOP ( 'NONE', ( #1316, #1067, #205, #341 ) ) ;
#854 = CARTESIAN_POINT ( 'NONE',  ( 18.00000000000004263, -368.0000000000002842, 20.00000000000001776 ) ) ;
#855 = ORIENTED_EDGE ( 'NONE', *, *, #992, .F. ) ;
#856 = DIRECTION ( 'NONE',  ( 1.000000000000000000, 1.229449654538445474E-16, -0.000000000000000000 ) ) ;
#857 = ADVANCED_FACE ( 'NONE', ( #70 ), #1166, .T. ) ;
#858 = EDGE_CURVE ( 'NONE', #294, #1189, #623, .T. ) ;
#859 = PERSON ( '未指定', '未指定', '未指定', ('未指定'), ('未指定'), ('未指定') ) ;
#860 = APPLICATION_PROTOCOL_DEFINITION ( 'international standard', 'config_control_design', 1994, #417 ) ;
#861 = CARTESIAN_POINT ( 'NONE',  ( 18.00000000000029132, -1891.000000000000227, 580.0000000000000000 ) ) ;
#862 = VECTOR ( 'NONE', #903, 1000.000000000000000 ) ;
#863 = LINE ( 'NONE', #237, #1282 ) ;
#864 = CC_DESIGN_DATE_AND_TIME_ASSIGNMENT ( #425, #740, ( #695 ) ) ;
#865 = AXIS2_PLACEMENT_3D ( 'NONE', #877, #261, #550 ) ;
#866 = VERTEX_POINT ( 'NONE', #941 ) ;
#867 = ORIENTED_EDGE ( 'NONE', *, *, #761, .T. ) ;
#868 = DIRECTION ( 'NONE',  ( 1.156482317317870492E-16, -1.000000000000000000, 0.000000000000000000 ) ) ;
#869 = ORIENTED_EDGE ( 'NONE', *, *, #956, .T. ) ;
#870 = EDGE_LOOP ( 'NONE', ( #608, #269, #1286, #1035 ) ) ;
#871 = VERTEX_POINT ( 'NONE', #414 ) ;
#872 = VERTEX_POINT ( 'NONE', #657 ) ;
#873 = CARTESIAN_POINT ( 'NONE',  ( 18.00000000000057554, -18.00000000000000000, 2.000000000000000000 ) ) ;
#874 = ORIENTED_EDGE ( 'NONE', *, *, #194, .T. ) ;
#875 = VERTEX_POINT ( 'NONE', #204 ) ;
#876 = EDGE_CURVE ( 'NONE', #1239, #636, #912, .T. ) ;
#877 = CARTESIAN_POINT ( 'NONE',  ( 18.00000000000029488, -386.0000000000002274, 994.3911195959683482 ) ) ;
#878 = COORDINATED_UNIVERSAL_TIME_OFFSET ( 8, 0, .AHEAD. ) ;
#879 = CARTESIAN_POINT ( 'NONE',  ( 18.00000000000000355, -18.00000000000000000, 580.0000000000000000 ) ) ;
#880 = LINE ( 'NONE', #1246, #314 ) ;
#881 = LINE ( 'NONE', #373, #1135 ) ;
#882 = EDGE_CURVE ( 'NONE', #353, #806, #899, .T. ) ;
#883 = PLANE ( 'NONE',  #650 ) ;
#884 = LINE ( 'NONE', #939, #17 ) ;
#885 = EDGE_CURVE ( 'NONE', #294, #996, #588, .T. ) ;
#886 = FACE_OUTER_BOUND ( 'NONE', #338, .T. ) ;
#887 = DIRECTION ( 'NONE',  ( -1.199463077598483474E-16, 1.000000000000000000, -0.000000000000000000 ) ) ;
#888 = ORIENTED_EDGE ( 'NONE', *, *, #969, .F. ) ;
#889 = DIRECTION ( 'NONE',  ( 1.000000000000000000, 0.000000000000000000, 0.000000000000000000 ) ) ;
#890 = EDGE_LOOP ( 'NONE', ( #1126, #464, #289, #448 ) ) ;
#891 = ADVANCED_FACE ( 'NONE', ( #764 ), #530, .T. ) ;
#892 = ORIENTED_EDGE ( 'NONE', *, *, #811, .F. ) ;
#893 = CARTESIAN_POINT ( 'NONE',  ( 18.00000000000000355, -1147.000000000000227, 580.0000000000000000 ) ) ;
#894 = CARTESIAN_POINT ( 'NONE',  ( 0.000000000000000000, 0.000000000000000000, 580.0000000000000000 ) ) ;
#895 = EDGE_CURVE ( 'NONE', #22, #422, #1335, .T. ) ;
#896 = VECTOR ( 'NONE', #288, 1000.000000000000000 ) ;
#897 = DIRECTION ( 'NONE',  ( 1.000000000000000000, -0.000000000000000000, 0.000000000000000000 ) ) ;
#898 = LINE ( 'NONE', #556, #796 ) ;
#899 = LINE ( 'NONE', #239, #1324 ) ;
#900 = FACE_OUTER_BOUND ( 'NONE', #217, .T. ) ;
#901 = CARTESIAN_POINT ( 'NONE',  ( 0.000000000000000000, 0.000000000000000000, 580.0000000000000000 ) ) ;
#902 = EDGE_CURVE ( 'NONE', #1189, #871, #1100, .T. ) ;
#903 = DIRECTION ( 'NONE',  ( -0.000000000000000000, -0.000000000000000000, -1.000000000000000000 ) ) ;
#904 = ORIENTED_EDGE ( 'NONE', *, *, #605, .F. ) ;
#905 = EDGE_LOOP ( 'NONE', ( #387, #9, #1211, #526 ) ) ;
#906 = DIRECTION ( 'NONE',  ( -0.000000000000000000, -0.000000000000000000, -1.000000000000000000 ) ) ;
#907 = CARTESIAN_POINT ( 'NONE',  ( 18.00000000000029488, -766.0000000000002274, 994.3911195959683482 ) ) ;
#908 = CARTESIAN_POINT ( 'NONE',  ( 450.0000000000000000, 0.000000000000000000, 580.0000000000000000 ) ) ;
#909 = CALENDAR_DATE ( 2026, 25, 5 ) ;
#910 = LINE ( 'NONE', #1185, #471 ) ;
#911 = DIRECTION ( 'NONE',  ( -0.000000000000000000, -0.000000000000000000, -1.000000000000000000 ) ) ;
#912 = LINE ( 'NONE', #762, #1168 ) ;
#913 = FACE_OUTER_BOUND ( 'NONE', #1140, .T. ) ;
#914 = PLANE ( 'NONE',  #768 ) ;
#915 = LINE ( 'NONE', #430, #521 ) ;
#916 = VECTOR ( 'NONE', #53, 1000.000000000000000 ) ;
#917 = CARTESIAN_POINT ( 'NONE',  ( 18.00000000000000355, -1129.000000000000227, 994.3911195959683482 ) ) ;
#918 = ORIENTED_EDGE ( 'NONE', *, *, #1060, .T. ) ;
#919 = EDGE_CURVE ( 'NONE', #319, #293, #1013, .T. ) ;
#920 = CARTESIAN_POINT ( 'NONE',  ( 18.00000000000029132, -1891.000000000000227, 20.00000000000000000 ) ) ;
#921 = EDGE_LOOP ( 'NONE', ( #1342, #158, #821, #614 ) ) ;
#922 = ORIENTED_EDGE ( 'NONE', *, *, #919, .T. ) ;
#923 = EDGE_CURVE ( 'NONE', #115, #203, #441, .T. ) ;
#924 = DIRECTION ( 'NONE',  ( -1.219959905918509233E-16, -1.000000000000000000, 0.000000000000000000 ) ) ;
#925 = LINE ( 'NONE', #150, #299 ) ;
#926 = VECTOR ( 'NONE', #979, 1000.000000000000000 ) ;
#927 = VECTOR ( 'NONE', #181, 1000.000000000000000 ) ;
#928 = ADVANCED_FACE ( 'NONE', ( #989 ), #1090, .T. ) ;
#929 = PLANE ( 'NONE',  #57 ) ;
#930 = ORIENTED_EDGE ( 'NONE', *, *, #1099, .F. ) ;
#931 = ORIENTED_EDGE ( 'NONE', *, *, #737, .F. ) ;
#932 = AXIS2_PLACEMENT_3D ( 'NONE', #156, #775, #262 ) ;
#933 = EDGE_CURVE ( 'NONE', #541, #111, #910, .T. ) ;
#934 = UNCERTAINTY_MEASURE_WITH_UNIT (LENGTH_MEASURE( 1.000000000000000082E-05 ), #733, 'distance_accuracy_value', 'NONE');
#935 = CARTESIAN_POINT ( 'NONE',  ( 0.000000000000000000, 0.000000000000000000, 0.000000000000000000 ) ) ;
#936 = ORIENTED_EDGE ( 'NONE', *, *, #1361, .T. ) ;
#937 = EDGE_CURVE ( 'NONE', #806, #310, #1149, .T. ) ;
#938 = LINE ( 'NONE', #967, #378 ) ;
#939 = CARTESIAN_POINT ( 'NONE',  ( 432.0000000000000000, -18.00000000000000000, 20.00000000000001776 ) ) ;
#940 = VECTOR ( 'NONE', #71, 1000.000000000000000 ) ;
#941 = CARTESIAN_POINT ( 'NONE',  ( 18.00000000000023448, -1909.000000000000227, 580.0000000000000000 ) ) ;
#942 = EDGE_LOOP ( 'NONE', ( #113, #706, #869, #579 ) ) ;
#943 = ORIENTED_EDGE ( 'NONE', *, *, #1233, .T. ) ;
#944 = DIRECTION ( 'NONE',  ( -1.000000000000000000, -0.000000000000000000, -0.000000000000000000 ) ) ;
#945 = ORIENTED_EDGE ( 'NONE', *, *, #206, .F. ) ;
#946 = CARTESIAN_POINT ( 'NONE',  ( 18.00000000000029132, -1891.000000000000227, 994.3911195959683482 ) ) ;
#947 = CARTESIAN_POINT ( 'NONE',  ( 432.0000000000000568, -368.0000000000002842, 20.00000000000001776 ) ) ;
#948 = DATE_AND_TIME ( #709, #985 ) ;
#949 = CARTESIAN_POINT ( 'NONE',  ( 0.000000000000000000, 0.000000000000000000, 0.000000000000000000 ) ) ;
#950 = CARTESIAN_POINT ( 'NONE',  ( 18.00000000000029132, -2350.000000000000000, 562.0000000000000000 ) ) ;
#951 = EDGE_CURVE ( 'NONE', #1312, #1001, #1027, .T. ) ;
#952 = LINE ( 'NONE', #315, #395 ) ;
#953 = DIRECTION ( 'NONE',  ( 1.229449654538445474E-16, -1.000000000000000000, 0.000000000000000000 ) ) ;
#954 = VECTOR ( 'NONE', #45, 1000.000000000000000 ) ;
#955 = AXIS2_PLACEMENT_3D ( 'NONE', #1331, #278, #379 ) ;
#956 = EDGE_CURVE ( 'NONE', #1108, #437, #829, .T. ) ;
#957 = APPROVAL_STATUS ( 'not_yet_approved' ) ;
#958 = DIRECTION ( 'NONE',  ( -0.000000000000000000, -0.000000000000000000, -1.000000000000000000 ) ) ;
#959 = LINE ( 'NONE', #208, #851 ) ;
#960 = CARTESIAN_POINT ( 'NONE',  ( 432.0000000000002842, -2290.000000000000000, 20.00000000000001776 ) ) ;
#961 = ADVANCED_FACE ( 'NONE', ( #604 ), #539, .T. ) ;
#962 = VECTOR ( 'NONE', #1115, 1000.000000000000000 ) ;
#963 = ORIENTED_EDGE ( 'NONE', *, *, #933, .F. ) ;
#964 = DIRECTION ( 'NONE',  ( -1.229449654538445474E-16, 1.000000000000000000, 0.000000000000000000 ) ) ;
#965 = VERTEX_POINT ( 'NONE', #643 ) ;
#966 = CARTESIAN_POINT ( 'NONE',  ( 432.0000000000002842, -2350.000000000000000, 580.0000000000000000 ) ) ;
#967 = CARTESIAN_POINT ( 'NONE',  ( 18.00000000000000355, -1129.000000000000227, 994.3911195959683482 ) ) ;
#968 = VERTEX_POINT ( 'NONE', #960 ) ;
#969 = EDGE_CURVE ( 'NONE', #637, #174, #182, .T. ) ;
#970 = ORIENTED_EDGE ( 'NONE', *, *, #85, .F. ) ;
#971 = EDGE_LOOP ( 'NONE', ( #220, #1293, #801, #8 ) ) ;
#972 = FACE_BOUND ( 'NONE', #1285, .T. ) ;
#973 = CARTESIAN_POINT ( 'NONE',  ( 18.00000000000000355, -18.00000000000000000, 580.0000000000000000 ) ) ;
#974 = VECTOR ( 'NONE', #43, 1000.000000000000000 ) ;
#975 = AXIS2_PLACEMENT_3D ( 'NONE', #774, #382, #802 ) ;
#976 = FACE_OUTER_BOUND ( 'NONE', #708, .T. ) ;
#977 = ORIENTED_EDGE ( 'NONE', *, *, #1173, .T. ) ;
#978 = ORIENTED_EDGE ( 'NONE', *, *, #1099, .T. ) ;
#979 = DIRECTION ( 'NONE',  ( -0.000000000000000000, -0.000000000000000000, -1.000000000000000000 ) ) ;
#980 = VERTEX_POINT ( 'NONE', #1193 ) ;
#981 = AXIS2_PLACEMENT_3D ( 'NONE', #297, #492, #818 ) ;
#982 = ORIENTED_EDGE ( 'NONE', *, *, #110, .F. ) ;
#983 = EDGE_CURVE ( 'NONE', #111, #1144, #938, .T. ) ;
#984 = CARTESIAN_POINT ( 'NONE',  ( 432.0000000000000000, -18.00000000000000000, 20.00000000000001776 ) ) ;
#985 = LOCAL_TIME ( 15, 18, 27.00000000000000000, #844 ) ;
#986 = CARTESIAN_POINT ( 'NONE',  ( 18.00000000000018829, -1528.000000000000227, 580.0000000000000000 ) ) ;
#987 = ADVANCED_FACE ( 'NONE', ( #429 ), #1311, .T. ) ;
#988 = VECTOR ( 'NONE', #187, 1000.000000000000000 ) ;
#989 = FACE_OUTER_BOUND ( 'NONE', #548, .T. ) ;
#990 = DIRECTION ( 'NONE',  ( 1.199463077598483474E-16, -1.000000000000000000, 0.000000000000000000 ) ) ;
#991 = LINE ( 'NONE', #1098, #555 ) ;
#992 = EDGE_CURVE ( 'NONE', #76, #1358, #1247, .T. ) ;
#993 = PLANE ( 'NONE',  #703 ) ;
#994 = LINE ( 'NONE', #660, #714 ) ;
#995 = CARTESIAN_POINT ( 'NONE',  ( 18.00000000000013856, -1129.000000000000227, 580.0000000000000000 ) ) ;
#996 = VERTEX_POINT ( 'NONE', #788 ) ;
#997 = PLANE ( 'NONE',  #865 ) ;
#998 = ORIENTED_EDGE ( 'NONE', *, *, #618, .F. ) ;
#999 = CARTESIAN_POINT ( 'NONE',  ( 450.0000000000002842, -2350.000000000000000, 580.0000000000000000 ) ) ;
#1000 = DIRECTION ( 'NONE',  ( -0.000000000000000000, -0.000000000000000000, -1.000000000000000000 ) ) ;
#1001 = VERTEX_POINT ( 'NONE', #362 ) ;
#1002 = EDGE_LOOP ( 'NONE', ( #259, #771, #172, #1157 ) ) ;
#1003 = VERTEX_POINT ( 'NONE', #453 ) ;
#1004 = DIRECTION ( 'NONE',  ( 1.219959905918508987E-16, 1.000000000000000000, -0.000000000000000000 ) ) ;
#1005 = CARTESIAN_POINT ( 'NONE',  ( 0.000000000000000000, 0.000000000000000000, 20.00000000000000000 ) ) ;
#1006 = DIRECTION ( 'NONE',  ( 0.000000000000000000, -0.000000000000000000, 1.000000000000000000 ) ) ;
#1007 = AXIS2_PLACEMENT_3D ( 'NONE', #48, #1114, #357 ) ;
#1008 = AXIS2_PLACEMENT_3D ( 'NONE', #542, #128, #1292 ) ;
#1009 = LOCAL_TIME ( 15, 18, 27.00000000000000000, #1162 ) ;
#1010 = CARTESIAN_POINT ( 'NONE',  ( 18.00000000000057554, -18.00000000000000000, -0.000000000000000000 ) ) ;
#1011 = CARTESIAN_POINT ( 'NONE',  ( 432.0000000000000000, -1147.000000000000227, 994.3911195959683482 ) ) ;
#1012 = CARTESIAN_POINT ( 'NONE',  ( 432.0000000000000000, -1510.000000000000227, 994.3911195959683482 ) ) ;
#1013 = LINE ( 'NONE', #973, #727 ) ;
#1014 = VECTOR ( 'NONE', #433, 1000.000000000000000 ) ;
#1015 = CARTESIAN_POINT ( 'NONE',  ( 18.00000000000028066, -2272.000000000000455, 580.0000000000000000 ) ) ;
#1016 = EDGE_CURVE ( 'NONE', #1144, #1069, #925, .T. ) ;
#1017 = VECTOR ( 'NONE', #1318, 1000.000000000000000 ) ;
#1018 = CARTESIAN_POINT ( 'NONE',  ( 432.0000000000002842, -2290.000000000000000, 562.0000000000000000 ) ) ;
#1019 = ORIENTED_EDGE ( 'NONE', *, *, #1361, .F. ) ;
#1020 = ORIENTED_EDGE ( 'NONE', *, *, #822, .T. ) ;
#1021 = CARTESIAN_POINT ( 'NONE',  ( 432.0000000000000000, -18.00000000000000000, 2.000000000000000000 ) ) ;
#1022 = ORIENTED_EDGE ( 'NONE', *, *, #1190, .T. ) ;
#1023 = CARTESIAN_POINT ( 'NONE',  ( 0.000000000000000000, 0.000000000000000000, 20.00000000000000000 ) ) ;
#1024 = PLANE ( 'NONE',  #1129 ) ;
#1025 = CALENDAR_DATE ( 2026, 25, 5 ) ;
#1026 = LINE ( 'NONE', #602, #1077 ) ;
#1027 = LINE ( 'NONE', #861, #763 ) ;
#1028 = DIRECTION ( 'NONE',  ( -1.229449654538445474E-16, 1.000000000000000000, 0.000000000000000000 ) ) ;
#1029 = VECTOR ( 'NONE', #1072, 1000.000000000000000 ) ;
#1030 = FACE_OUTER_BOUND ( 'NONE', #56, .T. ) ;
#1031 = LINE ( 'NONE', #1226, #1340 ) ;
#1032 = CC_DESIGN_APPROVAL ( #39, ( #695 ) ) ;
#1033 = EDGE_CURVE ( 'NONE', #1189, #353, #1261, .T. ) ;
#1034 = CARTESIAN_POINT ( 'NONE',  ( 432.0000000000002842, -2272.000000000000455, 580.0000000000000000 ) ) ;
#1035 = ORIENTED_EDGE ( 'NONE', *, *, #484, .F. ) ;
#1036 = DIRECTION ( 'NONE',  ( 0.000000000000000000, -0.000000000000000000, -1.000000000000000000 ) ) ;
#1037 = ORIENTED_EDGE ( 'NONE', *, *, #102, .F. ) ;
#1038 = ORIENTED_EDGE ( 'NONE', *, *, #1173, .F. ) ;
#1039 = ORIENTED_EDGE ( 'NONE', *, *, #332, .F. ) ;
#1040 = VERTEX_POINT ( 'NONE', #1106 ) ;
#1041 = DIRECTION ( 'NONE',  ( -1.000000000000000000, -0.000000000000000000, -0.000000000000000000 ) ) ;
#1042 = CARTESIAN_POINT ( 'NONE',  ( 0.000000000000000000, 0.000000000000000000, 20.00000000000000000 ) ) ;
#1043 = EDGE_CURVE ( 'NONE', #319, #1255, #139, .T. ) ;
#1044 = LINE ( 'NONE', #825, #470 ) ;
#1045 = DIRECTION ( 'NONE',  ( -1.229449654538445474E-16, 1.000000000000000000, 0.000000000000000000 ) ) ;
#1046 = CARTESIAN_POINT ( 'NONE',  ( 18.00000000000057554, -18.00000000000000000, 2.000000000000000000 ) ) ;
#1047 = ORIENTED_EDGE ( 'NONE', *, *, #919, .F. ) ;
#1048 = DIRECTION ( 'NONE',  ( -0.000000000000000000, 0.000000000000000000, -1.000000000000000000 ) ) ;
#1049 = ADVANCED_FACE ( 'NONE', ( #644, #122, #166, #972, #1198, #746, #570 ), #1202, .T. ) ;
#1050 = VERTEX_POINT ( 'NONE', #999 ) ;
#1051 = ORIENTED_EDGE ( 'NONE', *, *, #1145, .T. ) ;
#1052 = DIRECTION ( 'NONE',  ( 1.000000000000000000, 0.000000000000000000, 0.000000000000000000 ) ) ;
#1053 = CARTESIAN_POINT ( 'NONE',  ( 432.0000000000000000, -18.00000000000000000, 20.00000000000001776 ) ) ;
#1054 = ORIENTED_EDGE ( 'NONE', *, *, #20, .T. ) ;
#1055 = ADVANCED_FACE ( 'NONE', ( #84 ), #1294, .F. ) ;
#1056 = PERSON_AND_ORGANIZATION_ROLE ( 'design_owner' ) ;
#1057 = CARTESIAN_POINT ( 'NONE',  ( 432.0000000000000000, -1909.000000000000227, 994.3911195959683482 ) ) ;
#1058 = CARTESIAN_POINT ( 'NONE',  ( 432.0000000000000000, -386.0000000000002274, 994.3911195959683482 ) ) ;
#1059 = CC_DESIGN_APPROVAL ( #347, ( #1354 ) ) ;
#1060 = EDGE_CURVE ( 'NONE', #511, #93, #413, .T. ) ;
#1061 = LINE ( 'NONE', #1243, #67 ) ;
#1062 = PERSON_AND_ORGANIZATION_ROLE ( 'creator' ) ;
#1063 = LINE ( 'NONE', #1010, #212 ) ;
#1064 = DIRECTION ( 'NONE',  ( -1.000000000000000000, 0.000000000000000000, 0.000000000000000000 ) ) ;
#1065 = FACE_OUTER_BOUND ( 'NONE', #890, .T. ) ;
#1066 = CARTESIAN_POINT ( 'NONE',  ( 432.0000000000000568, -1528.000000000000227, 994.3911195959683482 ) ) ;
#1067 = ORIENTED_EDGE ( 'NONE', *, *, #902, .F. ) ;
#1068 = PLANE ( 'NONE',  #1008 ) ;
#1069 = VERTEX_POINT ( 'NONE', #449 ) ;
#1070 = EDGE_LOOP ( 'NONE', ( #638, #307, #1124, #1310 ) ) ;
#1071 = ORIENTED_EDGE ( 'NONE', *, *, #1033, .T. ) ;
#1072 = DIRECTION ( 'NONE',  ( 1.000000000000000000, 0.000000000000000000, 0.000000000000000000 ) ) ;
#1073 = ORIENTED_EDGE ( 'NONE', *, *, #1295, .F. ) ;
#1074 = DIRECTION ( 'NONE',  ( -1.000000000000000000, -1.199463077598483474E-16, 0.000000000000000000 ) ) ;
#1075 = CARTESIAN_POINT ( 'NONE',  ( 432.0000000000000000, -18.00000000000000000, 20.00000000000001776 ) ) ;
#1076 = CARTESIAN_POINT ( 'NONE',  ( 432.0000000000000000, -18.00000000000000000, 580.0000000000000000 ) ) ;
#1077 = VECTOR ( 'NONE', #405, 1000.000000000000000 ) ;
#1078 = CARTESIAN_POINT ( 'NONE',  ( 18.00000000000014211, -1147.000000000000227, 580.0000000000000000 ) ) ;
#1079 = CARTESIAN_POINT ( 'NONE',  ( 18.00000000000029132, -2350.000000000000000, 2.000000000000000000 ) ) ;
#1080 = ADVANCED_FACE ( 'NONE', ( #1280 ), #993, .F. ) ;
#1081 = FACE_OUTER_BOUND ( 'NONE', #617, .T. ) ;
#1082 = VECTOR ( 'NONE', #228, 1000.000000000000000 ) ;
#1083 = DIRECTION ( 'NONE',  ( 1.199463077598483474E-16, -1.000000000000000000, 0.000000000000000000 ) ) ;
#1084 = LINE ( 'NONE', #1053, #349 ) ;
#1085 = DIRECTION ( 'NONE',  ( -0.000000000000000000, -0.000000000000000000, -1.000000000000000000 ) ) ;
#1086 = VERTEX_POINT ( 'NONE', #986 ) ;
#1087 = ORIENTED_EDGE ( 'NONE', *, *, #676, .T. ) ;
#1088 = ADVANCED_FACE ( 'NONE', ( #1350 ), #883, .T. ) ;
#1089 = ORIENTED_EDGE ( 'NONE', *, *, #490, .F. ) ;
#1090 = PLANE ( 'NONE',  #322 ) ;
#1091 = ORIENTED_EDGE ( 'NONE', *, *, #648, .T. ) ;
#1092 = EDGE_CURVE ( 'NONE', #1291, #466, #51, .T. ) ;
#1093 = ORIENTED_EDGE ( 'NONE', *, *, #882, .F. ) ;
#1094 = ORIENTED_EDGE ( 'NONE', *, *, #596, .F. ) ;
#1095 = DIRECTION ( 'NONE',  ( -1.229449654538445474E-16, 1.000000000000000000, 0.000000000000000000 ) ) ;
#1096 = DIRECTION ( 'NONE',  ( 0.000000000000000000, -1.000000000000000000, 0.000000000000000000 ) ) ;
#1097 = LINE ( 'NONE', #691, #31 ) ;
#1098 = CARTESIAN_POINT ( 'NONE',  ( 2.877919977996280525E-13, -2350.000000000000000, 0.000000000000000000 ) ) ;
#1099 = EDGE_CURVE ( 'NONE', #1050, #632, #898, .T. ) ;
#1100 = LINE ( 'NONE', #641, #473 ) ;
#1101 = LINE ( 'NONE', #144, #1234 ) ;
#1102 = AXIS2_PLACEMENT_3D ( 'NONE', #666, #254, #990 ) ;
#1103 = ADVANCED_FACE ( 'NONE', ( #1148 ), #562, .F. ) ;
#1104 = CARTESIAN_POINT ( 'NONE',  ( 432.0000000000002274, -1909.000000000000227, 580.0000000000000000 ) ) ;
#1105 = EDGE_LOOP ( 'NONE', ( #837, #581, #170, #7 ) ) ;
#1106 = CARTESIAN_POINT ( 'NONE',  ( 432.0000000000002842, -2290.000000000000000, 562.0000000000000000 ) ) ;
#1107 = ORIENTED_EDGE ( 'NONE', *, *, #923, .F. ) ;
#1108 = VERTEX_POINT ( 'NONE', #772 ) ;
#1109 = CARTESIAN_POINT ( 'NONE',  ( 18.00000000000029488, -1528.000000000000227, 580.0000000000000000 ) ) ;
#1110 = ADVANCED_FACE ( 'NONE', ( #1081 ), #1322, .F. ) ;
#1111 = ORIENTED_EDGE ( 'NONE', *, *, #272, .F. ) ;
#1112 = EDGE_CURVE ( 'NONE', #437, #311, #359, .T. ) ;
#1113 = CARTESIAN_POINT ( 'NONE',  ( 18.00000000000000355, -18.00000000000000000, 580.0000000000000000 ) ) ;
#1114 = DIRECTION ( 'NONE',  ( 0.000000000000000000, 0.000000000000000000, -1.000000000000000000 ) ) ;
#1115 = DIRECTION ( 'NONE',  ( -1.181088324069315448E-16, 1.000000000000000000, -0.000000000000000000 ) ) ;
#1116 = VECTOR ( 'NONE', #232, 1000.000000000000000 ) ;
#1117 = VECTOR ( 'NONE', #635, 1000.000000000000000 ) ;
#1118 = EDGE_CURVE ( 'NONE', #1312, #437, #1097, .T. ) ;
#1119 = VECTOR ( 'NONE', #197, 1000.000000000000000 ) ;
#1120 = CARTESIAN_POINT ( 'NONE',  ( 18.00000000000029132, -2350.000000000000000, 562.0000000000000000 ) ) ;
#1121 = FACE_OUTER_BOUND ( 'NONE', #543, .T. ) ;
#1122 = PLANE ( 'NONE',  #6 ) ;
#1123 = DIRECTION ( 'NONE',  ( 1.000000000000000000, 2.681698127113906735E-16, 0.000000000000000000 ) ) ;
#1124 = ORIENTED_EDGE ( 'NONE', *, *, #704, .T. ) ;
#1125 = CARTESIAN_POINT ( 'NONE',  ( 450.0000000000000000, 0.000000000000000000, 0.000000000000000000 ) ) ;
#1126 = ORIENTED_EDGE ( 'NONE', *, *, #651, .F. ) ;
#1127 = ORIENTED_EDGE ( 'NONE', *, *, #1248, .T. ) ;
#1128 = DIRECTION ( 'NONE',  ( -0.000000000000000000, 0.000000000000000000, 1.000000000000000000 ) ) ;
#1129 = AXIS2_PLACEMENT_3D ( 'NONE', #1133, #487, #1036 ) ;
#1130 = CALENDAR_DATE ( 2026, 25, 5 ) ;
#1131 = CARTESIAN_POINT ( 'NONE',  ( 432.0000000000000000, -18.00000000000000000, 580.0000000000000000 ) ) ;
#1132 = DIRECTION ( 'NONE',  ( 1.000000000000000000, 0.000000000000000000, 0.000000000000000000 ) ) ;
#1133 = CARTESIAN_POINT ( 'NONE',  ( 18.00000000000000355, -18.00000000000000000, 580.0000000000000000 ) ) ;
#1134 = LINE ( 'NONE', #522, #1117 ) ;
#1135 = VECTOR ( 'NONE', #696, 1000.000000000000000 ) ;
#1136 = LINE ( 'NONE', #1057, #126 ) ;
#1137 = CC_DESIGN_PERSON_AND_ORGANIZATION_ASSIGNMENT ( #410, #845, ( #1354 ) ) ;
#1138 = EDGE_CURVE ( 'NONE', #422, #145, #1216, .T. ) ;
#1139 = CARTESIAN_POINT ( 'NONE',  ( 18.00000000000000355, -1147.000000000000227, 20.00000000000000000 ) ) ;
#1140 = EDGE_LOOP ( 'NONE', ( #148, #707, #402, #1037 ) ) ;
#1141 = ORIENTED_EDGE ( 'NONE', *, *, #110, .T. ) ;
#1142 = PLANE ( 'NONE',  #628 ) ;
#1143 = PLANE ( 'NONE',  #1199 ) ;
#1144 = VERTEX_POINT ( 'NONE', #805 ) ;
#1145 = EDGE_CURVE ( 'NONE', #541, #93, #330, .T. ) ;
#1146 = PLANE ( 'NONE',  #981 ) ;
#1147 = DIRECTION ( 'NONE',  ( 0.000000000000000000, -0.000000000000000000, 1.000000000000000000 ) ) ;
#1148 = FACE_OUTER_BOUND ( 'NONE', #611, .T. ) ;
#1149 = LINE ( 'NONE', #1079, #1116 ) ;
#1150 = VECTOR ( 'NONE', #25, 1000.000000000000000 ) ;
#1151 = DIRECTION ( 'NONE',  ( 0.000000000000000000, 0.000000000000000000, -1.000000000000000000 ) ) ;
#1152 = LINE ( 'NONE', #713, #383 ) ;
#1153 = ORIENTED_EDGE ( 'NONE', *, *, #1161, .T. ) ;
#1154 = CARTESIAN_POINT ( 'NONE',  ( 450.0000000000000000, 0.000000000000000000, 580.0000000000000000 ) ) ;
#1155 = VERTEX_POINT ( 'NONE', #1237 ) ;
#1156 = CARTESIAN_POINT ( 'NONE',  ( 18.00000000000000355, -18.00000000000000000, 580.0000000000000000 ) ) ;
#1157 = ORIENTED_EDGE ( 'NONE', *, *, #750, .F. ) ;
#1158 = ORIENTED_EDGE ( 'NONE', *, *, #421, .T. ) ;
#1159 = VERTEX_POINT ( 'NONE', #814 ) ;
#1160 = CARTESIAN_POINT ( 'NONE',  ( 18.00000000000000355, -2272.000000000000455, 994.3911195959683482 ) ) ;
#1161 = EDGE_CURVE ( 'NONE', #593, #791, #191, .T. ) ;
#1162 = COORDINATED_UNIVERSAL_TIME_OFFSET ( 8, 0, .AHEAD. ) ;
#1163 = APPROVAL_ROLE ( '' ) ;
#1164 = DIRECTION ( 'NONE',  ( 0.000000000000000000, -1.000000000000000000, 0.000000000000000000 ) ) ;
#1165 = LINE ( 'NONE', #401, #813 ) ;
#1166 = PLANE ( 'NONE',  #1287 ) ;
#1167 = ADVANCED_FACE ( 'NONE', ( #83 ), #571, .F. ) ;
#1168 = VECTOR ( 'NONE', #444, 1000.000000000000000 ) ;
#1169 = CARTESIAN_POINT ( 'NONE',  ( 18.00000000000023093, -1891.000000000000227, 20.00000000000001776 ) ) ;
#1170 = LINE ( 'NONE', #109, #576 ) ;
#1171 = ORIENTED_EDGE ( 'NONE', *, *, #141, .F. ) ;
#1172 = ORIENTED_EDGE ( 'NONE', *, *, #1118, .T. ) ;
#1173 = EDGE_CURVE ( 'NONE', #446, #1040, #13, .T. ) ;
#1174 = DIRECTION ( 'NONE',  ( 0.000000000000000000, 0.000000000000000000, 1.000000000000000000 ) ) ;
#1175 = DIRECTION ( 'NONE',  ( 0.000000000000000000, 1.000000000000000000, 0.000000000000000000 ) ) ;
#1176 = CARTESIAN_POINT ( 'NONE',  ( 18.00000000000028422, -2290.000000000000000, 562.0000000000000000 ) ) ;
#1177 = DATE_TIME_ROLE ( 'classification_date' ) ;
#1178 = PLANE ( 'NONE',  #501 ) ;
#1179 = SHAPE_DEFINITION_REPRESENTATION ( #227, #1302 ) ;
#1180 = SECURITY_CLASSIFICATION ( '', '', #219 ) ;
#1181 = EDGE_CURVE ( 'NONE', #1040, #968, #535, .T. ) ;
#1182 = LINE ( 'NONE', #1258, #1348 ) ;
#1183 = VECTOR ( 'NONE', #551, 1000.000000000000000 ) ;
#1184 = LINE ( 'NONE', #723, #380 ) ;
#1185 = CARTESIAN_POINT ( 'NONE',  ( 18.00000000000000355, -1129.000000000000227, 580.0000000000000000 ) ) ;
#1186 = VECTOR ( 'NONE', #290, 1000.000000000000000 ) ;
#1187 = ORIENTED_EDGE ( 'NONE', *, *, #983, .T. ) ;
#1188 = DIRECTION ( 'NONE',  ( 1.219959905918508987E-16, 1.000000000000000000, -0.000000000000000000 ) ) ;
#1189 = VERTEX_POINT ( 'NONE', #1021 ) ;
#1190 = EDGE_CURVE ( 'NONE', #404, #791, #504, .T. ) ;
#1191 = ORIENTED_EDGE ( 'NONE', *, *, #1092, .F. ) ;
#1192 = ORIENTED_EDGE ( 'NONE', *, *, #348, .T. ) ;
#1193 = CARTESIAN_POINT ( 'NONE',  ( 18.00000000000018829, -1528.000000000000227, 20.00000000000001776 ) ) ;
#1194 = FACE_OUTER_BOUND ( 'NONE', #942, .T. ) ;
#1195 = CARTESIAN_POINT ( 'NONE',  ( 432.0000000000000000, -18.00000000000000000, 20.00000000000001776 ) ) ;
#1196 = PERSON_AND_ORGANIZATION ( #859, #165 ) ;
#1197 = DIRECTION ( 'NONE',  ( -1.000000000000000000, 0.000000000000000000, 0.000000000000000000 ) ) ;
#1198 = FACE_BOUND ( 'NONE', #340, .T. ) ;
#1199 = AXIS2_PLACEMENT_3D ( 'NONE', #493, #295, #412 ) ;
#1200 = CARTESIAN_POINT ( 'NONE',  ( 432.0000000000000568, -386.0000000000002274, 580.0000000000000000 ) ) ;
#1201 = LINE ( 'NONE', #1109, #519 ) ;
#1202 = PLANE ( 'NONE',  #573 ) ;
#1203 = VECTOR ( 'NONE', #528, 1000.000000000000000 ) ;
#1204 = VECTOR ( 'NONE', #386, 1000.000000000000000 ) ;
#1205 = EDGE_LOOP ( 'NONE', ( #240, #769, #207, #1222 ) ) ;
#1206 = CARTESIAN_POINT ( 'NONE',  ( 18.00000000000014211, -1147.000000000000227, 20.00000000000001776 ) ) ;
#1207 = EDGE_LOOP ( 'NONE', ( #1051, #936, #803, #256 ) ) ;
#1208 = ADVANCED_FACE ( 'NONE', ( #1334 ), #160, .F. ) ;
#1209 = CC_DESIGN_PERSON_AND_ORGANIZATION_ASSIGNMENT ( #724, #329, ( #1354 ) ) ;
#1210 = EDGE_CURVE ( 'NONE', #258, #1144, #846, .T. ) ;
#1211 = ORIENTED_EDGE ( 'NONE', *, *, #304, .T. ) ;
#1212 = ORIENTED_EDGE ( 'NONE', *, *, #374, .T. ) ;
#1213 = DIRECTION ( 'NONE',  ( -0.000000000000000000, -0.000000000000000000, -1.000000000000000000 ) ) ;
#1214 = LOCAL_TIME ( 15, 18, 27.00000000000000000, #878 ) ;
#1215 = ADVANCED_FACE ( 'NONE', ( #120 ), #929, .F. ) ;
#1216 = LINE ( 'NONE', #389, #862 ) ;
#1217 = CARTESIAN_POINT ( 'NONE',  ( 432.0000000000000000, -18.00000000000000000, 2.000000000000000000 ) ) ;
#1218 = DIRECTION ( 'NONE',  ( -0.000000000000000000, -0.000000000000000000, -1.000000000000000000 ) ) ;
#1219 = DIRECTION ( 'NONE',  ( -1.229449654538445474E-16, 1.000000000000000000, 0.000000000000000000 ) ) ;
#1220 = DIRECTION ( 'NONE',  ( -0.000000000000000000, 1.000000000000000000, -0.000000000000000000 ) ) ;
#1221 = DIRECTION ( 'NONE',  ( -1.000000000000000000, -0.000000000000000000, -0.000000000000000000 ) ) ;
#1222 = ORIENTED_EDGE ( 'NONE', *, *, #902, .T. ) ;
#1223 = ORIENTED_EDGE ( 'NONE', *, *, #116, .F. ) ;
#1224 = DIRECTION ( 'NONE',  ( 0.000000000000000000, 0.000000000000000000, -1.000000000000000000 ) ) ;
#1225 = EDGE_LOOP ( 'NONE', ( #107, #1172, #318, #982 ) ) ;
#1226 = CARTESIAN_POINT ( 'NONE',  ( 18.00000000000000355, -2290.000000000000000, 994.3911195959683482 ) ) ;
#1227 = AXIS2_PLACEMENT_3D ( 'NONE', #1005, #163, #474 ) ;
#1228 = AXIS2_PLACEMENT_3D ( 'NONE', #10, #753, #230 ) ;
#1229 = ORIENTED_EDGE ( 'NONE', *, *, #983, .F. ) ;
#1230 = DIRECTION ( 'NONE',  ( 0.000000000000000000, -0.000000000000000000, -1.000000000000000000 ) ) ;
#1231 = CARTESIAN_POINT ( 'NONE',  ( 432.0000000000002842, -2290.000000000000000, 994.3911195959683482 ) ) ;
#1232 = LINE ( 'NONE', #320, #538 ) ;
#1233 = EDGE_CURVE ( 'NONE', #223, #1328, #1182, .T. ) ;
#1234 = VECTOR ( 'NONE', #887, 1000.000000000000000 ) ;
#1235 = DIRECTION ( 'NONE',  ( -1.000000000000000000, 0.000000000000000000, -0.000000000000000000 ) ) ;
#1236 = ORIENTED_EDGE ( 'NONE', *, *, #332, .T. ) ;
#1237 = CARTESIAN_POINT ( 'NONE',  ( 432.0000000000001705, -1528.000000000000227, 580.0000000000000000 ) ) ;
#1238 = EDGE_LOOP ( 'NONE', ( #566, #977, #308, #423 ) ) ;
#1239 = VERTEX_POINT ( 'NONE', #1034 ) ;
#1240 = EDGE_LOOP ( 'NONE', ( #1071, #1315, #1296, #720 ) ) ;
#1241 = VERTEX_POINT ( 'NONE', #1349 ) ;
#1242 = ORIENTED_EDGE ( 'NONE', *, *, #141, .T. ) ;
#1243 = CARTESIAN_POINT ( 'NONE',  ( 18.00000000000000355, -18.00000000000000000, 20.00000000000001776 ) ) ;
#1244 = EDGE_CURVE ( 'NONE', #1050, #242, #1026, .T. ) ;
#1245 = COORDINATED_UNIVERSAL_TIME_OFFSET ( 8, 0, .AHEAD. ) ;
#1246 = CARTESIAN_POINT ( 'NONE',  ( 18.00000000000029132, -368.0000000000003411, 20.00000000000000000 ) ) ;
#1247 = LINE ( 'NONE', #662, #622 ) ;
#1248 = EDGE_CURVE ( 'NONE', #872, #218, #744, .T. ) ;
#1249 = VECTOR ( 'NONE', #567, 1000.000000000000000 ) ;
#1250 = FACE_OUTER_BOUND ( 'NONE', #786, .T. ) ;
#1251 = EDGE_CURVE ( 'NONE', #965, #145, #601, .T. ) ;
#1252 = DIRECTION ( 'NONE',  ( -1.000000000000000000, -1.199463077598483474E-16, 0.000000000000000000 ) ) ;
#1253 = LINE ( 'NONE', #587, #384 ) ;
#1254 = ORIENTED_EDGE ( 'NONE', *, *, #804, .F. ) ;
#1255 = VERTEX_POINT ( 'NONE', #486 ) ;
#1256 = ORIENTED_EDGE ( 'NONE', *, *, #1244, .F. ) ;
#1257 = EDGE_CURVE ( 'NONE', #311, #980, #1061, .T. ) ;
#1258 = CARTESIAN_POINT ( 'NONE',  ( 18.00000000000000355, -18.00000000000000000, 20.00000000000001776 ) ) ;
#1259 = DIRECTION ( 'NONE',  ( 1.000000000000000000, 1.229449654538445474E-16, -0.000000000000000000 ) ) ;
#1260 = CARTESIAN_POINT ( 'NONE',  ( 432.0000000000001137, -1147.000000000000227, 20.00000000000001776 ) ) ;
#1261 = LINE ( 'NONE', #1217, #1303 ) ;
#1262 = DIRECTION ( 'NONE',  ( 0.000000000000000000, -1.000000000000000000, 0.000000000000000000 ) ) ;
#1263 = VECTOR ( 'NONE', #18, 1000.000000000000000 ) ;
#1264 = DIRECTION ( 'NONE',  ( 0.000000000000000000, -0.000000000000000000, 1.000000000000000000 ) ) ;
#1265 = LINE ( 'NONE', #1113, #974 ) ;
#1266 = VECTOR ( 'NONE', #1343, 1000.000000000000000 ) ;
#1267 = AXIS2_PLACEMENT_3D ( 'NONE', #807, #1128, #463 ) ;
#1268 = APPLICATION_PROTOCOL_DEFINITION ( 'international standard', 'config_control_design', 1994, #751 ) ;
#1269 = ORIENTED_EDGE ( 'NONE', *, *, #605, .T. ) ;
#1270 = EDGE_LOOP ( 'NONE', ( #867, #564, #687, #545 ) ) ;
#1271 = PLANE ( 'NONE',  #213 ) ;
#1272 = ORIENTED_EDGE ( 'NONE', *, *, #92, .F. ) ;
#1273 = DIRECTION ( 'NONE',  ( 1.000000000000000000, 0.000000000000000000, 0.000000000000000000 ) ) ;
#1274 = CC_DESIGN_DATE_AND_TIME_ASSIGNMENT ( #209, #1177, ( #1180 ) ) ;
#1275 = EDGE_CURVE ( 'NONE', #242, #1241, #455, .T. ) ;
#1276 = LOCAL_TIME ( 15, 18, 27.00000000000000000, #1245 ) ;
#1277 = CARTESIAN_POINT ( 'NONE',  ( 18.00000000000000355, -18.00000000000000000, 20.00000000000001776 ) ) ;
#1278 = LINE ( 'NONE', #711, #988 ) ;
#1279 = CARTESIAN_POINT ( 'NONE',  ( 18.00000000000000355, -18.00000000000000000, 580.0000000000000000 ) ) ;
#1280 = FACE_OUTER_BOUND ( 'NONE', #185, .T. ) ;
#1281 = DIRECTION ( 'NONE',  ( -1.000000000000000000, -1.199463077598483474E-16, 0.000000000000000000 ) ) ;
#1282 = VECTOR ( 'NONE', #325, 1000.000000000000000 ) ;
#1283 = EDGE_LOOP ( 'NONE', ( #260, #931, #1192, #1187 ) ) ;
#1284 = ORIENTED_EDGE ( 'NONE', *, *, #252, .T. ) ;
#1285 = EDGE_LOOP ( 'NONE', ( #222, #773, #689, #186 ) ) ;
#1286 = ORIENTED_EDGE ( 'NONE', *, *, #1210, .F. ) ;
#1287 = AXIS2_PLACEMENT_3D ( 'NONE', #515, #621, #99 ) ;
#1288 = AXIS2_PLACEMENT_3D ( 'NONE', #532, #759, #129 ) ;
#1289 = CARTESIAN_POINT ( 'NONE',  ( 432.0000000000002274, -1891.000000000000227, 20.00000000000001776 ) ) ;
#1290 = VECTOR ( 'NONE', #964, 1000.000000000000000 ) ;
#1291 = VERTEX_POINT ( 'NONE', #77 ) ;
#1292 = DIRECTION ( 'NONE',  ( 0.000000000000000000, -0.000000000000000000, 1.000000000000000000 ) ) ;
#1293 = ORIENTED_EDGE ( 'NONE', *, *, #811, .T. ) ;
#1294 = PLANE ( 'NONE',  #1007 ) ;
#1295 = EDGE_CURVE ( 'NONE', #1329, #115, #1044, .T. ) ;
#1296 = ORIENTED_EDGE ( 'NONE', *, *, #440, .T. ) ;
#1297 = VERTEX_POINT ( 'NONE', #195 ) ;
#1298 = DIRECTION ( 'NONE',  ( 1.000000000000000000, 1.229449654538445474E-16, -0.000000000000000000 ) ) ;
#1299 = ADVANCED_FACE ( 'NONE', ( #795 ), #1146, .F. ) ;
#1300 = VECTOR ( 'NONE', #1262, 1000.000000000000000 ) ;
#1301 = EDGE_CURVE ( 'NONE', #852, #478, #880, .T. ) ;
#1302 = ADVANCED_BREP_SHAPE_REPRESENTATION ( '2400-03-柜体', ( #95, #224 ), #408 ) ;
#1303 = VECTOR ( 'NONE', #1096, 1000.000000000000000 ) ;
#1304 = CARTESIAN_POINT ( 'NONE',  ( 18.00000000000009592, -766.0000000000002274, 580.0000000000000000 ) ) ;
#1305 = LINE ( 'NONE', #268, #625 ) ;
#1306 = ADVANCED_FACE ( 'NONE', ( #280 ), #1142, .F. ) ;
#1307 = DIRECTION ( 'NONE',  ( 1.199463077598483474E-16, -1.000000000000000000, 0.000000000000000000 ) ) ;
#1308 = LINE ( 'NONE', #468, #155 ) ;
#1309 = CARTESIAN_POINT ( 'NONE',  ( 18.00000000000028777, -1909.000000000000227, 994.3911195959683482 ) ) ;
#1310 = ORIENTED_EDGE ( 'NONE', *, *, #1181, .F. ) ;
#1311 = PLANE ( 'NONE',  #932 ) ;
#1312 = VERTEX_POINT ( 'NONE', #496 ) ;
#1313 = CC_DESIGN_PERSON_AND_ORGANIZATION_ASSIGNMENT ( #30, #428, ( #1180 ) ) ;
#1314 = AXIS2_PLACEMENT_3D ( 'NONE', #698, #584, #1006 ) ;
#1315 = ORIENTED_EDGE ( 'NONE', *, *, #882, .T. ) ;
#1316 = ORIENTED_EDGE ( 'NONE', *, *, #249, .T. ) ;
#1317 = ORIENTED_EDGE ( 'NONE', *, *, #933, .T. ) ;
#1318 = DIRECTION ( 'NONE',  ( 0.000000000000000000, 0.000000000000000000, -1.000000000000000000 ) ) ;
#1319 = VECTOR ( 'NONE', #589, 1000.000000000000000 ) ;
#1320 = CARTESIAN_POINT ( 'NONE',  ( 18.00000000000029132, -2350.000000000000000, 580.0000000000000000 ) ) ;
#1321 = EDGE_CURVE ( 'NONE', #1297, #203, #1165, .T. ) ;
#1322 = PLANE ( 'NONE',  #552 ) ;
#1323 = CARTESIAN_POINT ( 'NONE',  ( 432.0000000000002842, -2350.000000000000000, 20.00000000000001776 ) ) ;
#1324 = VECTOR ( 'NONE', #1197, 1000.000000000000000 ) ;
#1325 = FACE_OUTER_BOUND ( 'NONE', #1205, .T. ) ;
#1326 = DIRECTION ( 'NONE',  ( 1.000000000000000000, 0.000000000000000000, 0.000000000000000000 ) ) ;
#1327 = ORIENTED_EDGE ( 'NONE', *, *, #304, .F. ) ;
#1328 = VERTEX_POINT ( 'NONE', #1359 ) ;
#1329 = VERTEX_POINT ( 'NONE', #200 ) ;
#1330 = CARTESIAN_POINT ( 'NONE',  ( 432.0000000000000000, -368.0000000000002274, 580.0000000000000000 ) ) ;
#1331 = CARTESIAN_POINT ( 'NONE',  ( 0.000000000000000000, 0.000000000000000000, 20.00000000000000000 ) ) ;
#1332 = PLANE ( 'NONE',  #1314 ) ;
#1333 = DIRECTION ( 'NONE',  ( 0.000000000000000000, 1.000000000000000000, 0.000000000000000000 ) ) ;
#1334 = FACE_OUTER_BOUND ( 'NONE', #61, .T. ) ;
#1335 = LINE ( 'NONE', #1279, #488 ) ;
#1336 = APPROVAL ( #121, '未指定' ) ;
#1337 = EDGE_CURVE ( 'NONE', #89, #1358, #1278, .T. ) ;
#1338 = LINE ( 'NONE', #27, #123 ) ;
#1339 = CARTESIAN_POINT ( 'NONE',  ( 2.877919977996280525E-13, -2350.000000000000000, 0.000000000000000000 ) ) ;
#1340 = VECTOR ( 'NONE', #906, 1000.000000000000000 ) ;
#1341 = DIRECTION ( 'NONE',  ( -1.000000000000000000, -1.181088324069315448E-16, 0.000000000000000000 ) ) ;
#1342 = ORIENTED_EDGE ( 'NONE', *, *, #399, .F. ) ;
#1343 = DIRECTION ( 'NONE',  ( -0.000000000000000000, -0.000000000000000000, -1.000000000000000000 ) ) ;
#1344 = EDGE_CURVE ( 'NONE', #871, #434, #246, .T. ) ;
#1345 = ORIENTED_EDGE ( 'NONE', *, *, #1257, .F. ) ;
#1346 = DIRECTION ( 'NONE',  ( -1.229449654538445474E-16, 1.000000000000000000, 0.000000000000000000 ) ) ;
#1347 = DIRECTION ( 'NONE',  ( 1.199463077598483474E-16, -1.000000000000000000, 0.000000000000000000 ) ) ;
#1348 = VECTOR ( 'NONE', #1028, 1000.000000000000000 ) ;
#1349 = CARTESIAN_POINT ( 'NONE',  ( 0.000000000000000000, 0.000000000000000000, 580.0000000000000000 ) ) ;
#1350 = FACE_OUTER_BOUND ( 'NONE', #255, .T. ) ;
#1351 = DESIGN_CONTEXT ( 'detailed design', #417, 'design' ) ;
#1352 = LINE ( 'NONE', #477, #661 ) ;
#1353 = LINE ( 'NONE', #1339, #927 ) ;
#1354 = PRODUCT_DEFINITION_FORMATION_WITH_SPECIFIED_SOURCE ( '任何', '', #770, .NOT_KNOWN. ) ;
#1355 = EDGE_CURVE ( 'NONE', #1155, #1108, #710, .T. ) ;
#1356 = ORIENTED_EDGE ( 'NONE', *, *, #600, .T. ) ;
#1357 = ORIENTED_EDGE ( 'NONE', *, *, #233, .F. ) ;
#1358 = VERTEX_POINT ( 'NONE', #745 ) ;
#1359 = CARTESIAN_POINT ( 'NONE',  ( 18.00000000000028422, -2290.000000000000000, 20.00000000000001776 ) ) ;
#1360 = ORIENTED_EDGE ( 'NONE', *, *, #66, .T. ) ;
#1361 = EDGE_CURVE ( 'NONE', #93, #60, #952, .T. ) ;
#1362 = DIRECTION ( 'NONE',  ( -0.000000000000000000, -0.000000000000000000, -1.000000000000000000 ) ) ;
#1363 = COORDINATED_UNIVERSAL_TIME_OFFSET ( 8, 0, .AHEAD. ) ;
ENDSEC;
END-ISO-10303-21;
