ISO-10303-21;
HEADER;
FILE_DESCRIPTION (( 'STEP AP203' ),
    '1' );
FILE_NAME ('侧门顶柜02.STEP',
    '2026-06-01T02:04:01',
    ( 'Windows 用户' ),
    ( 'Microsoft' ),
    'SwSTEP 2.0',
    'SolidWorks 2018',
    '' );
FILE_SCHEMA (( 'CONFIG_CONTROL_DESIGN' ));
ENDSEC;

DATA;
#1 = CARTESIAN_POINT ( 'NONE',  ( 432.0000000000000000, -18.00000000000000000, 580.0000000000000000 ) ) ;
#2 = EDGE_CURVE ( 'NONE', #51, #277, #73, .T. ) ;
#3 = PLANE ( 'NONE',  #316 ) ;
#4 = DIRECTION ( 'NONE',  ( 0.000000000000000000, 0.000000000000000000, 1.000000000000000000 ) ) ;
#5 = DIRECTION ( 'NONE',  ( -0.000000000000000000, -0.000000000000000000, -1.000000000000000000 ) ) ;
#6 = LINE ( 'NONE', #345, #501 ) ;
#7 = EDGE_LOOP ( 'NONE', ( #88, #457, #318, #132 ) ) ;
#8 = EDGE_CURVE ( 'NONE', #51, #125, #184, .T. ) ;
#9 = ORIENTED_EDGE ( 'NONE', *, *, #285, .F. ) ;
#10 = PLANE ( 'NONE',  #459 ) ;
#11 = DIRECTION ( 'NONE',  ( -0.000000000000000000, -0.000000000000000000, -1.000000000000000000 ) ) ;
#12 = ORIENTED_EDGE ( 'NONE', *, *, #512, .F. ) ;
#13 = EDGE_LOOP ( 'NONE', ( #521, #98, #437, #304 ) ) ;
#14 = EDGE_CURVE ( 'NONE', #125, #404, #209, .T. ) ;
#15 = CC_DESIGN_PERSON_AND_ORGANIZATION_ASSIGNMENT ( #261, #475, ( #84 ) ) ;
#16 = CARTESIAN_POINT ( 'NONE',  ( 0.000000000000000000, 0.000000000000000000, 0.000000000000000000 ) ) ;
#17 = COORDINATED_UNIVERSAL_TIME_OFFSET ( 8, 0, .AHEAD. ) ;
#18 = LINE ( 'NONE', #443, #387 ) ;
#19 = EDGE_LOOP ( 'NONE', ( #287, #223, #12, #392 ) ) ;
#20 = DIRECTION ( 'NONE',  ( -0.000000000000000000, -0.000000000000000000, -1.000000000000000000 ) ) ;
#21 = CARTESIAN_POINT ( 'NONE',  ( 18.00000000000005684, -482.0000000000000000, 580.0000000000000000 ) ) ;
#22 = CARTESIAN_POINT ( 'NONE',  ( 450.0000000000000000, 0.000000000000000000, 0.000000000000000000 ) ) ;
#23 = PERSON_AND_ORGANIZATION_ROLE ( 'creator' ) ;
#24 = ADVANCED_FACE ( 'NONE', ( #510 ), #128, .T. ) ;
#25 = DIRECTION ( 'NONE',  ( -1.000000000000000000, 0.000000000000000000, 0.000000000000000000 ) ) ;
#26 = CALENDAR_DATE ( 2026, 1, 6 ) ;
#27 = LINE ( 'NONE', #71, #130 ) ;
#28 = APPROVAL_ROLE ( '' ) ;
#29 = ORIENTED_EDGE ( 'NONE', *, *, #156, .T. ) ;
#30 = ORIENTED_EDGE ( 'NONE', *, *, #306, .F. ) ;
#31 = ORIENTED_EDGE ( 'NONE', *, *, #320, .F. ) ;
#32 = DIRECTION ( 'NONE',  ( 0.000000000000000000, -1.000000000000000000, 0.000000000000000000 ) ) ;
#33 = PERSON_AND_ORGANIZATION ( #114, #513 ) ;
#34 = VECTOR ( 'NONE', #54, 1000.000000000000000 ) ;
#35 = ORIENTED_EDGE ( 'NONE', *, *, #221, .T. ) ;
#36 = DIRECTION ( 'NONE',  ( 1.110223024625156540E-16, -1.000000000000000000, 0.000000000000000000 ) ) ;
#37 = CARTESIAN_POINT ( 'NONE',  ( 0.000000000000000000, 0.000000000000000000, 580.0000000000000000 ) ) ;
#38 = AXIS2_PLACEMENT_3D ( 'NONE', #283, #81, #36 ) ;
#39 = APPROVAL_PERSON_ORGANIZATION ( #63, #469, #76 ) ;
#40 = FACE_OUTER_BOUND ( 'NONE', #486, .T. ) ;
#41 = CARTESIAN_POINT ( 'NONE',  ( 450.0000000000000000, 0.000000000000000000, 580.0000000000000000 ) ) ;
#42 = LINE ( 'NONE', #252, #269 ) ;
#43 = EDGE_CURVE ( 'NONE', #236, #451, #270, .T. ) ;
#44 = ORIENTED_EDGE ( 'NONE', *, *, #75, .F. ) ;
#45 = PLANE ( 'NONE',  #374 ) ;
#46 = PLANE ( 'NONE',  #349 ) ;
#47 = EDGE_CURVE ( 'NONE', #125, #279, #168, .T. ) ;
#48 = DIRECTION ( 'NONE',  ( -1.000000000000000000, 0.000000000000000000, 0.000000000000000000 ) ) ;
#49 = CARTESIAN_POINT ( 'NONE',  ( 0.000000000000000000, 0.000000000000000000, 580.0000000000000000 ) ) ;
#50 = EDGE_LOOP ( 'NONE', ( #441, #333, #450, #354 ) ) ;
#51 = VERTEX_POINT ( 'NONE', #172 ) ;
#52 = EDGE_CURVE ( 'NONE', #124, #515, #359, .T. ) ;
#53 = DIRECTION ( 'NONE',  ( -1.000000000000000000, -1.196361017915039486E-16, 0.000000000000000000 ) ) ;
#54 = DIRECTION ( 'NONE',  ( -0.000000000000000000, -0.000000000000000000, -1.000000000000000000 ) ) ;
#55 = CC_DESIGN_PERSON_AND_ORGANIZATION_ASSIGNMENT ( #462, #153, ( #507 ) ) ;
#56 = CARTESIAN_POINT ( 'NONE',  ( 18.00000000000000355, -18.00000000000000000, 580.0000000000000000 ) ) ;
#57 = LINE ( 'NONE', #265, #429 ) ;
#58 = LINE ( 'NONE', #49, #234 ) ;
#59 = CARTESIAN_POINT ( 'NONE',  ( 450.0000000000000000, 0.000000000000000000, 580.0000000000000000 ) ) ;
#60 =( GEOMETRIC_REPRESENTATION_CONTEXT ( 3 ) GLOBAL_UNCERTAINTY_ASSIGNED_CONTEXT ( ( #266 ) ) GLOBAL_UNIT_ASSIGNED_CONTEXT ( ( #231, #350, #427 ) ) REPRESENTATION_CONTEXT ( 'NONE', 'WORKASPACE' ) );
#61 = DIRECTION ( 'NONE',  ( -0.000000000000000000, -0.000000000000000000, -1.000000000000000000 ) ) ;
#62 = CC_DESIGN_DATE_AND_TIME_ASSIGNMENT ( #165, #308, ( #507 ) ) ;
#63 = PERSON_AND_ORGANIZATION ( #114, #513 ) ;
#64 = LINE ( 'NONE', #213, #371 ) ;
#65 = APPROVAL_ROLE ( '' ) ;
#66 = CC_DESIGN_APPROVAL ( #302, ( #91 ) ) ;
#67 = DIRECTION ( 'NONE',  ( 1.000000000000000000, 1.224646799147353207E-16, -0.000000000000000000 ) ) ;
#68 = EDGE_CURVE ( 'NONE', #515, #397, #64, .T. ) ;
#69 = CALENDAR_DATE ( 2026, 1, 6 ) ;
#70 = LINE ( 'NONE', #207, #463 ) ;
#71 = CARTESIAN_POINT ( 'NONE',  ( 0.000000000000000000, 0.000000000000000000, 580.0000000000000000 ) ) ;
#72 = ADVANCED_FACE ( 'NONE', ( #262 ), #46, .T. ) ;
#73 = LINE ( 'NONE', #516, #471 ) ;
#74 = DATE_TIME_ROLE ( 'creation_date' ) ;
#75 = EDGE_CURVE ( 'NONE', #342, #343, #310, .T. ) ;
#76 = APPROVAL_ROLE ( '' ) ;
#77 = AXIS2_PLACEMENT_3D ( 'NONE', #105, #67, #113 ) ;
#78 = FACE_OUTER_BOUND ( 'NONE', #473, .T. ) ;
#79 = ORIENTED_EDGE ( 'NONE', *, *, #416, .F. ) ;
#80 = CALENDAR_DATE ( 2026, 1, 6 ) ;
#81 = DIRECTION ( 'NONE',  ( -1.000000000000000000, -1.110223024625156540E-16, 0.000000000000000000 ) ) ;
#82 = LINE ( 'NONE', #59, #423 ) ;
#83 = VERTEX_POINT ( 'NONE', #174 ) ;
#84 = PRODUCT_DEFINITION ( '未知', '', #91, #449 ) ;
#85 = VECTOR ( 'NONE', #499, 1000.000000000000000 ) ;
#86 = DIRECTION ( 'NONE',  ( 1.000000000000000000, 0.000000000000000000, 0.000000000000000000 ) ) ;
#87 = VECTOR ( 'NONE', #488, 1000.000000000000000 ) ;
#88 = ORIENTED_EDGE ( 'NONE', *, *, #477, .F. ) ;
#89 = DIRECTION ( 'NONE',  ( 1.000000000000000000, 0.000000000000000000, 0.000000000000000000 ) ) ;
#90 = ORIENTED_EDGE ( 'NONE', *, *, #416, .T. ) ;
#91 = PRODUCT_DEFINITION_FORMATION_WITH_SPECIFIED_SOURCE ( '任何', '', #193, .NOT_KNOWN. ) ;
#92 = DIRECTION ( 'NONE',  ( -0.000000000000000000, 0.000000000000000000, -1.000000000000000000 ) ) ;
#93 = CARTESIAN_POINT ( 'NONE',  ( 18.00000000000011369, -18.00000000000000000, 2.000000000000000000 ) ) ;
#94 = FACE_OUTER_BOUND ( 'NONE', #326, .T. ) ;
#95 = FACE_BOUND ( 'NONE', #7, .T. ) ;
#96 = AXIS2_PLACEMENT_3D ( 'NONE', #167, #370, #335 ) ;
#97 = DIRECTION ( 'NONE',  ( 0.000000000000000000, -0.000000000000000000, -1.000000000000000000 ) ) ;
#98 = ORIENTED_EDGE ( 'NONE', *, *, #230, .F. ) ;
#99 = CARTESIAN_POINT ( 'NONE',  ( 450.0000000000000568, -500.0000000000000000, 0.000000000000000000 ) ) ;
#100 = FACE_OUTER_BOUND ( 'NONE', #355, .T. ) ;
#101 = VECTOR ( 'NONE', #517, 1000.000000000000000 ) ;
#102 = CARTESIAN_POINT ( 'NONE',  ( 0.000000000000000000, 0.000000000000000000, 580.0000000000000000 ) ) ;
#103 = ORIENTED_EDGE ( 'NONE', *, *, #278, .T. ) ;
#104 = CC_DESIGN_APPROVAL ( #483, ( #84 ) ) ;
#105 = CARTESIAN_POINT ( 'NONE',  ( 0.000000000000000000, 0.000000000000000000, 580.0000000000000000 ) ) ;
#106 = CC_DESIGN_DATE_AND_TIME_ASSIGNMENT ( #489, #74, ( #84 ) ) ;
#107 = LOCAL_TIME ( 10, 4, 1.000000000000000000, #119 ) ;
#108 = LINE ( 'NONE', #41, #258 ) ;
#109 = ORIENTED_EDGE ( 'NONE', *, *, #68, .T. ) ;
#110 = APPLICATION_CONTEXT ( 'configuration controlled 3d designs of mechanical parts and assemblies' ) ;
#111 = ADVANCED_FACE ( 'NONE', ( #78 ), #3, .T. ) ;
#112 = ORIENTED_EDGE ( 'NONE', *, *, #477, .T. ) ;
#113 = DIRECTION ( 'NONE',  ( -1.224646799147353207E-16, 1.000000000000000000, 0.000000000000000000 ) ) ;
#114 = PERSON ( '未指定', '未指定', '未指定', ('未指定'), ('未指定'), ('未指定') ) ;
#115 = FACE_OUTER_BOUND ( 'NONE', #117, .T. ) ;
#116 = CC_DESIGN_SECURITY_CLASSIFICATION ( #507, ( #91 ) ) ;
#117 = EDGE_LOOP ( 'NONE', ( #426, #259, #297, #112 ) ) ;
#118 = ADVANCED_FACE ( 'NONE', ( #340, #95 ), #170, .T. ) ;
#119 = COORDINATED_UNIVERSAL_TIME_OFFSET ( 8, 0, .AHEAD. ) ;
#120 = ADVANCED_FACE ( 'NONE', ( #403 ), #45, .F. ) ;
#121 = VECTOR ( 'NONE', #341, 1000.000000000000000 ) ;
#122 = ORIENTED_EDGE ( 'NONE', *, *, #52, .T. ) ;
#123 = DIRECTION ( 'NONE',  ( -0.000000000000000000, -0.000000000000000000, -1.000000000000000000 ) ) ;
#124 = VERTEX_POINT ( 'NONE', #414 ) ;
#125 = VERTEX_POINT ( 'NONE', #367 ) ;
#126 = AXIS2_PLACEMENT_3D ( 'NONE', #291, #458, #290 ) ;
#127 = DIRECTION ( 'NONE',  ( 1.000000000000000000, 0.000000000000000000, 0.000000000000000000 ) ) ;
#128 = PLANE ( 'NONE',  #487 ) ;
#129 = DIRECTION ( 'NONE',  ( 1.196361017915039486E-16, -1.000000000000000000, 0.000000000000000000 ) ) ;
#130 = VECTOR ( 'NONE', #500, 1000.000000000000000 ) ;
#131 = ORIENTED_EDGE ( 'NONE', *, *, #144, .F. ) ;
#132 = ORIENTED_EDGE ( 'NONE', *, *, #405, .F. ) ;
#133 = ORIENTED_EDGE ( 'NONE', *, *, #320, .T. ) ;
#134 = CARTESIAN_POINT ( 'NONE',  ( 432.0000000000000568, -482.0000000000000000, 580.0000000000000000 ) ) ;
#135 = VECTOR ( 'NONE', #494, 1000.000000000000000 ) ;
#136 = DIRECTION ( 'NONE',  ( 0.000000000000000000, 1.000000000000000000, -0.000000000000000000 ) ) ;
#137 = VERTEX_POINT ( 'NONE', #134 ) ;
#138 = DIRECTION ( 'NONE',  ( 0.000000000000000000, -0.000000000000000000, -1.000000000000000000 ) ) ;
#139 = DIRECTION ( 'NONE',  ( 0.000000000000000000, 1.000000000000000000, 0.000000000000000000 ) ) ;
#140 = CARTESIAN_POINT ( 'NONE',  ( 0.000000000000000000, 0.000000000000000000, 0.000000000000000000 ) ) ;
#141 = FACE_OUTER_BOUND ( 'NONE', #13, .T. ) ;
#142 = ORIENTED_EDGE ( 'NONE', *, *, #385, .T. ) ;
#143 = ORIENTED_EDGE ( 'NONE', *, *, #230, .T. ) ;
#144 = EDGE_CURVE ( 'NONE', #446, #222, #58, .T. ) ;
#145 = ORIENTED_EDGE ( 'NONE', *, *, #75, .T. ) ;
#146 = CARTESIAN_POINT ( 'NONE',  ( 18.00000000000011369, -18.00000000000000000, -0.000000000000000000 ) ) ;
#147 = APPROVAL_PERSON_ORGANIZATION ( #214, #302, #65 ) ;
#148 = ORIENTED_EDGE ( 'NONE', *, *, #337, .T. ) ;
#149 = EDGE_CURVE ( 'NONE', #366, #250, #482, .T. ) ;
#150 = APPLICATION_CONTEXT ( 'configuration controlled 3d designs of mechanical parts and assemblies' ) ;
#151 = COORDINATED_UNIVERSAL_TIME_OFFSET ( 8, 0, .AHEAD. ) ;
#152 = VECTOR ( 'NONE', #409, 1000.000000000000000 ) ;
#153 = PERSON_AND_ORGANIZATION_ROLE ( 'classification_officer' ) ;
#154 = ORIENTED_EDGE ( 'NONE', *, *, #162, .F. ) ;
#155 = ORIENTED_EDGE ( 'NONE', *, *, #324, .T. ) ;
#156 = EDGE_CURVE ( 'NONE', #451, #250, #42, .T. ) ;
#157 = ADVANCED_FACE ( 'NONE', ( #502 ), #447, .F. ) ;
#158 = CALENDAR_DATE ( 2026, 1, 6 ) ;
#159 = ORIENTED_EDGE ( 'NONE', *, *, #149, .T. ) ;
#160 = DIRECTION ( 'NONE',  ( 1.000000000000000000, 1.196361017915039486E-16, -0.000000000000000000 ) ) ;
#161 = CLOSED_SHELL ( 'NONE', ( #24, #442, #72, #191, #118, #478, #312, #197, #399, #305, #157, #440, #120, #307, #389, #111 ) ) ;
#162 = EDGE_CURVE ( 'NONE', #404, #498, #402, .T. ) ;
#163 = CARTESIAN_POINT ( 'NONE',  ( 18.00000000000000355, -18.00000000000000000, 580.0000000000000000 ) ) ;
#164 = DIRECTION ( 'NONE',  ( 1.196361017915039486E-16, 1.000000000000000000, -0.000000000000000000 ) ) ;
#165 = DATE_AND_TIME ( #69, #428 ) ;
#166 = VECTOR ( 'NONE', #321, 1000.000000000000000 ) ;
#167 = CARTESIAN_POINT ( 'NONE',  ( 432.0000000000000000, -18.00000000000000000, 2.000000000000000000 ) ) ;
#168 = LINE ( 'NONE', #242, #189 ) ;
#169 = EDGE_CURVE ( 'NONE', #336, #222, #70, .T. ) ;
#170 = PLANE ( 'NONE',  #390 ) ;
#171 = PRODUCT_RELATED_PRODUCT_CATEGORY ( 'detail', '', ( #193 ) ) ;
#172 = CARTESIAN_POINT ( 'NONE',  ( 432.0000000000000000, -482.0000000000000000, 2.000000000000000000 ) ) ;
#173 = PERSON_AND_ORGANIZATION ( #114, #513 ) ;
#174 = CARTESIAN_POINT ( 'NONE',  ( 432.0000000000000568, -482.0000000000000000, 20.00000000000001776 ) ) ;
#175 = ORIENTED_EDGE ( 'NONE', *, *, #334, .F. ) ;
#176 = ORIENTED_EDGE ( 'NONE', *, *, #169, .T. ) ;
#177 = CARTESIAN_POINT ( 'NONE',  ( 18.00000000000000355, -18.00000000000000000, 20.00000000000001776 ) ) ;
#178 = LINE ( 'NONE', #206, #195 ) ;
#179 = EDGE_CURVE ( 'NONE', #250, #336, #481, .T. ) ;
#180 = VERTEX_POINT ( 'NONE', #212 ) ;
#181 = CARTESIAN_POINT ( 'NONE',  ( 432.0000000000000000, -18.00000000000000000, 2.000000000000000000 ) ) ;
#182 = DIRECTION ( 'NONE',  ( 1.000000000000000000, -0.000000000000000000, -0.000000000000000000 ) ) ;
#183 = EDGE_CURVE ( 'NONE', #372, #336, #82, .T. ) ;
#184 = LINE ( 'NONE', #398, #101 ) ;
#185 = ORIENTED_EDGE ( 'NONE', *, *, #43, .T. ) ;
#186 = CARTESIAN_POINT ( 'NONE',  ( 432.0000000000000000, -18.00000000000000000, -0.000000000000000000 ) ) ;
#187 = DIRECTION ( 'NONE',  ( -1.196361017915039486E-16, -1.000000000000000000, 0.000000000000000000 ) ) ;
#188 = VECTOR ( 'NONE', #357, 1000.000000000000000 ) ;
#189 = VECTOR ( 'NONE', #164, 1000.000000000000000 ) ;
#190 = DIRECTION ( 'NONE',  ( 1.000000000000000000, 0.000000000000000000, 0.000000000000000000 ) ) ;
#191 = ADVANCED_FACE ( 'NONE', ( #94 ), #215, .T. ) ;
#192 = DIRECTION ( 'NONE',  ( 0.000000000000000000, 0.000000000000000000, 1.000000000000000000 ) ) ;
#193 = PRODUCT ( '侧门顶柜02', '侧门顶柜02', '', ( #388 ) ) ;
#194 = CARTESIAN_POINT ( 'NONE',  ( 18.00000000000005684, -482.0000000000000000, 20.00000000000001776 ) ) ;
#195 = VECTOR ( 'NONE', #314, 1000.000000000000000 ) ;
#196 = EDGE_LOOP ( 'NONE', ( #217, #353, #511, #29 ) ) ;
#197 = ADVANCED_FACE ( 'NONE', ( #100 ), #10, .F. ) ;
#198 = ORIENTED_EDGE ( 'NONE', *, *, #334, .T. ) ;
#199 = DIRECTION ( 'NONE',  ( -1.000000000000000000, -0.000000000000000000, -0.000000000000000000 ) ) ;
#200 = CALENDAR_DATE ( 2026, 1, 6 ) ;
#201 = PLANE ( 'NONE',  #96 ) ;
#202 = VECTOR ( 'NONE', #273, 1000.000000000000000 ) ;
#203 = VERTEX_POINT ( 'NONE', #421 ) ;
#204 = AXIS2_PLACEMENT_3D ( 'NONE', #102, #381, #138 ) ;
#205 = ORIENTED_EDGE ( 'NONE', *, *, #472, .F. ) ;
#206 = CARTESIAN_POINT ( 'NONE',  ( 432.0000000000000000, -18.00000000000000000, 580.0000000000000000 ) ) ;
#207 = CARTESIAN_POINT ( 'NONE',  ( 0.000000000000000000, 0.000000000000000000, 0.000000000000000000 ) ) ;
#208 = LINE ( 'NONE', #509, #476 ) ;
#209 = LINE ( 'NONE', #317, #379 ) ;
#210 = EDGE_LOOP ( 'NONE', ( #148, #30, #31, #505 ) ) ;
#211 = DIRECTION ( 'NONE',  ( 1.196361017915039486E-16, -1.000000000000000000, 0.000000000000000000 ) ) ;
#212 = CARTESIAN_POINT ( 'NONE',  ( 432.0000000000000000, -18.00000000000000000, 2.000000000000000000 ) ) ;
#213 = CARTESIAN_POINT ( 'NONE',  ( 18.00000000000005684, -482.0000000000000000, 580.0000000000000000 ) ) ;
#214 = PERSON_AND_ORGANIZATION ( #114, #513 ) ;
#215 = PLANE ( 'NONE',  #241 ) ;
#216 = FACE_OUTER_BOUND ( 'NONE', #424, .T. ) ;
#217 = ORIENTED_EDGE ( 'NONE', *, *, #179, .T. ) ;
#218 = CARTESIAN_POINT ( 'NONE',  ( 18.00000000000000355, -18.00000000000000000, 20.00000000000001776 ) ) ;
#219 = CARTESIAN_POINT ( 'NONE',  ( 0.000000000000000000, 0.000000000000000000, 0.000000000000000000 ) ) ;
#220 = LINE ( 'NONE', #186, #407 ) ;
#221 = EDGE_CURVE ( 'NONE', #180, #203, #444, .T. ) ;
#222 = VERTEX_POINT ( 'NONE', #140 ) ;
#223 = ORIENTED_EDGE ( 'NONE', *, *, #400, .T. ) ;
#224 = PERSON_AND_ORGANIZATION ( #114, #513 ) ;
#225 = VECTOR ( 'NONE', #182, 1000.000000000000000 ) ;
#226 = PERSON_AND_ORGANIZATION_ROLE ( 'design_supplier' ) ;
#227 = PLANE ( 'NONE',  #77 ) ;
#228 = EDGE_LOOP ( 'NONE', ( #382, #243, #263, #44 ) ) ;
#229 = DIRECTION ( 'NONE',  ( -1.000000000000000000, 1.196361017915039486E-16, 0.000000000000000000 ) ) ;
#230 = EDGE_CURVE ( 'NONE', #279, #498, #436, .T. ) ;
#231 =( LENGTH_UNIT ( ) NAMED_UNIT ( * ) SI_UNIT ( .MILLI., .METRE. ) );
#232 = VECTOR ( 'NONE', #412, 1000.000000000000000 ) ;
#233 = PLANE ( 'NONE',  #480 ) ;
#234 = VECTOR ( 'NONE', #368, 1000.000000000000000 ) ;
#235 = CARTESIAN_POINT ( 'NONE',  ( 18.00000000000000355, -18.00000000000000000, 20.00000000000001776 ) ) ;
#236 = VERTEX_POINT ( 'NONE', #377 ) ;
#237 = DIRECTION ( 'NONE',  ( 0.000000000000000000, -0.000000000000000000, -1.000000000000000000 ) ) ;
#238 = ADVANCED_BREP_SHAPE_REPRESENTATION ( '侧门顶柜02', ( #274, #356 ), #60 ) ;
#239 = APPROVAL_DATE_TIME ( #313, #483 ) ;
#240 = FACE_BOUND ( 'NONE', #420, .T. ) ;
#241 = AXIS2_PLACEMENT_3D ( 'NONE', #56, #496, #97 ) ;
#242 = CARTESIAN_POINT ( 'NONE',  ( 18.00000000000011369, -18.00000000000000000, 2.000000000000000000 ) ) ;
#243 = ORIENTED_EDGE ( 'NONE', *, *, #408, .F. ) ;
#244 = CARTESIAN_POINT ( 'NONE',  ( 6.123233995736766243E-14, -500.0000000000000000, 580.0000000000000000 ) ) ;
#245 = CARTESIAN_POINT ( 'NONE',  ( 18.00000000000005684, -482.0000000000000000, 20.00000000000001776 ) ) ;
#246 = LINE ( 'NONE', #344, #378 ) ;
#247 = ORIENTED_EDGE ( 'NONE', *, *, #47, .T. ) ;
#248 = AXIS2_PLACEMENT_3D ( 'NONE', #383, #229, #187 ) ;
#249 = DIRECTION ( 'NONE',  ( -0.000000000000000000, -0.000000000000000000, -1.000000000000000000 ) ) ;
#250 = VERTEX_POINT ( 'NONE', #99 ) ;
#251 = CARTESIAN_POINT ( 'NONE',  ( 0.000000000000000000, 0.000000000000000000, 580.0000000000000000 ) ) ;
#252 = CARTESIAN_POINT ( 'NONE',  ( 450.0000000000000568, -500.0000000000000000, 580.0000000000000000 ) ) ;
#253 = EDGE_CURVE ( 'NONE', #203, #277, #322, .T. ) ;
#254 = VECTOR ( 'NONE', #127, 1000.000000000000000 ) ;
#255 = ORIENTED_EDGE ( 'NONE', *, *, #285, .T. ) ;
#256 = PLANE ( 'NONE',  #126 ) ;
#257 = DIRECTION ( 'NONE',  ( 0.000000000000000000, -0.000000000000000000, 1.000000000000000000 ) ) ;
#258 = VECTOR ( 'NONE', #361, 1000.000000000000000 ) ;
#259 = ORIENTED_EDGE ( 'NONE', *, *, #408, .T. ) ;
#260 = CARTESIAN_POINT ( 'NONE',  ( 18.00000000000011369, -18.00000000000000000, 2.000000000000000000 ) ) ;
#261 = PERSON_AND_ORGANIZATION ( #114, #513 ) ;
#262 = FACE_OUTER_BOUND ( 'NONE', #19, .T. ) ;
#263 = ORIENTED_EDGE ( 'NONE', *, *, #400, .F. ) ;
#264 = APPLICATION_PROTOCOL_DEFINITION ( 'international standard', 'config_control_design', 1994, #110 ) ;
#265 = CARTESIAN_POINT ( 'NONE',  ( 432.0000000000000000, -18.00000000000000000, 2.000000000000000000 ) ) ;
#266 = UNCERTAINTY_MEASURE_WITH_UNIT (LENGTH_MEASURE( 1.000000000000000082E-05 ), #231, 'distance_accuracy_value', 'NONE');
#267 = DIRECTION ( 'NONE',  ( 1.000000000000000000, 0.000000000000000000, 0.000000000000000000 ) ) ;
#268 = PRODUCT_DEFINITION_SHAPE ( 'NONE', 'NONE',  #84 ) ;
#269 = VECTOR ( 'NONE', #5, 1000.000000000000000 ) ;
#270 = LINE ( 'NONE', #244, #254 ) ;
#271 = DIRECTION ( 'NONE',  ( 0.000000000000000000, -1.000000000000000000, 0.000000000000000000 ) ) ;
#272 = ORIENTED_EDGE ( 'NONE', *, *, #385, .F. ) ;
#273 = DIRECTION ( 'NONE',  ( -0.000000000000000000, -0.000000000000000000, -1.000000000000000000 ) ) ;
#274 = MANIFOLD_SOLID_BREP ( '切除-拉伸1', #161 ) ;
#275 = APPROVAL_DATE_TIME ( #358, #302 ) ;
#276 = CARTESIAN_POINT ( 'NONE',  ( 450.0000000000000000, 0.000000000000000000, 580.0000000000000000 ) ) ;
#277 = VERTEX_POINT ( 'NONE', #465 ) ;
#278 = EDGE_CURVE ( 'NONE', #397, #342, #332, .T. ) ;
#279 = VERTEX_POINT ( 'NONE', #260 ) ;
#280 = DIRECTION ( 'NONE',  ( -1.196361017915039486E-16, 1.000000000000000000, 0.000000000000000000 ) ) ;
#281 = SHAPE_DEFINITION_REPRESENTATION ( #268, #238 ) ;
#282 = LINE ( 'NONE', #375, #225 ) ;
#283 = CARTESIAN_POINT ( 'NONE',  ( 450.0000000000000000, 0.000000000000000000, 580.0000000000000000 ) ) ;
#284 = ORIENTED_EDGE ( 'NONE', *, *, #2, .F. ) ;
#285 = EDGE_CURVE ( 'NONE', #279, #180, #282, .T. ) ;
#286 = CARTESIAN_POINT ( 'NONE',  ( 0.000000000000000000, 0.000000000000000000, 2.000000000000000000 ) ) ;
#287 = ORIENTED_EDGE ( 'NONE', *, *, #472, .T. ) ;
#288 = ORIENTED_EDGE ( 'NONE', *, *, #298, .T. ) ;
#289 = CARTESIAN_POINT ( 'NONE',  ( 18.00000000000011369, -18.00000000000000000, -0.000000000000000000 ) ) ;
#290 = DIRECTION ( 'NONE',  ( 0.000000000000000000, -0.000000000000000000, 1.000000000000000000 ) ) ;
#291 = CARTESIAN_POINT ( 'NONE',  ( 18.00000000000005684, -482.0000000000000000, 580.0000000000000000 ) ) ;
#292 = FACE_OUTER_BOUND ( 'NONE', #196, .T. ) ;
#293 = VECTOR ( 'NONE', #484, 1000.000000000000000 ) ;
#294 = DIRECTION ( 'NONE',  ( -0.000000000000000000, -0.000000000000000000, -1.000000000000000000 ) ) ;
#295 = AXIS2_PLACEMENT_3D ( 'NONE', #219, #495, #267 ) ;
#296 = LINE ( 'NONE', #37, #514 ) ;
#297 = ORIENTED_EDGE ( 'NONE', *, *, #68, .F. ) ;
#298 = EDGE_CURVE ( 'NONE', #124, #342, #246, .T. ) ;
#299 = APPLICATION_PROTOCOL_DEFINITION ( 'international standard', 'config_control_design', 1994, #150 ) ;
#300 = APPROVAL_STATUS ( 'not_yet_approved' ) ;
#301 = LOCAL_TIME ( 10, 4, 1.000000000000000000, #17 ) ;
#302 = APPROVAL ( #391, '未指定' ) ;
#303 = LINE ( 'NONE', #245, #166 ) ;
#304 = ORIENTED_EDGE ( 'NONE', *, *, #14, .T. ) ;
#305 = ADVANCED_FACE ( 'NONE', ( #456 ), #419, .F. ) ;
#306 = EDGE_CURVE ( 'NONE', #236, #366, #6, .T. ) ;
#307 = ADVANCED_FACE ( 'NONE', ( #141 ), #460, .F. ) ;
#308 = DATE_TIME_ROLE ( 'classification_date' ) ;
#309 = FACE_OUTER_BOUND ( 'NONE', #210, .T. ) ;
#310 = LINE ( 'NONE', #177, #410 ) ;
#311 = ORIENTED_EDGE ( 'NONE', *, *, #221, .F. ) ;
#312 = ADVANCED_FACE ( 'NONE', ( #309 ), #227, .F. ) ;
#313 = DATE_AND_TIME ( #26, #301 ) ;
#314 = DIRECTION ( 'NONE',  ( -1.196361017915039486E-16, 1.000000000000000000, -0.000000000000000000 ) ) ;
#315 = FACE_OUTER_BOUND ( 'NONE', #50, .T. ) ;
#316 = AXIS2_PLACEMENT_3D ( 'NONE', #286, #92, #48 ) ;
#317 = CARTESIAN_POINT ( 'NONE',  ( 18.00000000000005684, -482.0000000000000000, 2.000000000000000000 ) ) ;
#318 = ORIENTED_EDGE ( 'NONE', *, *, #324, .F. ) ;
#319 = VERTEX_POINT ( 'NONE', #474 ) ;
#320 = EDGE_CURVE ( 'NONE', #446, #236, #27, .T. ) ;
#321 = DIRECTION ( 'NONE',  ( -1.000000000000000000, 0.000000000000000000, 0.000000000000000000 ) ) ;
#322 = LINE ( 'NONE', #461, #508 ) ;
#323 = ORIENTED_EDGE ( 'NONE', *, *, #179, .F. ) ;
#324 = EDGE_CURVE ( 'NONE', #319, #124, #490, .T. ) ;
#325 = CARTESIAN_POINT ( 'NONE',  ( 450.0000000000000000, 0.000000000000000000, 0.000000000000000000 ) ) ;
#326 = EDGE_LOOP ( 'NONE', ( #288, #145, #205, #155 ) ) ;
#327 = CARTESIAN_POINT ( 'NONE',  ( 18.00000000000005684, -482.0000000000000000, 580.0000000000000000 ) ) ;
#328 = CARTESIAN_POINT ( 'NONE',  ( 0.000000000000000000, 0.000000000000000000, 20.00000000000000000 ) ) ;
#329 = CARTESIAN_POINT ( 'NONE',  ( 450.0000000000000568, -500.0000000000000000, 580.0000000000000000 ) ) ;
#330 = PERSON_AND_ORGANIZATION ( #114, #513 ) ;
#331 = DIRECTION ( 'NONE',  ( 1.000000000000000000, 0.000000000000000000, 0.000000000000000000 ) ) ;
#332 = LINE ( 'NONE', #218, #135 ) ;
#333 = ORIENTED_EDGE ( 'NONE', *, *, #14, .F. ) ;
#334 = EDGE_CURVE ( 'NONE', #498, #203, #220, .T. ) ;
#335 = DIRECTION ( 'NONE',  ( -0.000000000000000000, 0.000000000000000000, -1.000000000000000000 ) ) ;
#336 = VERTEX_POINT ( 'NONE', #22 ) ;
#337 = EDGE_CURVE ( 'NONE', #222, #366, #417, .T. ) ;
#338 = CC_DESIGN_APPROVAL ( #469, ( #507 ) ) ;
#339 = VECTOR ( 'NONE', #86, 1000.000000000000000 ) ;
#340 = FACE_OUTER_BOUND ( 'NONE', #425, .T. ) ;
#341 = DIRECTION ( 'NONE',  ( -0.000000000000000000, -0.000000000000000000, -1.000000000000000000 ) ) ;
#342 = VERTEX_POINT ( 'NONE', #235 ) ;
#343 = VERTEX_POINT ( 'NONE', #352 ) ;
#344 = CARTESIAN_POINT ( 'NONE',  ( 18.00000000000000355, -18.00000000000000000, 580.0000000000000000 ) ) ;
#345 = CARTESIAN_POINT ( 'NONE',  ( 6.123233995736766243E-14, -500.0000000000000000, 580.0000000000000000 ) ) ;
#346 = APPROVAL_PERSON_ORGANIZATION ( #33, #483, #28 ) ;
#347 = EDGE_LOOP ( 'NONE', ( #198, #311, #9, #143 ) ) ;
#348 = DIRECTION ( 'NONE',  ( 1.000000000000000000, -0.000000000000000000, -0.000000000000000000 ) ) ;
#349 = AXIS2_PLACEMENT_3D ( 'NONE', #454, #53, #211 ) ;
#350 =( NAMED_UNIT ( * ) PLANE_ANGLE_UNIT ( ) SI_UNIT ( $, .RADIAN. ) );
#351 = LINE ( 'NONE', #327, #339 ) ;
#352 = CARTESIAN_POINT ( 'NONE',  ( 432.0000000000000000, -18.00000000000000000, 20.00000000000001776 ) ) ;
#353 = ORIENTED_EDGE ( 'NONE', *, *, #183, .F. ) ;
#354 = ORIENTED_EDGE ( 'NONE', *, *, #2, .T. ) ;
#355 = EDGE_LOOP ( 'NONE', ( #159, #396, #491, #418 ) ) ;
#356 = AXIS2_PLACEMENT_3D ( 'NONE', #16, #192, #190 ) ;
#357 = DIRECTION ( 'NONE',  ( 1.224646799147353207E-16, -1.000000000000000000, 0.000000000000000000 ) ) ;
#358 = DATE_AND_TIME ( #158, #376 ) ;
#359 = LINE ( 'NONE', #413, #293 ) ;
#360 = ORIENTED_EDGE ( 'NONE', *, *, #149, .F. ) ;
#361 = DIRECTION ( 'NONE',  ( -1.110223024625156540E-16, 1.000000000000000000, -0.000000000000000000 ) ) ;
#362 = EDGE_CURVE ( 'NONE', #277, #404, #208, .T. ) ;
#363 = CC_DESIGN_PERSON_AND_ORGANIZATION_ASSIGNMENT ( #224, #23, ( #91 ) ) ;
#364 = CARTESIAN_POINT ( 'NONE',  ( 18.00000000000005684, -482.0000000000000000, -0.000000000000000000 ) ) ;
#365 = LINE ( 'NONE', #384, #202 ) ;
#366 = VERTEX_POINT ( 'NONE', #435 ) ;
#367 = CARTESIAN_POINT ( 'NONE',  ( 18.00000000000005684, -482.0000000000000000, 2.000000000000000000 ) ) ;
#368 = DIRECTION ( 'NONE',  ( -0.000000000000000000, -0.000000000000000000, -1.000000000000000000 ) ) ;
#369 = CARTESIAN_POINT ( 'NONE',  ( 432.0000000000000000, -18.00000000000000000, 2.000000000000000000 ) ) ;
#370 = DIRECTION ( 'NONE',  ( 1.000000000000000000, 0.000000000000000000, -0.000000000000000000 ) ) ;
#371 = VECTOR ( 'NONE', #249, 1000.000000000000000 ) ;
#372 = VERTEX_POINT ( 'NONE', #276 ) ;
#373 = DIRECTION ( 'NONE',  ( -0.000000000000000000, 0.000000000000000000, 1.000000000000000000 ) ) ;
#374 = AXIS2_PLACEMENT_3D ( 'NONE', #369, #136, #4 ) ;
#375 = CARTESIAN_POINT ( 'NONE',  ( 432.0000000000000000, -18.00000000000000000, 2.000000000000000000 ) ) ;
#376 = LOCAL_TIME ( 10, 4, 1.000000000000000000, #470 ) ;
#377 = CARTESIAN_POINT ( 'NONE',  ( 6.123233995736766243E-14, -500.0000000000000000, 580.0000000000000000 ) ) ;
#378 = VECTOR ( 'NONE', #11, 1000.000000000000000 ) ;
#379 = VECTOR ( 'NONE', #123, 1000.000000000000000 ) ;
#380 = DIRECTION ( 'NONE',  ( 0.000000000000000000, -1.000000000000000000, 0.000000000000000000 ) ) ;
#381 = DIRECTION ( 'NONE',  ( 0.000000000000000000, -1.000000000000000000, 0.000000000000000000 ) ) ;
#382 = ORIENTED_EDGE ( 'NONE', *, *, #278, .F. ) ;
#383 = CARTESIAN_POINT ( 'NONE',  ( 18.00000000000011369, -18.00000000000000000, 2.000000000000000000 ) ) ;
#384 = CARTESIAN_POINT ( 'NONE',  ( 432.0000000000000568, -482.0000000000000000, 580.0000000000000000 ) ) ;
#385 = EDGE_CURVE ( 'NONE', #180, #51, #57, .T. ) ;
#386 = CC_DESIGN_PERSON_AND_ORGANIZATION_ASSIGNMENT ( #173, #226, ( #91 ) ) ;
#387 = VECTOR ( 'NONE', #129, 1000.000000000000000 ) ;
#388 = MECHANICAL_CONTEXT ( 'NONE', #110, 'mechanical' ) ;
#389 = ADVANCED_FACE ( 'NONE', ( #315 ), #233, .F. ) ;
#390 = AXIS2_PLACEMENT_3D ( 'NONE', #452, #373, #89 ) ;
#391 = APPROVAL_STATUS ( 'not_yet_approved' ) ;
#392 = ORIENTED_EDGE ( 'NONE', *, *, #405, .T. ) ;
#393 = DATE_AND_TIME ( #200, #107 ) ;
#394 = CARTESIAN_POINT ( 'NONE',  ( 432.0000000000000000, -482.0000000000000000, 2.000000000000000000 ) ) ;
#395 = ORIENTED_EDGE ( 'NONE', *, *, #362, .F. ) ;
#396 = ORIENTED_EDGE ( 'NONE', *, *, #156, .F. ) ;
#397 = VERTEX_POINT ( 'NONE', #194 ) ;
#398 = CARTESIAN_POINT ( 'NONE',  ( 432.0000000000000000, -482.0000000000000000, 2.000000000000000000 ) ) ;
#399 = ADVANCED_FACE ( 'NONE', ( #292 ), #506, .F. ) ;
#400 = EDGE_CURVE ( 'NONE', #343, #83, #18, .T. ) ;
#401 = LOCAL_TIME ( 10, 4, 1.000000000000000000, #497 ) ;
#402 = LINE ( 'NONE', #289, #232 ) ;
#403 = FACE_OUTER_BOUND ( 'NONE', #347, .T. ) ;
#404 = VERTEX_POINT ( 'NONE', #364 ) ;
#405 = EDGE_CURVE ( 'NONE', #137, #319, #178, .T. ) ;
#406 = DIRECTION ( 'NONE',  ( -1.000000000000000000, 0.000000000000000000, -0.000000000000000000 ) ) ;
#407 = VECTOR ( 'NONE', #348, 1000.000000000000000 ) ;
#408 = EDGE_CURVE ( 'NONE', #83, #397, #303, .T. ) ;
#409 = DIRECTION ( 'NONE',  ( -1.110223024625156540E-16, 1.000000000000000000, -0.000000000000000000 ) ) ;
#410 = VECTOR ( 'NONE', #331, 1000.000000000000000 ) ;
#411 = ORIENTED_EDGE ( 'NONE', *, *, #183, .T. ) ;
#412 = DIRECTION ( 'NONE',  ( 1.196361017915039486E-16, 1.000000000000000000, -0.000000000000000000 ) ) ;
#413 = CARTESIAN_POINT ( 'NONE',  ( 18.00000000000000355, -18.00000000000000000, 580.0000000000000000 ) ) ;
#414 = CARTESIAN_POINT ( 'NONE',  ( 18.00000000000000355, -18.00000000000000000, 580.0000000000000000 ) ) ;
#415 = APPROVAL_DATE_TIME ( #393, #469 ) ;
#416 = EDGE_CURVE ( 'NONE', #372, #446, #296, .T. ) ;
#417 = LINE ( 'NONE', #438, #188 ) ;
#418 = ORIENTED_EDGE ( 'NONE', *, *, #306, .T. ) ;
#419 = PLANE ( 'NONE',  #204 ) ;
#420 = EDGE_LOOP ( 'NONE', ( #395, #453, #175, #154 ) ) ;
#421 = CARTESIAN_POINT ( 'NONE',  ( 432.0000000000000000, -18.00000000000000000, -0.000000000000000000 ) ) ;
#422 = CARTESIAN_POINT ( 'NONE',  ( 6.123233995736766243E-14, -500.0000000000000000, 580.0000000000000000 ) ) ;
#423 = VECTOR ( 'NONE', #294, 1000.000000000000000 ) ;
#424 = EDGE_LOOP ( 'NONE', ( #439, #433, #323, #360 ) ) ;
#425 = EDGE_LOOP ( 'NONE', ( #133, #185, #479, #90 ) ) ;
#426 = ORIENTED_EDGE ( 'NONE', *, *, #512, .T. ) ;
#427 =( NAMED_UNIT ( * ) SI_UNIT ( $, .STERADIAN. ) SOLID_ANGLE_UNIT ( ) );
#428 = LOCAL_TIME ( 10, 4, 1.000000000000000000, #151 ) ;
#429 = VECTOR ( 'NONE', #271, 1000.000000000000000 ) ;
#430 = ORIENTED_EDGE ( 'NONE', *, *, #298, .F. ) ;
#431 = EDGE_CURVE ( 'NONE', #451, #372, #108, .T. ) ;
#432 = PERSON_AND_ORGANIZATION_ROLE ( 'design_owner' ) ;
#433 = ORIENTED_EDGE ( 'NONE', *, *, #169, .F. ) ;
#434 = SECURITY_CLASSIFICATION_LEVEL ( 'unclassified' ) ;
#435 = CARTESIAN_POINT ( 'NONE',  ( 6.123233995736766243E-14, -500.0000000000000000, 0.000000000000000000 ) ) ;
#436 = LINE ( 'NONE', #93, #448 ) ;
#437 = ORIENTED_EDGE ( 'NONE', *, *, #47, .F. ) ;
#438 = CARTESIAN_POINT ( 'NONE',  ( 0.000000000000000000, 0.000000000000000000, 0.000000000000000000 ) ) ;
#439 = ORIENTED_EDGE ( 'NONE', *, *, #337, .F. ) ;
#440 = ADVANCED_FACE ( 'NONE', ( #40 ), #201, .F. ) ;
#441 = ORIENTED_EDGE ( 'NONE', *, *, #362, .T. ) ;
#442 = ADVANCED_FACE ( 'NONE', ( #115 ), #256, .T. ) ;
#443 = CARTESIAN_POINT ( 'NONE',  ( 432.0000000000000000, -18.00000000000000000, 20.00000000000001776 ) ) ;
#444 = LINE ( 'NONE', #181, #121 ) ;
#445 = DIRECTION ( 'NONE',  ( -0.000000000000000000, -0.000000000000000000, -1.000000000000000000 ) ) ;
#446 = VERTEX_POINT ( 'NONE', #251 ) ;
#447 = PLANE ( 'NONE',  #493 ) ;
#448 = VECTOR ( 'NONE', #61, 1000.000000000000000 ) ;
#449 = DESIGN_CONTEXT ( 'detailed design', #150, 'design' ) ;
#450 = ORIENTED_EDGE ( 'NONE', *, *, #8, .F. ) ;
#451 = VERTEX_POINT ( 'NONE', #329 ) ;
#452 = CARTESIAN_POINT ( 'NONE',  ( 0.000000000000000000, 0.000000000000000000, 580.0000000000000000 ) ) ;
#453 = ORIENTED_EDGE ( 'NONE', *, *, #253, .F. ) ;
#454 = CARTESIAN_POINT ( 'NONE',  ( 432.0000000000000000, -18.00000000000000000, 580.0000000000000000 ) ) ;
#455 = CARTESIAN_POINT ( 'NONE',  ( 6.123233995736766243E-14, -500.0000000000000000, 0.000000000000000000 ) ) ;
#456 = FACE_OUTER_BOUND ( 'NONE', #464, .T. ) ;
#457 = ORIENTED_EDGE ( 'NONE', *, *, #52, .F. ) ;
#458 = DIRECTION ( 'NONE',  ( 0.000000000000000000, 1.000000000000000000, 0.000000000000000000 ) ) ;
#459 = AXIS2_PLACEMENT_3D ( 'NONE', #422, #139, #257 ) ;
#460 = PLANE ( 'NONE',  #248 ) ;
#461 = CARTESIAN_POINT ( 'NONE',  ( 432.0000000000000000, -18.00000000000000000, -0.000000000000000000 ) ) ;
#462 = PERSON_AND_ORGANIZATION ( #114, #513 ) ;
#463 = VECTOR ( 'NONE', #520, 1000.000000000000000 ) ;
#464 = EDGE_LOOP ( 'NONE', ( #176, #131, #79, #411 ) ) ;
#465 = CARTESIAN_POINT ( 'NONE',  ( 432.0000000000000000, -482.0000000000000000, 0.000000000000000000 ) ) ;
#466 = PLANE ( 'NONE',  #295 ) ;
#467 = ORIENTED_EDGE ( 'NONE', *, *, #253, .T. ) ;
#468 = CC_DESIGN_PERSON_AND_ORGANIZATION_ASSIGNMENT ( #330, #432, ( #193 ) ) ;
#469 = APPROVAL ( #300, '未指定' ) ;
#470 = COORDINATED_UNIVERSAL_TIME_OFFSET ( 8, 0, .AHEAD. ) ;
#471 = VECTOR ( 'NONE', #445, 1000.000000000000000 ) ;
#472 = EDGE_CURVE ( 'NONE', #319, #343, #519, .T. ) ;
#473 = EDGE_LOOP ( 'NONE', ( #142, #485, #247, #255 ) ) ;
#474 = CARTESIAN_POINT ( 'NONE',  ( 432.0000000000000000, -18.00000000000000000, 580.0000000000000000 ) ) ;
#475 = PERSON_AND_ORGANIZATION_ROLE ( 'creator' ) ;
#476 = VECTOR ( 'NONE', #25, 1000.000000000000000 ) ;
#477 = EDGE_CURVE ( 'NONE', #515, #137, #351, .T. ) ;
#478 = ADVANCED_FACE ( 'NONE', ( #240, #216 ), #466, .F. ) ;
#479 = ORIENTED_EDGE ( 'NONE', *, *, #431, .T. ) ;
#480 = AXIS2_PLACEMENT_3D ( 'NONE', #394, #32, #237 ) ;
#481 = LINE ( 'NONE', #325, #152 ) ;
#482 = LINE ( 'NONE', #455, #87 ) ;
#483 = APPROVAL ( #504, '未指定' ) ;
#484 = DIRECTION ( 'NONE',  ( 1.196361017915039486E-16, -1.000000000000000000, 0.000000000000000000 ) ) ;
#485 = ORIENTED_EDGE ( 'NONE', *, *, #8, .T. ) ;
#486 = EDGE_LOOP ( 'NONE', ( #467, #284, #272, #35 ) ) ;
#487 = AXIS2_PLACEMENT_3D ( 'NONE', #163, #160, #280 ) ;
#488 = DIRECTION ( 'NONE',  ( 1.000000000000000000, 0.000000000000000000, 0.000000000000000000 ) ) ;
#489 = DATE_AND_TIME ( #80, #401 ) ;
#490 = LINE ( 'NONE', #503, #85 ) ;
#491 = ORIENTED_EDGE ( 'NONE', *, *, #43, .F. ) ;
#492 = EDGE_LOOP ( 'NONE', ( #109, #103, #430, #122 ) ) ;
#493 = AXIS2_PLACEMENT_3D ( 'NONE', #328, #518, #406 ) ;
#494 = DIRECTION ( 'NONE',  ( -1.196361017915039486E-16, 1.000000000000000000, 0.000000000000000000 ) ) ;
#495 = DIRECTION ( 'NONE',  ( -0.000000000000000000, 0.000000000000000000, 1.000000000000000000 ) ) ;
#496 = DIRECTION ( 'NONE',  ( 0.000000000000000000, -1.000000000000000000, 0.000000000000000000 ) ) ;
#497 = COORDINATED_UNIVERSAL_TIME_OFFSET ( 8, 0, .AHEAD. ) ;
#498 = VERTEX_POINT ( 'NONE', #146 ) ;
#499 = DIRECTION ( 'NONE',  ( -1.000000000000000000, -0.000000000000000000, -0.000000000000000000 ) ) ;
#500 = DIRECTION ( 'NONE',  ( 1.224646799147353207E-16, -1.000000000000000000, 0.000000000000000000 ) ) ;
#501 = VECTOR ( 'NONE', #20, 1000.000000000000000 ) ;
#502 = FACE_OUTER_BOUND ( 'NONE', #228, .T. ) ;
#503 = CARTESIAN_POINT ( 'NONE',  ( 18.00000000000000355, -18.00000000000000000, 580.0000000000000000 ) ) ;
#504 = APPROVAL_STATUS ( 'not_yet_approved' ) ;
#505 = ORIENTED_EDGE ( 'NONE', *, *, #144, .T. ) ;
#506 = PLANE ( 'NONE',  #38 ) ;
#507 = SECURITY_CLASSIFICATION ( '', '', #434 ) ;
#508 = VECTOR ( 'NONE', #380, 1000.000000000000000 ) ;
#509 = CARTESIAN_POINT ( 'NONE',  ( 432.0000000000000000, -482.0000000000000000, -0.000000000000000000 ) ) ;
#510 = FACE_OUTER_BOUND ( 'NONE', #492, .T. ) ;
#511 = ORIENTED_EDGE ( 'NONE', *, *, #431, .F. ) ;
#512 = EDGE_CURVE ( 'NONE', #137, #83, #365, .T. ) ;
#513 = ORGANIZATION ( '未指定', '未指定', '' ) ;
#514 = VECTOR ( 'NONE', #199, 1000.000000000000000 ) ;
#515 = VERTEX_POINT ( 'NONE', #21 ) ;
#516 = CARTESIAN_POINT ( 'NONE',  ( 432.0000000000000000, -482.0000000000000000, 2.000000000000000000 ) ) ;
#517 = DIRECTION ( 'NONE',  ( -1.000000000000000000, 0.000000000000000000, 0.000000000000000000 ) ) ;
#518 = DIRECTION ( 'NONE',  ( 0.000000000000000000, 0.000000000000000000, -1.000000000000000000 ) ) ;
#519 = LINE ( 'NONE', #1, #34 ) ;
#520 = DIRECTION ( 'NONE',  ( -1.000000000000000000, -0.000000000000000000, -0.000000000000000000 ) ) ;
#521 = ORIENTED_EDGE ( 'NONE', *, *, #162, .T. ) ;
ENDSEC;
END-ISO-10303-21;
