ISO-10303-21;
HEADER;
FILE_DESCRIPTION (( 'STEP AP203' ),
    '1' );
FILE_NAME ('侧门顶柜03-柜体.STEP',
    '2026-06-01T02:04:34',
    ( 'Windows 用户' ),
    ( 'Microsoft' ),
    'SwSTEP 2.0',
    'SolidWorks 2018',
    '' );
FILE_SCHEMA (( 'CONFIG_CONTROL_DESIGN' ));
ENDSEC;

DATA;
#1 = EDGE_CURVE ( 'NONE', #176, #415, #102, .T. ) ;
#2 = VECTOR ( 'NONE', #462, 1000.000000000000000 ) ;
#3 = VECTOR ( 'NONE', #286, 1000.000000000000000 ) ;
#4 = ORIENTED_EDGE ( 'NONE', *, *, #391, .T. ) ;
#5 = CARTESIAN_POINT ( 'NONE',  ( 0.000000000000000000, 0.000000000000000000, 580.0000000000000000 ) ) ;
#6 = DIRECTION ( 'NONE',  ( -0.000000000000000000, -0.000000000000000000, -1.000000000000000000 ) ) ;
#7 = CARTESIAN_POINT ( 'NONE',  ( 6.123233995736766243E-14, -500.0000000000000000, 0.000000000000000000 ) ) ;
#8 = PLANE ( 'NONE',  #348 ) ;
#9 = APPROVAL ( #223, '未指定' ) ;
#10 = DATE_AND_TIME ( #95, #159 ) ;
#11 = CARTESIAN_POINT ( 'NONE',  ( 882.0000000000000000, -18.00000000000000000, 580.0000000000000000 ) ) ;
#12 = VERTEX_POINT ( 'NONE', #373 ) ;
#13 = DIRECTION ( 'NONE',  ( -0.000000000000000000, -0.000000000000000000, -1.000000000000000000 ) ) ;
#14 = DIRECTION ( 'NONE',  ( 2.392722035830078972E-16, 1.000000000000000000, 0.000000000000000000 ) ) ;
#15 = PLANE ( 'NONE',  #315 ) ;
#16 = CARTESIAN_POINT ( 'NONE',  ( 18.00000000000005684, -482.0000000000000000, 20.00000000000001776 ) ) ;
#17 = FACE_OUTER_BOUND ( 'NONE', #467, .T. ) ;
#18 = AXIS2_PLACEMENT_3D ( 'NONE', #103, #392, #157 ) ;
#19 = ORIENTED_EDGE ( 'NONE', *, *, #418, .T. ) ;
#20 = ORIENTED_EDGE ( 'NONE', *, *, #125, .T. ) ;
#21 = CARTESIAN_POINT ( 'NONE',  ( 0.000000000000000000, 0.000000000000000000, 20.00000000000000000 ) ) ;
#22 = APPROVAL_ROLE ( '' ) ;
#23 = APPROVAL_STATUS ( 'not_yet_approved' ) ;
#24 = CARTESIAN_POINT ( 'NONE',  ( 18.00000000000000355, -18.00000000000000000, 580.0000000000000000 ) ) ;
#25 = DATE_AND_TIME ( #501, #246 ) ;
#26 = FACE_OUTER_BOUND ( 'NONE', #265, .T. ) ;
#27 = CARTESIAN_POINT ( 'NONE',  ( 18.00000000000011369, -18.00000000000000000, 2.000000000000000000 ) ) ;
#28 = VERTEX_POINT ( 'NONE', #178 ) ;
#29 = ADVANCED_FACE ( 'NONE', ( #459 ), #491, .T. ) ;
#30 = CARTESIAN_POINT ( 'NONE',  ( 882.0000000000000000, -18.00000000000000000, 2.000000000000000000 ) ) ;
#31 = DIRECTION ( 'NONE',  ( 2.220446049250313081E-16, -1.000000000000000000, 0.000000000000000000 ) ) ;
#32 = ADVANCED_FACE ( 'NONE', ( #350 ), #15, .F. ) ;
#33 = LINE ( 'NONE', #381, #2 ) ;
#34 = EDGE_LOOP ( 'NONE', ( #62, #483, #85, #55 ) ) ;
#35 = EDGE_CURVE ( 'NONE', #415, #375, #201, .T. ) ;
#36 = DIRECTION ( 'NONE',  ( 1.000000000000000000, -0.000000000000000000, -0.000000000000000000 ) ) ;
#37 = ORIENTED_EDGE ( 'NONE', *, *, #35, .T. ) ;
#38 = CARTESIAN_POINT ( 'NONE',  ( 0.000000000000000000, 0.000000000000000000, 580.0000000000000000 ) ) ;
#39 = PERSON_AND_ORGANIZATION ( #319, #355 ) ;
#40 = FACE_BOUND ( 'NONE', #403, .T. ) ;
#41 = EDGE_LOOP ( 'NONE', ( #222, #460, #421, #444 ) ) ;
#42 = LINE ( 'NONE', #73, #130 ) ;
#43 = VECTOR ( 'NONE', #218, 1000.000000000000000 ) ;
#44 = VERTEX_POINT ( 'NONE', #449 ) ;
#45 = AXIS2_PLACEMENT_3D ( 'NONE', #411, #215, #453 ) ;
#46 = EDGE_CURVE ( 'NONE', #396, #154, #440, .T. ) ;
#47 = APPROVAL_PERSON_ORGANIZATION ( #39, #451, #499 ) ;
#48 = LINE ( 'NONE', #259, #374 ) ;
#49 = EDGE_LOOP ( 'NONE', ( #37, #302, #473, #188 ) ) ;
#50 = DIRECTION ( 'NONE',  ( -0.000000000000000000, 0.000000000000000000, 1.000000000000000000 ) ) ;
#51 = DIRECTION ( 'NONE',  ( -0.000000000000000000, -0.000000000000000000, -1.000000000000000000 ) ) ;
#52 = CARTESIAN_POINT ( 'NONE',  ( 6.123233995736766243E-14, -500.0000000000000000, 580.0000000000000000 ) ) ;
#53 = FACE_BOUND ( 'NONE', #104, .T. ) ;
#54 = VECTOR ( 'NONE', #507, 1000.000000000000000 ) ;
#55 = ORIENTED_EDGE ( 'NONE', *, *, #401, .T. ) ;
#56 = ORIENTED_EDGE ( 'NONE', *, *, #202, .T. ) ;
#57 = EDGE_CURVE ( 'NONE', #313, #480, #494, .T. ) ;
#58 = DATE_TIME_ROLE ( 'creation_date' ) ;
#59 = PERSON_AND_ORGANIZATION_ROLE ( 'creator' ) ;
#60 = DIRECTION ( 'NONE',  ( 1.000000000000000000, 0.000000000000000000, 0.000000000000000000 ) ) ;
#61 = PERSON_AND_ORGANIZATION ( #319, #355 ) ;
#62 = ORIENTED_EDGE ( 'NONE', *, *, #97, .T. ) ;
#63 = ORIENTED_EDGE ( 'NONE', *, *, #354, .F. ) ;
#64 = PLANE ( 'NONE',  #369 ) ;
#65 = AXIS2_PLACEMENT_3D ( 'NONE', #52, #489, #225 ) ;
#66 = DIRECTION ( 'NONE',  ( -0.000000000000000000, -0.000000000000000000, -1.000000000000000000 ) ) ;
#67 = FACE_OUTER_BOUND ( 'NONE', #34, .T. ) ;
#68 = EDGE_CURVE ( 'NONE', #375, #245, #153, .T. ) ;
#69 = LINE ( 'NONE', #306, #227 ) ;
#70 = CARTESIAN_POINT ( 'NONE',  ( 18.00000000000011369, -18.00000000000000000, 2.000000000000000000 ) ) ;
#71 = ORIENTED_EDGE ( 'NONE', *, *, #35, .F. ) ;
#72 = ADVANCED_FACE ( 'NONE', ( #240 ), #173, .F. ) ;
#73 = CARTESIAN_POINT ( 'NONE',  ( 882.0000000000000000, -18.00000000000000000, 2.000000000000000000 ) ) ;
#74 =( GEOMETRIC_REPRESENTATION_CONTEXT ( 3 ) GLOBAL_UNCERTAINTY_ASSIGNED_CONTEXT ( ( #211 ) ) GLOBAL_UNIT_ASSIGNED_CONTEXT ( ( #140, #179, #455 ) ) REPRESENTATION_CONTEXT ( 'NONE', 'WORKASPACE' ) );
#75 = DIRECTION ( 'NONE',  ( 0.000000000000000000, -0.000000000000000000, -1.000000000000000000 ) ) ;
#76 = PLANE ( 'NONE',  #398 ) ;
#77 = APPROVAL_DATE_TIME ( #321, #204 ) ;
#78 = ADVANCED_BREP_SHAPE_REPRESENTATION ( '侧门顶柜03-柜体', ( #198, #236 ), #74 ) ;
#79 = VECTOR ( 'NONE', #129, 1000.000000000000000 ) ;
#80 = EDGE_LOOP ( 'NONE', ( #131, #376, #385, #293 ) ) ;
#81 = EDGE_CURVE ( 'NONE', #176, #361, #317, .T. ) ;
#82 = EDGE_LOOP ( 'NONE', ( #314, #255, #195, #19 ) ) ;
#83 = VECTOR ( 'NONE', #247, 1000.000000000000000 ) ;
#84 = VECTOR ( 'NONE', #505, 1000.000000000000000 ) ;
#85 = ORIENTED_EDGE ( 'NONE', *, *, #208, .F. ) ;
#86 = AXIS2_PLACEMENT_3D ( 'NONE', #210, #50, #329 ) ;
#87 = EDGE_CURVE ( 'NONE', #155, #275, #48, .T. ) ;
#88 = PERSON_AND_ORGANIZATION ( #319, #355 ) ;
#89 = CARTESIAN_POINT ( 'NONE',  ( 882.0000000000000000, -18.00000000000000000, 580.0000000000000000 ) ) ;
#90 = ORIENTED_EDGE ( 'NONE', *, *, #391, .F. ) ;
#91 = ORIENTED_EDGE ( 'NONE', *, *, #152, .T. ) ;
#92 = CARTESIAN_POINT ( 'NONE',  ( 882.0000000000000000, -18.00000000000000000, 2.000000000000000000 ) ) ;
#93 = AXIS2_PLACEMENT_3D ( 'NONE', #312, #189, #432 ) ;
#94 = CARTESIAN_POINT ( 'NONE',  ( 18.00000000000005684, -482.0000000000000000, 580.0000000000000000 ) ) ;
#95 = CALENDAR_DATE ( 2026, 1, 6 ) ;
#96 = LINE ( 'NONE', #146, #278 ) ;
#97 = EDGE_CURVE ( 'NONE', #279, #415, #436, .T. ) ;
#98 = CARTESIAN_POINT ( 'NONE',  ( 18.00000000000005684, -482.0000000000000000, 580.0000000000000000 ) ) ;
#99 = LOCAL_TIME ( 10, 4, 34.00000000000000000, #119 ) ;
#100 = CARTESIAN_POINT ( 'NONE',  ( 882.0000000000000000, -18.00000000000000000, 2.000000000000000000 ) ) ;
#101 = LOCAL_TIME ( 10, 4, 34.00000000000000000, #301 ) ;
#102 = LINE ( 'NONE', #295, #43 ) ;
#103 = CARTESIAN_POINT ( 'NONE',  ( 0.000000000000000000, 0.000000000000000000, 580.0000000000000000 ) ) ;
#104 = EDGE_LOOP ( 'NONE', ( #161, #183, #395, #487 ) ) ;
#105 = CARTESIAN_POINT ( 'NONE',  ( 18.00000000000000355, -18.00000000000000000, 580.0000000000000000 ) ) ;
#106 = EDGE_CURVE ( 'NONE', #167, #275, #96, .T. ) ;
#107 = DIRECTION ( 'NONE',  ( 1.224646799147353207E-16, -1.000000000000000000, 0.000000000000000000 ) ) ;
#108 = EDGE_CURVE ( 'NONE', #28, #396, #520, .T. ) ;
#109 = LINE ( 'NONE', #464, #360 ) ;
#110 = ADVANCED_FACE ( 'NONE', ( #17 ), #64, .F. ) ;
#111 = VECTOR ( 'NONE', #463, 1000.000000000000000 ) ;
#112 = DIRECTION ( 'NONE',  ( 2.392722035830078972E-16, -1.000000000000000000, 0.000000000000000000 ) ) ;
#113 = VERTEX_POINT ( 'NONE', #424 ) ;
#114 = ORIENTED_EDGE ( 'NONE', *, *, #311, .F. ) ;
#115 = PERSON_AND_ORGANIZATION ( #319, #355 ) ;
#116 = VECTOR ( 'NONE', #196, 1000.000000000000000 ) ;
#117 = CC_DESIGN_PERSON_AND_ORGANIZATION_ASSIGNMENT ( #115, #382, ( #405 ) ) ;
#118 = EDGE_LOOP ( 'NONE', ( #438, #352, #430, #407 ) ) ;
#119 = COORDINATED_UNIVERSAL_TIME_OFFSET ( 8, 0, .AHEAD. ) ;
#120 = VECTOR ( 'NONE', #469, 1000.000000000000000 ) ;
#121 = EDGE_LOOP ( 'NONE', ( #384, #90, #357, #328 ) ) ;
#122 = ORIENTED_EDGE ( 'NONE', *, *, #208, .T. ) ;
#123 = CARTESIAN_POINT ( 'NONE',  ( 900.0000000000001137, -500.0000000000000000, 580.0000000000000000 ) ) ;
#124 = PLANE ( 'NONE',  #45 ) ;
#125 = EDGE_CURVE ( 'NONE', #502, #12, #109, .T. ) ;
#126 = DIRECTION ( 'NONE',  ( 1.000000000000000000, 0.000000000000000000, 0.000000000000000000 ) ) ;
#127 = DIRECTION ( 'NONE',  ( 1.000000000000000000, -2.392722035830078972E-16, 0.000000000000000000 ) ) ;
#128 = DATE_AND_TIME ( #515, #101 ) ;
#129 = DIRECTION ( 'NONE',  ( -1.000000000000000000, -0.000000000000000000, -0.000000000000000000 ) ) ;
#130 = VECTOR ( 'NONE', #36, 1000.000000000000000 ) ;
#131 = ORIENTED_EDGE ( 'NONE', *, *, #511, .T. ) ;
#132 = EDGE_CURVE ( 'NONE', #44, #205, #347, .T. ) ;
#133 = CARTESIAN_POINT ( 'NONE',  ( 18.00000000000011369, -18.00000000000000000, 2.000000000000000000 ) ) ;
#134 = CARTESIAN_POINT ( 'NONE',  ( 18.00000000000005684, -482.0000000000000000, 2.000000000000000000 ) ) ;
#135 = CARTESIAN_POINT ( 'NONE',  ( 882.0000000000001137, -482.0000000000000000, 580.0000000000000000 ) ) ;
#136 = MECHANICAL_CONTEXT ( 'NONE', #497, 'mechanical' ) ;
#137 = PERSON_AND_ORGANIZATION_ROLE ( 'design_owner' ) ;
#138 = LINE ( 'NONE', #151, #160 ) ;
#139 = ORIENTED_EDGE ( 'NONE', *, *, #46, .F. ) ;
#140 =( LENGTH_UNIT ( ) NAMED_UNIT ( * ) SI_UNIT ( .MILLI., .METRE. ) );
#141 = ORIENTED_EDGE ( 'NONE', *, *, #177, .T. ) ;
#142 = EDGE_CURVE ( 'NONE', #361, #472, #269, .T. ) ;
#143 = CARTESIAN_POINT ( 'NONE',  ( 18.00000000000011369, -18.00000000000000000, 2.000000000000000000 ) ) ;
#144 = CARTESIAN_POINT ( 'NONE',  ( 882.0000000000000000, -18.00000000000000000, 580.0000000000000000 ) ) ;
#145 = APPROVAL_STATUS ( 'not_yet_approved' ) ;
#146 = CARTESIAN_POINT ( 'NONE',  ( 18.00000000000000355, -18.00000000000000000, 20.00000000000001776 ) ) ;
#147 = VECTOR ( 'NONE', #6, 1000.000000000000000 ) ;
#148 = VECTOR ( 'NONE', #490, 1000.000000000000000 ) ;
#149 = CARTESIAN_POINT ( 'NONE',  ( 882.0000000000000000, -18.00000000000000000, -0.000000000000000000 ) ) ;
#150 = VERTEX_POINT ( 'NONE', #257 ) ;
#151 = CARTESIAN_POINT ( 'NONE',  ( 882.0000000000000000, -18.00000000000000000, 20.00000000000001776 ) ) ;
#152 = EDGE_CURVE ( 'NONE', #205, #313, #389, .T. ) ;
#153 = LINE ( 'NONE', #410, #471 ) ;
#154 = VERTEX_POINT ( 'NONE', #264 ) ;
#155 = VERTEX_POINT ( 'NONE', #24 ) ;
#156 = ADVANCED_FACE ( 'NONE', ( #402 ), #379, .F. ) ;
#157 = DIRECTION ( 'NONE',  ( 0.000000000000000000, -0.000000000000000000, -1.000000000000000000 ) ) ;
#158 = EDGE_CURVE ( 'NONE', #155, #28, #509, .T. ) ;
#159 = LOCAL_TIME ( 10, 4, 34.00000000000000000, #412 ) ;
#160 = VECTOR ( 'NONE', #112, 1000.000000000000000 ) ;
#161 = ORIENTED_EDGE ( 'NONE', *, *, #108, .F. ) ;
#162 = EDGE_CURVE ( 'NONE', #480, #228, #220, .T. ) ;
#163 = PRODUCT ( '侧门顶柜03-柜体', '侧门顶柜03-柜体', '', ( #136 ) ) ;
#164 = SHAPE_DEFINITION_REPRESENTATION ( #346, #78 ) ;
#165 = LINE ( 'NONE', #338, #111 ) ;
#166 = ORIENTED_EDGE ( 'NONE', *, *, #239, .F. ) ;
#167 = VERTEX_POINT ( 'NONE', #16 ) ;
#168 = DIRECTION ( 'NONE',  ( -0.000000000000000000, 0.000000000000000000, 1.000000000000000000 ) ) ;
#169 = FACE_OUTER_BOUND ( 'NONE', #496, .T. ) ;
#170 = ORIENTED_EDGE ( 'NONE', *, *, #68, .T. ) ;
#171 = ORIENTED_EDGE ( 'NONE', *, *, #372, .T. ) ;
#172 = CARTESIAN_POINT ( 'NONE',  ( 0.000000000000000000, 0.000000000000000000, 580.0000000000000000 ) ) ;
#173 = PLANE ( 'NONE',  #65 ) ;
#174 = CARTESIAN_POINT ( 'NONE',  ( 6.123233995736766243E-14, -500.0000000000000000, 0.000000000000000000 ) ) ;
#175 = VECTOR ( 'NONE', #300, 1000.000000000000000 ) ;
#176 = VERTEX_POINT ( 'NONE', #256 ) ;
#177 = EDGE_CURVE ( 'NONE', #361, #375, #69, .T. ) ;
#178 = CARTESIAN_POINT ( 'NONE',  ( 18.00000000000005684, -482.0000000000000000, 580.0000000000000000 ) ) ;
#179 =( NAMED_UNIT ( * ) PLANE_ANGLE_UNIT ( ) SI_UNIT ( $, .RADIAN. ) );
#180 = DIRECTION ( 'NONE',  ( 1.196361017915039486E-16, -1.000000000000000000, 0.000000000000000000 ) ) ;
#181 = LOCAL_TIME ( 10, 4, 34.00000000000000000, #326 ) ;
#182 = ORIENTED_EDGE ( 'NONE', *, *, #186, .F. ) ;
#183 = ORIENTED_EDGE ( 'NONE', *, *, #158, .F. ) ;
#184 = EDGE_CURVE ( 'NONE', #228, #502, #165, .T. ) ;
#185 = DIRECTION ( 'NONE',  ( -1.000000000000000000, 0.000000000000000000, 0.000000000000000000 ) ) ;
#186 = EDGE_CURVE ( 'NONE', #275, #113, #33, .T. ) ;
#187 = FACE_OUTER_BOUND ( 'NONE', #285, .T. ) ;
#188 = ORIENTED_EDGE ( 'NONE', *, *, #1, .T. ) ;
#189 = DIRECTION ( 'NONE',  ( 1.000000000000000000, 1.196361017915039486E-16, -0.000000000000000000 ) ) ;
#190 = ADVANCED_FACE ( 'NONE', ( #367 ), #419, .F. ) ;
#191 = PLANE ( 'NONE',  #287 ) ;
#192 = CARTESIAN_POINT ( 'NONE',  ( 18.00000000000000355, -18.00000000000000000, 580.0000000000000000 ) ) ;
#193 = APPROVAL_PERSON_ORGANIZATION ( #427, #204, #305 ) ;
#194 = APPROVAL_DATE_TIME ( #128, #451 ) ;
#195 = ORIENTED_EDGE ( 'NONE', *, *, #289, .F. ) ;
#196 = DIRECTION ( 'NONE',  ( -1.000000000000000000, -0.000000000000000000, -0.000000000000000000 ) ) ;
#197 = VERTEX_POINT ( 'NONE', #144 ) ;
#198 = MANIFOLD_SOLID_BREP ( '切除-拉伸1', #445 ) ;
#199 = CC_DESIGN_APPROVAL ( #204, ( #405 ) ) ;
#200 = VECTOR ( 'NONE', #251, 1000.000000000000000 ) ;
#201 = LINE ( 'NONE', #7, #3 ) ;
#202 = EDGE_CURVE ( 'NONE', #313, #150, #42, .T. ) ;
#203 = PERSON_AND_ORGANIZATION ( #319, #355 ) ;
#204 = APPROVAL ( #23, '未指定' ) ;
#205 = VERTEX_POINT ( 'NONE', #237 ) ;
#206 = EDGE_LOOP ( 'NONE', ( #20, #336, #516, #4 ) ) ;
#207 = PLANE ( 'NONE',  #296 ) ;
#208 = EDGE_CURVE ( 'NONE', #335, #176, #243, .T. ) ;
#209 = DIRECTION ( 'NONE',  ( -1.000000000000000000, -2.392722035830078972E-16, 0.000000000000000000 ) ) ;
#210 = CARTESIAN_POINT ( 'NONE',  ( 0.000000000000000000, 0.000000000000000000, 0.000000000000000000 ) ) ;
#211 = UNCERTAINTY_MEASURE_WITH_UNIT (LENGTH_MEASURE( 1.000000000000000082E-05 ), #140, 'distance_accuracy_value', 'NONE');
#212 = DIRECTION ( 'NONE',  ( -1.000000000000000000, 0.000000000000000000, 0.000000000000000000 ) ) ;
#213 = VECTOR ( 'NONE', #325, 1000.000000000000000 ) ;
#214 = ORIENTED_EDGE ( 'NONE', *, *, #418, .F. ) ;
#215 = DIRECTION ( 'NONE',  ( 1.000000000000000000, 1.224646799147353207E-16, -0.000000000000000000 ) ) ;
#216 = PERSON_AND_ORGANIZATION_ROLE ( 'creator' ) ;
#217 = CARTESIAN_POINT ( 'NONE',  ( 18.00000000000011369, -18.00000000000000000, -0.000000000000000000 ) ) ;
#218 = DIRECTION ( 'NONE',  ( -0.000000000000000000, -0.000000000000000000, -1.000000000000000000 ) ) ;
#219 = DIRECTION ( 'NONE',  ( 1.000000000000000000, 0.000000000000000000, 0.000000000000000000 ) ) ;
#220 = LINE ( 'NONE', #149, #120 ) ;
#221 = EDGE_LOOP ( 'NONE', ( #235, #171, #63, #479 ) ) ;
#222 = ORIENTED_EDGE ( 'NONE', *, *, #87, .T. ) ;
#223 = APPROVAL_STATUS ( 'not_yet_approved' ) ;
#224 = DIRECTION ( 'NONE',  ( 1.000000000000000000, 0.000000000000000000, 0.000000000000000000 ) ) ;
#225 = DIRECTION ( 'NONE',  ( 0.000000000000000000, -0.000000000000000000, 1.000000000000000000 ) ) ;
#226 = DATE_AND_TIME ( #485, #181 ) ;
#227 = VECTOR ( 'NONE', #298, 1000.000000000000000 ) ;
#228 = VERTEX_POINT ( 'NONE', #272 ) ;
#229 = CARTESIAN_POINT ( 'NONE',  ( 18.00000000000000355, -18.00000000000000000, 580.0000000000000000 ) ) ;
#230 = DIRECTION ( 'NONE',  ( 0.000000000000000000, 1.000000000000000000, 0.000000000000000000 ) ) ;
#231 = ADVANCED_FACE ( 'NONE', ( #414 ), #433, .T. ) ;
#232 = FACE_OUTER_BOUND ( 'NONE', #118, .T. ) ;
#233 = DIRECTION ( 'NONE',  ( 0.000000000000000000, -1.000000000000000000, 0.000000000000000000 ) ) ;
#234 = ORIENTED_EDGE ( 'NONE', *, *, #68, .F. ) ;
#235 = ORIENTED_EDGE ( 'NONE', *, *, #46, .T. ) ;
#236 = AXIS2_PLACEMENT_3D ( 'NONE', #504, #297, #219 ) ;
#237 = CARTESIAN_POINT ( 'NONE',  ( 18.00000000000005684, -482.0000000000000000, 2.000000000000000000 ) ) ;
#238 = ADVANCED_FACE ( 'NONE', ( #187 ), #76, .F. ) ;
#239 = EDGE_CURVE ( 'NONE', #150, #228, #482, .T. ) ;
#240 = FACE_OUTER_BOUND ( 'NONE', #49, .T. ) ;
#241 = ADVANCED_FACE ( 'NONE', ( #443 ), #191, .F. ) ;
#242 = AXIS2_PLACEMENT_3D ( 'NONE', #456, #250, #212 ) ;
#243 = LINE ( 'NONE', #38, #428 ) ;
#244 = EDGE_LOOP ( 'NONE', ( #122, #363, #249, #484 ) ) ;
#245 = VERTEX_POINT ( 'NONE', #310 ) ;
#246 = LOCAL_TIME ( 10, 4, 34.00000000000000000, #519 ) ;
#247 = DIRECTION ( 'NONE',  ( -1.000000000000000000, 0.000000000000000000, 0.000000000000000000 ) ) ;
#248 = LINE ( 'NONE', #89, #148 ) ;
#249 = ORIENTED_EDGE ( 'NONE', *, *, #142, .T. ) ;
#250 = DIRECTION ( 'NONE',  ( 0.000000000000000000, 0.000000000000000000, -1.000000000000000000 ) ) ;
#251 = DIRECTION ( 'NONE',  ( -0.000000000000000000, -0.000000000000000000, -1.000000000000000000 ) ) ;
#252 = DATE_TIME_ROLE ( 'classification_date' ) ;
#253 = VECTOR ( 'NONE', #266, 1000.000000000000000 ) ;
#254 = ORIENTED_EDGE ( 'NONE', *, *, #132, .T. ) ;
#255 = ORIENTED_EDGE ( 'NONE', *, *, #401, .F. ) ;
#256 = CARTESIAN_POINT ( 'NONE',  ( 6.123233995736766243E-14, -500.0000000000000000, 580.0000000000000000 ) ) ;
#257 = CARTESIAN_POINT ( 'NONE',  ( 882.0000000000000000, -18.00000000000000000, 2.000000000000000000 ) ) ;
#258 = AXIS2_PLACEMENT_3D ( 'NONE', #105, #457, #333 ) ;
#259 = CARTESIAN_POINT ( 'NONE',  ( 18.00000000000000355, -18.00000000000000000, 580.0000000000000000 ) ) ;
#260 = APPLICATION_CONTEXT ( 'configuration controlled 3d designs of mechanical parts and assemblies' ) ;
#261 = FACE_OUTER_BOUND ( 'NONE', #244, .T. ) ;
#262 = LINE ( 'NONE', #192, #116 ) ;
#263 = PRODUCT_RELATED_PRODUCT_CATEGORY ( 'detail', '', ( #163 ) ) ;
#264 = CARTESIAN_POINT ( 'NONE',  ( 882.0000000000001137, -482.0000000000000000, 20.00000000000001776 ) ) ;
#265 = EDGE_LOOP ( 'NONE', ( #521, #390, #234, #71 ) ) ;
#266 = DIRECTION ( 'NONE',  ( -2.220446049250313081E-16, 1.000000000000000000, -0.000000000000000000 ) ) ;
#267 = CARTESIAN_POINT ( 'NONE',  ( 881.9999999999998863, -482.0000000000000000, 2.000000000000000000 ) ) ;
#268 = CARTESIAN_POINT ( 'NONE',  ( 18.00000000000005684, -482.0000000000000000, 580.0000000000000000 ) ) ;
#269 = LINE ( 'NONE', #307, #253 ) ;
#270 = ORIENTED_EDGE ( 'NONE', *, *, #324, .T. ) ;
#271 = CC_DESIGN_DATE_AND_TIME_ASSIGNMENT ( #25, #58, ( #365 ) ) ;
#272 = CARTESIAN_POINT ( 'NONE',  ( 882.0000000000000000, -18.00000000000000000, -0.000000000000000000 ) ) ;
#273 = DIRECTION ( 'NONE',  ( 1.224646799147353207E-16, -1.000000000000000000, 0.000000000000000000 ) ) ;
#274 = EDGE_LOOP ( 'NONE', ( #270, #437, #139, #318 ) ) ;
#275 = VERTEX_POINT ( 'NONE', #349 ) ;
#276 = AXIS2_PLACEMENT_3D ( 'NONE', #143, #345, #429 ) ;
#277 = ADVANCED_FACE ( 'NONE', ( #232 ), #514, .T. ) ;
#278 = VECTOR ( 'NONE', #386, 1000.000000000000000 ) ;
#279 = VERTEX_POINT ( 'NONE', #353 ) ;
#280 = EDGE_CURVE ( 'NONE', #197, #155, #262, .T. ) ;
#281 = CC_DESIGN_APPROVAL ( #9, ( #358 ) ) ;
#282 = CARTESIAN_POINT ( 'NONE',  ( 882.0000000000000000, -18.00000000000000000, 2.000000000000000000 ) ) ;
#283 = APPROVAL_PERSON_ORGANIZATION ( #393, #9, #22 ) ;
#284 = ORIENTED_EDGE ( 'NONE', *, *, #511, .F. ) ;
#285 = EDGE_LOOP ( 'NONE', ( #170, #214, #503, #141 ) ) ;
#286 = DIRECTION ( 'NONE',  ( 1.000000000000000000, 0.000000000000000000, 0.000000000000000000 ) ) ;
#287 = AXIS2_PLACEMENT_3D ( 'NONE', #267, #233, #75 ) ;
#288 = CARTESIAN_POINT ( 'NONE',  ( 0.000000000000000000, 0.000000000000000000, 0.000000000000000000 ) ) ;
#289 = EDGE_CURVE ( 'NONE', #472, #335, #420, .T. ) ;
#290 = LINE ( 'NONE', #134, #366 ) ;
#291 = DIRECTION ( 'NONE',  ( -0.000000000000000000, -0.000000000000000000, -1.000000000000000000 ) ) ;
#292 = LINE ( 'NONE', #94, #213 ) ;
#293 = ORIENTED_EDGE ( 'NONE', *, *, #362, .T. ) ;
#294 = DIRECTION ( 'NONE',  ( -2.220446049250313081E-16, 1.000000000000000000, -0.000000000000000000 ) ) ;
#295 = CARTESIAN_POINT ( 'NONE',  ( 6.123233995736766243E-14, -500.0000000000000000, 580.0000000000000000 ) ) ;
#296 = AXIS2_PLACEMENT_3D ( 'NONE', #447, #209, #371 ) ;
#297 = DIRECTION ( 'NONE',  ( 0.000000000000000000, 0.000000000000000000, 1.000000000000000000 ) ) ;
#298 = DIRECTION ( 'NONE',  ( -0.000000000000000000, -0.000000000000000000, -1.000000000000000000 ) ) ;
#299 = PLANE ( 'NONE',  #258 ) ;
#300 = DIRECTION ( 'NONE',  ( 1.196361017915039486E-16, 1.000000000000000000, -0.000000000000000000 ) ) ;
#301 = COORDINATED_UNIVERSAL_TIME_OFFSET ( 8, 0, .AHEAD. ) ;
#302 = ORIENTED_EDGE ( 'NONE', *, *, #177, .F. ) ;
#303 = ORIENTED_EDGE ( 'NONE', *, *, #106, .F. ) ;
#304 = DIRECTION ( 'NONE',  ( 0.000000000000000000, 0.000000000000000000, -1.000000000000000000 ) ) ;
#305 = APPROVAL_ROLE ( '' ) ;
#306 = CARTESIAN_POINT ( 'NONE',  ( 900.0000000000001137, -500.0000000000000000, 580.0000000000000000 ) ) ;
#307 = CARTESIAN_POINT ( 'NONE',  ( 900.0000000000000000, 0.000000000000000000, 580.0000000000000000 ) ) ;
#308 = LINE ( 'NONE', #488, #465 ) ;
#309 = LINE ( 'NONE', #11, #450 ) ;
#310 = CARTESIAN_POINT ( 'NONE',  ( 900.0000000000000000, 0.000000000000000000, 0.000000000000000000 ) ) ;
#311 = EDGE_CURVE ( 'NONE', #113, #154, #138, .T. ) ;
#312 = CARTESIAN_POINT ( 'NONE',  ( 18.00000000000000355, -18.00000000000000000, 580.0000000000000000 ) ) ;
#313 = VERTEX_POINT ( 'NONE', #70 ) ;
#314 = ORIENTED_EDGE ( 'NONE', *, *, #431, .T. ) ;
#315 = AXIS2_PLACEMENT_3D ( 'NONE', #92, #127, #14 ) ;
#316 = VECTOR ( 'NONE', #409, 1000.000000000000000 ) ;
#317 = LINE ( 'NONE', #468, #466 ) ;
#318 = ORIENTED_EDGE ( 'NONE', *, *, #332, .T. ) ;
#319 = PERSON ( '未指定', '未指定', '未指定', ('未指定'), ('未指定'), ('未指定') ) ;
#320 = CC_DESIGN_PERSON_AND_ORGANIZATION_ASSIGNMENT ( #203, #137, ( #163 ) ) ;
#321 = DATE_AND_TIME ( #518, #99 ) ;
#322 = VECTOR ( 'NONE', #454, 1000.000000000000000 ) ;
#323 = ORIENTED_EDGE ( 'NONE', *, *, #57, .T. ) ;
#324 = EDGE_CURVE ( 'NONE', #197, #113, #309, .T. ) ;
#325 = DIRECTION ( 'NONE',  ( -0.000000000000000000, -0.000000000000000000, -1.000000000000000000 ) ) ;
#326 = COORDINATED_UNIVERSAL_TIME_OFFSET ( 8, 0, .AHEAD. ) ;
#327 = VECTOR ( 'NONE', #180, 1000.000000000000000 ) ;
#328 = ORIENTED_EDGE ( 'NONE', *, *, #239, .T. ) ;
#329 = DIRECTION ( 'NONE',  ( 1.000000000000000000, 0.000000000000000000, 0.000000000000000000 ) ) ;
#330 = CC_DESIGN_APPROVAL ( #451, ( #365 ) ) ;
#331 = CARTESIAN_POINT ( 'NONE',  ( 881.9999999999998863, -482.0000000000000000, 0.000000000000000000 ) ) ;
#332 = EDGE_CURVE ( 'NONE', #396, #197, #248, .T. ) ;
#333 = DIRECTION ( 'NONE',  ( 0.000000000000000000, -0.000000000000000000, -1.000000000000000000 ) ) ;
#334 = VECTOR ( 'NONE', #107, 1000.000000000000000 ) ;
#335 = VERTEX_POINT ( 'NONE', #5 ) ;
#336 = ORIENTED_EDGE ( 'NONE', *, *, #362, .F. ) ;
#337 = CARTESIAN_POINT ( 'NONE',  ( 18.00000000000011369, -18.00000000000000000, -0.000000000000000000 ) ) ;
#338 = CARTESIAN_POINT ( 'NONE',  ( 882.0000000000000000, -18.00000000000000000, -0.000000000000000000 ) ) ;
#339 = AXIS2_PLACEMENT_3D ( 'NONE', #268, #230, #474 ) ;
#340 = SECURITY_CLASSIFICATION_LEVEL ( 'unclassified' ) ;
#341 = DIRECTION ( 'NONE',  ( -1.000000000000000000, 0.000000000000000000, -0.000000000000000000 ) ) ;
#342 = CC_DESIGN_PERSON_AND_ORGANIZATION_ASSIGNMENT ( #88, #216, ( #365 ) ) ;
#343 = LINE ( 'NONE', #492, #439 ) ;
#344 = ORIENTED_EDGE ( 'NONE', *, *, #125, .F. ) ;
#345 = DIRECTION ( 'NONE',  ( -1.000000000000000000, 1.196361017915039486E-16, 0.000000000000000000 ) ) ;
#346 = PRODUCT_DEFINITION_SHAPE ( 'NONE', 'NONE',  #365 ) ;
#347 = LINE ( 'NONE', #506, #84 ) ;
#348 = AXIS2_PLACEMENT_3D ( 'NONE', #172, #168, #126 ) ;
#349 = CARTESIAN_POINT ( 'NONE',  ( 18.00000000000000355, -18.00000000000000000, 20.00000000000001776 ) ) ;
#350 = FACE_OUTER_BOUND ( 'NONE', #121, .T. ) ;
#351 = ADVANCED_FACE ( 'NONE', ( #40, #26 ), #486, .F. ) ;
#352 = ORIENTED_EDGE ( 'NONE', *, *, #106, .T. ) ;
#353 = CARTESIAN_POINT ( 'NONE',  ( 0.000000000000000000, 0.000000000000000000, 0.000000000000000000 ) ) ;
#354 = EDGE_CURVE ( 'NONE', #28, #167, #292, .T. ) ;
#355 = ORGANIZATION ( '未指定', '未指定', '' ) ;
#356 = VECTOR ( 'NONE', #60, 1000.000000000000000 ) ;
#357 = ORIENTED_EDGE ( 'NONE', *, *, #442, .F. ) ;
#358 = PRODUCT_DEFINITION_FORMATION_WITH_SPECIFIED_SOURCE ( '任何', '', #163, .NOT_KNOWN. ) ;
#359 = VECTOR ( 'NONE', #498, 1000.000000000000000 ) ;
#360 = VECTOR ( 'NONE', #185, 1000.000000000000000 ) ;
#361 = VERTEX_POINT ( 'NONE', #123 ) ;
#362 = EDGE_CURVE ( 'NONE', #205, #12, #290, .T. ) ;
#363 = ORIENTED_EDGE ( 'NONE', *, *, #81, .T. ) ;
#364 = CARTESIAN_POINT ( 'NONE',  ( 18.00000000000005684, -482.0000000000000000, 20.00000000000001776 ) ) ;
#365 = PRODUCT_DEFINITION ( '未知', '', #358, #404 ) ;
#366 = VECTOR ( 'NONE', #370, 1000.000000000000000 ) ;
#367 = FACE_OUTER_BOUND ( 'NONE', #82, .T. ) ;
#368 = ORIENTED_EDGE ( 'NONE', *, *, #202, .F. ) ;
#369 = AXIS2_PLACEMENT_3D ( 'NONE', #21, #304, #341 ) ;
#370 = DIRECTION ( 'NONE',  ( -0.000000000000000000, -0.000000000000000000, -1.000000000000000000 ) ) ;
#371 = DIRECTION ( 'NONE',  ( 2.392722035830078972E-16, -1.000000000000000000, 0.000000000000000000 ) ) ;
#372 = EDGE_CURVE ( 'NONE', #154, #167, #448, .T. ) ;
#373 = CARTESIAN_POINT ( 'NONE',  ( 18.00000000000005684, -482.0000000000000000, -0.000000000000000000 ) ) ;
#374 = VECTOR ( 'NONE', #66, 1000.000000000000000 ) ;
#375 = VERTEX_POINT ( 'NONE', #413 ) ;
#376 = ORIENTED_EDGE ( 'NONE', *, *, #57, .F. ) ;
#377 = AXIS2_PLACEMENT_3D ( 'NONE', #100, #380, #416 ) ;
#378 = APPLICATION_PROTOCOL_DEFINITION ( 'international standard', 'config_control_design', 1994, #260 ) ;
#379 = PLANE ( 'NONE',  #276 ) ;
#380 = DIRECTION ( 'NONE',  ( 0.000000000000000000, 1.000000000000000000, -0.000000000000000000 ) ) ;
#381 = CARTESIAN_POINT ( 'NONE',  ( 18.00000000000000355, -18.00000000000000000, 20.00000000000001776 ) ) ;
#382 = PERSON_AND_ORGANIZATION_ROLE ( 'classification_officer' ) ;
#383 = APPROVAL_DATE_TIME ( #226, #9 ) ;
#384 = ORIENTED_EDGE ( 'NONE', *, *, #184, .T. ) ;
#385 = ORIENTED_EDGE ( 'NONE', *, *, #152, .F. ) ;
#386 = DIRECTION ( 'NONE',  ( -1.196361017915039486E-16, 1.000000000000000000, 0.000000000000000000 ) ) ;
#387 = CC_DESIGN_PERSON_AND_ORGANIZATION_ASSIGNMENT ( #478, #500, ( #358 ) ) ;
#388 = LINE ( 'NONE', #217, #359 ) ;
#389 = LINE ( 'NONE', #27, #175 ) ;
#390 = ORIENTED_EDGE ( 'NONE', *, *, #431, .F. ) ;
#391 = EDGE_CURVE ( 'NONE', #44, #502, #481, .T. ) ;
#392 = DIRECTION ( 'NONE',  ( 0.000000000000000000, -1.000000000000000000, 0.000000000000000000 ) ) ;
#393 = PERSON_AND_ORGANIZATION ( #319, #355 ) ;
#394 = CC_DESIGN_SECURITY_CLASSIFICATION ( #405, ( #358 ) ) ;
#395 = ORIENTED_EDGE ( 'NONE', *, *, #280, .F. ) ;
#396 = VERTEX_POINT ( 'NONE', #406 ) ;
#397 = ADVANCED_FACE ( 'NONE', ( #261, #53 ), #8, .T. ) ;
#398 = AXIS2_PLACEMENT_3D ( 'NONE', #435, #512, #31 ) ;
#399 = ADVANCED_FACE ( 'NONE', ( #508 ), #207, .T. ) ;
#400 = LINE ( 'NONE', #288, #79 ) ;
#401 = EDGE_CURVE ( 'NONE', #335, #279, #308, .T. ) ;
#402 = FACE_OUTER_BOUND ( 'NONE', #80, .T. ) ;
#403 = EDGE_LOOP ( 'NONE', ( #344, #408, #441, #284 ) ) ;
#404 = DESIGN_CONTEXT ( 'detailed design', #260, 'design' ) ;
#405 = SECURITY_CLASSIFICATION ( '', '', #340 ) ;
#406 = CARTESIAN_POINT ( 'NONE',  ( 882.0000000000001137, -482.0000000000000000, 580.0000000000000000 ) ) ;
#407 = ORIENTED_EDGE ( 'NONE', *, *, #158, .T. ) ;
#408 = ORIENTED_EDGE ( 'NONE', *, *, #184, .F. ) ;
#409 = DIRECTION ( 'NONE',  ( -2.392722035830078972E-16, -1.000000000000000000, 0.000000000000000000 ) ) ;
#410 = CARTESIAN_POINT ( 'NONE',  ( 900.0000000000000000, 0.000000000000000000, 0.000000000000000000 ) ) ;
#411 = CARTESIAN_POINT ( 'NONE',  ( 0.000000000000000000, 0.000000000000000000, 580.0000000000000000 ) ) ;
#412 = COORDINATED_UNIVERSAL_TIME_OFFSET ( 8, 0, .AHEAD. ) ;
#413 = CARTESIAN_POINT ( 'NONE',  ( 900.0000000000001137, -500.0000000000000000, 0.000000000000000000 ) ) ;
#414 = FACE_OUTER_BOUND ( 'NONE', #221, .T. ) ;
#415 = VERTEX_POINT ( 'NONE', #174 ) ;
#416 = DIRECTION ( 'NONE',  ( 0.000000000000000000, 0.000000000000000000, 1.000000000000000000 ) ) ;
#417 = CARTESIAN_POINT ( 'NONE',  ( 900.0000000000000000, 0.000000000000000000, 580.0000000000000000 ) ) ;
#418 = EDGE_CURVE ( 'NONE', #472, #245, #343, .T. ) ;
#419 = PLANE ( 'NONE',  #18 ) ;
#420 = LINE ( 'NONE', #477, #54 ) ;
#421 = ORIENTED_EDGE ( 'NONE', *, *, #324, .F. ) ;
#422 = ORIENTED_EDGE ( 'NONE', *, *, #372, .F. ) ;
#423 = APPLICATION_PROTOCOL_DEFINITION ( 'international standard', 'config_control_design', 1994, #497 ) ;
#424 = CARTESIAN_POINT ( 'NONE',  ( 882.0000000000000000, -18.00000000000000000, 20.00000000000001776 ) ) ;
#425 = CC_DESIGN_DATE_AND_TIME_ASSIGNMENT ( #10, #252, ( #405 ) ) ;
#426 = CARTESIAN_POINT ( 'NONE',  ( 0.000000000000000000, 0.000000000000000000, 0.000000000000000000 ) ) ;
#427 = PERSON_AND_ORGANIZATION ( #319, #355 ) ;
#428 = VECTOR ( 'NONE', #273, 1000.000000000000000 ) ;
#429 = DIRECTION ( 'NONE',  ( -1.196361017915039486E-16, -1.000000000000000000, 0.000000000000000000 ) ) ;
#430 = ORIENTED_EDGE ( 'NONE', *, *, #87, .F. ) ;
#431 = EDGE_CURVE ( 'NONE', #245, #279, #400, .T. ) ;
#432 = DIRECTION ( 'NONE',  ( -1.196361017915039486E-16, 1.000000000000000000, 0.000000000000000000 ) ) ;
#433 = PLANE ( 'NONE',  #339 ) ;
#434 = ADVANCED_FACE ( 'NONE', ( #67 ), #124, .F. ) ;
#435 = CARTESIAN_POINT ( 'NONE',  ( 900.0000000000000000, 0.000000000000000000, 580.0000000000000000 ) ) ;
#436 = LINE ( 'NONE', #426, #334 ) ;
#437 = ORIENTED_EDGE ( 'NONE', *, *, #311, .T. ) ;
#438 = ORIENTED_EDGE ( 'NONE', *, *, #354, .T. ) ;
#439 = VECTOR ( 'NONE', #291, 1000.000000000000000 ) ;
#440 = LINE ( 'NONE', #135, #200 ) ;
#441 = ORIENTED_EDGE ( 'NONE', *, *, #162, .F. ) ;
#442 = EDGE_CURVE ( 'NONE', #150, #44, #493, .T. ) ;
#443 = FACE_OUTER_BOUND ( 'NONE', #206, .T. ) ;
#444 = ORIENTED_EDGE ( 'NONE', *, *, #280, .T. ) ;
#445 = CLOSED_SHELL ( 'NONE', ( #277, #231, #399, #475, #397, #351, #434, #72, #238, #190, #110, #32, #513, #156, #241, #29 ) ) ;
#446 = CARTESIAN_POINT ( 'NONE',  ( 881.9999999999998863, -482.0000000000000000, 2.000000000000000000 ) ) ;
#447 = CARTESIAN_POINT ( 'NONE',  ( 882.0000000000000000, -18.00000000000000000, 580.0000000000000000 ) ) ;
#448 = LINE ( 'NONE', #364, #83 ) ;
#449 = CARTESIAN_POINT ( 'NONE',  ( 881.9999999999998863, -482.0000000000000000, 2.000000000000000000 ) ) ;
#450 = VECTOR ( 'NONE', #51, 1000.000000000000000 ) ;
#451 = APPROVAL ( #145, '未指定' ) ;
#452 = ORIENTED_EDGE ( 'NONE', *, *, #162, .T. ) ;
#453 = DIRECTION ( 'NONE',  ( -1.224646799147353207E-16, 1.000000000000000000, 0.000000000000000000 ) ) ;
#454 = DIRECTION ( 'NONE',  ( -0.000000000000000000, -0.000000000000000000, -1.000000000000000000 ) ) ;
#455 =( NAMED_UNIT ( * ) SI_UNIT ( $, .STERADIAN. ) SOLID_ANGLE_UNIT ( ) );
#456 = CARTESIAN_POINT ( 'NONE',  ( 0.000000000000000000, 0.000000000000000000, 2.000000000000000000 ) ) ;
#457 = DIRECTION ( 'NONE',  ( 0.000000000000000000, -1.000000000000000000, 0.000000000000000000 ) ) ;
#458 = VECTOR ( 'NONE', #476, 1000.000000000000000 ) ;
#459 = FACE_OUTER_BOUND ( 'NONE', #517, .T. ) ;
#460 = ORIENTED_EDGE ( 'NONE', *, *, #186, .T. ) ;
#461 = PLANE ( 'NONE',  #377 ) ;
#462 = DIRECTION ( 'NONE',  ( 1.000000000000000000, 0.000000000000000000, 0.000000000000000000 ) ) ;
#463 = DIRECTION ( 'NONE',  ( -2.392722035830078972E-16, -1.000000000000000000, 0.000000000000000000 ) ) ;
#464 = CARTESIAN_POINT ( 'NONE',  ( 881.9999999999998863, -482.0000000000000000, -0.000000000000000000 ) ) ;
#465 = VECTOR ( 'NONE', #13, 1000.000000000000000 ) ;
#466 = VECTOR ( 'NONE', #224, 1000.000000000000000 ) ;
#467 = EDGE_LOOP ( 'NONE', ( #303, #422, #114, #182 ) ) ;
#468 = CARTESIAN_POINT ( 'NONE',  ( 6.123233995736766243E-14, -500.0000000000000000, 580.0000000000000000 ) ) ;
#469 = DIRECTION ( 'NONE',  ( 1.000000000000000000, -0.000000000000000000, -0.000000000000000000 ) ) ;
#470 = FACE_OUTER_BOUND ( 'NONE', #41, .T. ) ;
#471 = VECTOR ( 'NONE', #294, 1000.000000000000000 ) ;
#472 = VERTEX_POINT ( 'NONE', #417 ) ;
#473 = ORIENTED_EDGE ( 'NONE', *, *, #81, .F. ) ;
#474 = DIRECTION ( 'NONE',  ( 0.000000000000000000, -0.000000000000000000, 1.000000000000000000 ) ) ;
#475 = ADVANCED_FACE ( 'NONE', ( #470 ), #299, .T. ) ;
#476 = DIRECTION ( 'NONE',  ( -0.000000000000000000, -0.000000000000000000, -1.000000000000000000 ) ) ;
#477 = CARTESIAN_POINT ( 'NONE',  ( 0.000000000000000000, 0.000000000000000000, 580.0000000000000000 ) ) ;
#478 = PERSON_AND_ORGANIZATION ( #319, #355 ) ;
#479 = ORIENTED_EDGE ( 'NONE', *, *, #108, .T. ) ;
#480 = VERTEX_POINT ( 'NONE', #337 ) ;
#481 = LINE ( 'NONE', #446, #147 ) ;
#482 = LINE ( 'NONE', #30, #458 ) ;
#483 = ORIENTED_EDGE ( 'NONE', *, *, #1, .F. ) ;
#484 = ORIENTED_EDGE ( 'NONE', *, *, #289, .T. ) ;
#485 = CALENDAR_DATE ( 2026, 1, 6 ) ;
#486 = PLANE ( 'NONE',  #86 ) ;
#487 = ORIENTED_EDGE ( 'NONE', *, *, #332, .F. ) ;
#488 = CARTESIAN_POINT ( 'NONE',  ( 0.000000000000000000, 0.000000000000000000, 580.0000000000000000 ) ) ;
#489 = DIRECTION ( 'NONE',  ( 0.000000000000000000, 1.000000000000000000, 0.000000000000000000 ) ) ;
#490 = DIRECTION ( 'NONE',  ( -2.392722035830078972E-16, 1.000000000000000000, -0.000000000000000000 ) ) ;
#491 = PLANE ( 'NONE',  #242 ) ;
#492 = CARTESIAN_POINT ( 'NONE',  ( 900.0000000000000000, 0.000000000000000000, 580.0000000000000000 ) ) ;
#493 = LINE ( 'NONE', #282, #316 ) ;
#494 = LINE ( 'NONE', #133, #322 ) ;
#495 = CC_DESIGN_PERSON_AND_ORGANIZATION_ASSIGNMENT ( #61, #59, ( #358 ) ) ;
#496 = EDGE_LOOP ( 'NONE', ( #452, #166, #368, #323 ) ) ;
#497 = APPLICATION_CONTEXT ( 'configuration controlled 3d designs of mechanical parts and assemblies' ) ;
#498 = DIRECTION ( 'NONE',  ( 1.196361017915039486E-16, 1.000000000000000000, -0.000000000000000000 ) ) ;
#499 = APPROVAL_ROLE ( '' ) ;
#500 = PERSON_AND_ORGANIZATION_ROLE ( 'design_supplier' ) ;
#501 = CALENDAR_DATE ( 2026, 1, 6 ) ;
#502 = VERTEX_POINT ( 'NONE', #331 ) ;
#503 = ORIENTED_EDGE ( 'NONE', *, *, #142, .F. ) ;
#504 = CARTESIAN_POINT ( 'NONE',  ( 0.000000000000000000, 0.000000000000000000, 0.000000000000000000 ) ) ;
#505 = DIRECTION ( 'NONE',  ( -1.000000000000000000, 0.000000000000000000, 0.000000000000000000 ) ) ;
#506 = CARTESIAN_POINT ( 'NONE',  ( 881.9999999999998863, -482.0000000000000000, 2.000000000000000000 ) ) ;
#507 = DIRECTION ( 'NONE',  ( -1.000000000000000000, -0.000000000000000000, -0.000000000000000000 ) ) ;
#508 = FACE_OUTER_BOUND ( 'NONE', #274, .T. ) ;
#509 = LINE ( 'NONE', #229, #327 ) ;
#510 = ORIENTED_EDGE ( 'NONE', *, *, #442, .T. ) ;
#511 = EDGE_CURVE ( 'NONE', #12, #480, #388, .T. ) ;
#512 = DIRECTION ( 'NONE',  ( -1.000000000000000000, -2.220446049250313081E-16, 0.000000000000000000 ) ) ;
#513 = ADVANCED_FACE ( 'NONE', ( #169 ), #461, .F. ) ;
#514 = PLANE ( 'NONE',  #93 ) ;
#515 = CALENDAR_DATE ( 2026, 1, 6 ) ;
#516 = ORIENTED_EDGE ( 'NONE', *, *, #132, .F. ) ;
#517 = EDGE_LOOP ( 'NONE', ( #510, #254, #91, #56 ) ) ;
#518 = CALENDAR_DATE ( 2026, 1, 6 ) ;
#519 = COORDINATED_UNIVERSAL_TIME_OFFSET ( 8, 0, .AHEAD. ) ;
#520 = LINE ( 'NONE', #98, #356 ) ;
#521 = ORIENTED_EDGE ( 'NONE', *, *, #97, .F. ) ;
ENDSEC;
END-ISO-10303-21;
